<svg width="128" height="128" viewBox="0 0 128 128" fill="none" xmlns="http://www.w3.org/2000/svg">
<path d="M71.4852 25H6.53075C2.93643 25 0 27.9364 0 31.5308V96.4692C0 100.064 2.93643 103 6.53075 103H71.4692C75.0635 103 77.9999 100.064 77.9999 96.4692V31.5308C78.016 27.9364 75.0796 25 71.4852 25ZM74.1649 96.4853C74.1649 97.9615 72.9615 99.165 71.4852 99.165H6.53075C5.05451 99.165 3.85106 97.9615 3.85106 96.4853V31.5308C3.85106 30.0545 5.05451 28.8511 6.53075 28.8511H71.4692C72.9454 28.8511 74.1489 30.0545 74.1489 31.5308V96.4853H74.1649Z" fill="white"/>
<path d="M30.9691 73.2346C30.2149 72.4804 28.9954 72.4804 28.2413 73.2346L22.4486 79.0272L16.656 73.2346C15.9018 72.4804 14.6823 72.4804 13.9282 73.2346C13.174 73.9887 13.174 75.2082 13.9282 75.9624L19.7208 81.755L13.9282 87.5477C13.174 88.3018 13.174 89.5213 13.9282 90.2755C14.2972 90.6446 14.7947 90.8371 15.2921 90.8371C15.7895 90.8371 16.2709 90.6446 16.656 90.2755L22.4486 84.4829L28.2413 90.2755C28.6103 90.6446 29.1078 90.8371 29.6052 90.8371C30.1026 90.8371 30.584 90.6446 30.9691 90.2755C31.7233 89.5213 31.7233 88.3018 30.9691 87.5477L25.1765 81.755L30.9691 75.9624C31.7233 75.2082 31.7233 73.9887 30.9691 73.2346Z" fill="white"/>
<path d="M32.5735 46.1325H24.39V37.949C24.39 36.8899 23.5235 36.0234 22.4645 36.0234C21.4054 36.0234 20.539 36.8899 20.539 37.949V46.1325H12.3555C11.2964 46.1325 10.4299 46.999 10.4299 48.058C10.4299 49.117 11.2964 49.9835 12.3555 49.9835H20.539V58.167C20.539 59.2261 21.4054 60.0926 22.4645 60.0926C23.5235 60.0926 24.39 59.2261 24.39 58.167V49.9835H32.5735C33.6325 49.9835 34.499 49.117 34.499 48.058C34.499 46.999 33.6325 46.1325 32.5735 46.1325Z" fill="white"/>
<path d="M64.8101 84.5479H47.5605C46.5015 84.5479 45.635 85.4143 45.635 86.4734C45.635 87.5324 46.5015 88.3989 47.5605 88.3989H64.794C65.8531 88.3989 66.7195 87.5324 66.7195 86.4734C66.7195 85.4143 65.8691 84.5479 64.8101 84.5479Z" fill="white"/>
<path d="M64.8101 75.0972H47.5605C46.5015 75.0972 45.635 75.9637 45.635 77.0227C45.635 78.0817 46.5015 78.9482 47.5605 78.9482H64.794C65.8531 78.9482 66.7195 78.0817 66.7195 77.0227C66.7195 75.9637 65.8691 75.0972 64.8101 75.0972Z" fill="white"/>
<path d="M63.3179 49.9853C64.3769 49.9853 65.2434 49.1188 65.2434 48.0598C65.2434 47.0008 64.3769 46.1343 63.3179 46.1343H46.0684C45.0093 46.1343 44.1428 47.0008 44.1428 48.0598C44.1428 49.1188 45.0093 49.9853 46.0684 49.9853H63.3179Z" fill="white"/>
</svg>
