<svg width="128" height="128" viewBox="0 0 128 128" fill="none" xmlns="http://www.w3.org/2000/svg">
<path opacity="0.2" d="M116.853 46.1472C128.256 70.7224 100.398 93.482 74.3664 100.989C52.6777 107.243 31.5071 105.821 18.1283 87.641C-2.21974 59.9904 44.2906 19.814 78.4062 23.6518C95.6928 25.5964 109.531 30.3676 116.853 46.1472Z" fill="#2A91F0"/>
<path d="M61.8942 76.0869H58.9525V70.643C58.9525 69.4987 58.0125 68.5625 56.8637 68.5625C55.7149 68.5625 54.7749 69.4987 54.7749 70.643V76.0869H47.4468L53.7479 61.4368C54.2005 60.3793 53.7131 59.1657 52.6513 58.6975C51.5895 58.2468 50.3711 58.7322 49.9011 59.7898L42.3466 77.3525C42.0681 77.994 42.1378 78.7395 42.5207 79.3116C42.9037 79.8838 43.5651 80.2479 44.2614 80.2479H54.7575V85.6918C54.7575 86.836 55.6975 87.7723 56.8463 87.7723C57.9951 87.7723 58.9351 86.836 58.9351 85.6918V80.2479H61.8768C63.0256 80.2479 63.9656 79.3116 63.9656 78.1674C63.9656 77.0231 63.043 76.0869 61.8942 76.0869Z" fill="#435586"/>
<path d="M39.2309 83.6108H28.6303L36.3936 74.4914L36.5851 74.2833C36.5851 74.266 36.6025 74.266 36.6025 74.2486C38.0124 72.5322 38.7957 70.3651 38.7957 68.1459C38.7957 62.858 34.4615 58.541 29.1525 58.541C27.6381 58.541 26.1412 58.9051 24.8009 59.5813C23.7739 60.1014 23.3561 61.3497 23.8783 62.3726C24.4005 63.3955 25.6538 63.8116 26.6808 63.2914C27.4466 62.91 28.2822 62.702 29.1525 62.702C32.1638 62.702 34.6181 65.1465 34.6181 68.1459C34.6181 69.4115 34.2004 70.6078 33.3823 71.5787L22.5206 84.3216C21.9984 84.9458 21.8766 85.8126 22.2247 86.5408C22.5728 87.269 23.3039 87.7544 24.122 87.7544H39.2309C40.3797 87.7544 41.3197 86.8182 41.3197 85.6739C41.3197 84.5297 40.3797 83.6108 39.2309 83.6108Z" fill="#435586"/>
<path d="M81.5635 43.9608L65.6017 23.7975C65.2014 23.2947 64.6096 23 63.9655 23H22.0506C21.4065 23 20.8147 23.2947 20.4144 23.7975L4.45257 43.9608C4.15666 44.3249 4 44.7757 4 45.2438V101.92C4 103.064 4.93995 104 6.08878 104H79.9099C81.0587 104 81.9987 103.064 81.9987 101.92V45.2438C82.0161 44.7757 81.8594 44.3249 81.5635 43.9608ZM75.889 43.5101H45.0968V27.161H62.9559L75.889 43.5101ZM23.0602 27.161H40.9193V43.5101H10.1271L23.0602 27.161ZM8.17757 99.839V47.671H77.8211V99.839H8.17757Z" fill="#435586"/>
</svg>
