<svg width="128" height="128" viewBox="0 0 128 128" fill="none" xmlns="http://www.w3.org/2000/svg">
<path opacity="0.2" d="M114.412 46.7434C125.686 71.0143 97.8498 93.5256 71.888 100.965C50.2572 107.163 29.1699 105.777 15.9049 87.8265C-4.26997 60.5248 42.2112 20.789 76.1872 24.551C93.4031 26.4572 107.173 31.1592 114.412 46.7434Z" fill="#2A91F0"/>
<path d="M40.5989 58.6027C40.5466 58.5507 40.4944 58.4987 40.4422 58.464C40.4074 58.4467 40.39 58.4293 40.3552 58.412C40.3204 58.3947 40.3029 58.3773 40.2681 58.3427C40.2333 58.3253 40.1985 58.308 40.1637 58.2906C40.1289 58.2733 40.1115 58.256 40.0767 58.2386C40.0418 58.2213 40.007 58.204 39.9722 58.1866C39.9374 58.1693 39.92 58.1519 39.8852 58.1519C39.8504 58.1346 39.8156 58.1346 39.7808 58.1173C39.7459 58.0999 39.7111 58.0999 39.6937 58.0826C39.6589 58.0653 39.6241 58.0653 39.5893 58.0653C39.5545 58.0653 39.5197 58.0479 39.4848 58.0479C39.45 58.0479 39.4152 58.0306 39.363 58.0306C39.3282 58.0306 39.3108 58.0132 39.276 58.0132C39.1367 57.9959 38.9975 57.9959 38.8582 58.0132C38.8234 58.0132 38.806 58.0132 38.7712 58.0306C38.7364 58.0306 38.7015 58.0479 38.6493 58.0479C38.6145 58.0479 38.5797 58.0653 38.5449 58.0653C38.5101 58.0653 38.4753 58.0826 38.4404 58.0826C38.4056 58.0999 38.3708 58.0999 38.3534 58.1173C38.3186 58.1346 38.2838 58.1346 38.249 58.1519C38.2142 58.1693 38.1968 58.1866 38.1619 58.1866C38.1271 58.204 38.0923 58.2213 38.0575 58.2386C38.0227 58.256 38.0053 58.2733 37.9705 58.2906C37.9357 58.308 37.9008 58.3253 37.866 58.3427C37.8312 58.36 37.8138 58.3773 37.779 58.412C37.7442 58.4293 37.7268 58.4467 37.692 58.464C37.6397 58.4987 37.5875 58.5507 37.5527 58.5854C37.5527 58.5854 37.5527 58.5854 37.5353 58.6027L27.6136 68.485C26.7955 69.2998 26.7955 70.6175 27.6136 71.4323C28.0139 71.8311 28.5535 72.0391 29.0931 72.0391C29.6327 72.0391 30.1549 71.8311 30.5727 71.4323L36.9261 65.1042V88.8043C36.9261 89.9486 37.866 90.8848 39.0149 90.8848C40.1637 90.8848 41.1036 89.9486 41.1036 88.8043V65.1042L47.4222 71.3977C48.2403 72.2125 49.5632 72.2125 50.3813 71.3977C51.1994 70.5828 51.1994 69.2652 50.3813 68.4503L40.5989 58.6027Z" fill="#435586"/>
<path d="M77.5635 43.9608L61.6017 23.7975C61.2014 23.2947 60.6096 23 59.9655 23H18.0506C17.4065 23 16.7973 23.2947 16.4144 23.7975L0.45257 43.9608C0.156659 44.3249 0 44.7757 0 45.2438V101.92C0 103.064 0.939953 104 2.08878 104H75.9099C77.0587 104 77.9987 103.064 77.9987 101.92V45.2438C78.0161 44.7757 77.8594 44.3249 77.5635 43.9608ZM71.889 43.5101H41.0968V27.161H58.9559L71.889 43.5101ZM19.0602 27.161H36.9193V43.5101H6.1271L19.0602 27.161ZM4.17757 99.839V47.671H73.8211V99.839H4.17757Z" fill="#435586"/>
</svg>
