<svg width="128" height="128" viewBox="0 0 128 128" fill="none" xmlns="http://www.w3.org/2000/svg">
<path opacity="0.2" d="M113.471 41.1994C124.476 65.0711 97.3953 87.1839 72.1229 94.4792C51.0666 100.558 30.5309 99.1791 17.5937 81.5198C-2.08255 54.6616 43.1345 15.6273 76.2234 19.3513C92.9898 21.2382 106.404 25.8715 113.471 41.1994Z" fill="#2A91F0"/>
<path d="M103.723 89.5459C103.722 88.8361 103.295 88.1961 102.639 87.9244C101.983 87.6524 101.228 87.8027 100.726 88.3046L100.726 88.3047L84.2786 104.757L84.2786 104.757C83.7768 105.26 83.6266 106.015 83.8984 106.671C84.1699 107.327 84.8103 107.754 85.5199 107.754H101.968C102.937 107.754 103.723 106.968 103.723 105.999V89.546V89.5459ZM100.212 104.243H89.7563L100.212 93.7844V104.243Z" fill="#435586" stroke="#435586" stroke-width="0.5"/>
<mask id="path-3-outside-1" maskUnits="userSpaceOnUse" x="10.8135" y="14.9331" width="105" height="104" fill="black">
<rect fill="white" x="10.8135" y="14.9331" width="105" height="104"/>
<path d="M113.425 64.023C112.862 63.7898 112.215 63.9186 111.784 64.3491L107.277 68.8581V38.2006C107.277 37.369 106.603 36.6951 105.772 36.6951H94.2078L98.4055 32.496L98.4073 32.494L102.452 28.4481C103.319 27.5812 103.796 26.4281 103.796 25.202C103.796 23.976 103.319 22.8232 102.452 21.956L97.7749 17.2774C96.9083 16.4105 95.7555 15.9331 94.5298 15.9331C93.3042 15.9331 92.1516 16.4105 91.2848 17.2774L87.2381 21.3253L82.3482 26.2167L71.8732 36.6949H25.1557V21.8009C25.1557 20.9693 24.4818 20.2954 23.6507 20.2954C17.1237 20.2958 11.8135 25.6073 11.8135 32.1366V96.0809C11.8135 96.192 11.8263 96.3002 11.8491 96.4044C12.057 99.1748 13.2552 101.749 15.2578 103.703C17.3983 105.791 20.224 106.941 23.2145 106.941H69.205L60.5433 115.606C60.113 116.036 59.9842 116.684 60.2171 117.246C60.45 117.809 60.999 118.176 61.6076 118.176H112.849C113.68 118.176 114.354 117.502 114.354 116.67V65.4139C114.354 64.8051 113.987 64.256 113.425 64.023ZM93.4137 19.4067C94.0289 18.7909 95.0313 18.7909 95.6466 19.4067L100.324 24.0856C100.94 24.7012 100.94 25.7035 100.324 26.3193L97.3417 29.3027L90.431 22.3901L93.4137 19.4067ZM88.3025 24.5193L95.213 31.4316L92.4514 34.1941L85.5413 27.2817L88.3025 24.5193ZM111.344 82.3306H108.567C107.736 82.3306 107.062 83.0046 107.062 83.8362C107.062 84.6677 107.736 85.3417 108.567 85.3417H111.344V89.8785H108.567C107.736 89.8785 107.062 90.5524 107.062 91.384C107.062 92.2156 107.736 92.8895 108.567 92.8895H111.344V97.4261H108.567C107.736 97.4261 107.062 98.1 107.062 98.9316C107.062 99.7632 107.736 100.437 108.567 100.437H111.344V104.974H108.567C107.736 104.974 107.062 105.648 107.062 106.479C107.062 107.311 107.736 107.985 108.567 107.985H111.344V115.165H65.241L85.2965 95.0729C85.8843 94.4847 85.8843 93.5317 85.2965 92.9438C85.229 92.8762 85.1565 92.8177 85.0806 92.7657C84.4946 92.3642 83.6883 92.4233 83.1678 92.9438L72.2151 103.931H23.2147C18.65 103.931 14.9754 100.366 14.8308 95.8082C14.8394 95.5221 14.8616 95.2384 14.8973 94.958L14.8979 94.9532C14.9147 94.8199 14.9349 94.6873 14.958 94.5555C14.9606 94.5405 14.9634 94.5255 14.966 94.5104C14.987 94.3928 15.0107 94.2758 15.0365 94.1592C15.0437 94.1268 15.0513 94.0943 15.0589 94.0621C15.0817 93.9635 15.1064 93.8655 15.1328 93.768C15.1472 93.7151 15.1623 93.6628 15.1777 93.6101C15.1997 93.5336 15.2225 93.4573 15.2468 93.3817C15.271 93.3062 15.2968 93.2315 15.3231 93.1568C15.3413 93.1045 15.3593 93.0522 15.379 93.0003C15.4156 92.9017 15.4545 92.8042 15.4945 92.7074C15.5059 92.6796 15.5171 92.6513 15.529 92.6235C15.5804 92.5033 15.6339 92.3845 15.6904 92.2671C15.6928 92.2621 15.695 92.2571 15.6974 92.252C16.8746 89.8152 19.1387 87.9983 21.8558 87.4346C21.8634 87.433 21.871 87.4312 21.8786 87.4296C22.0032 87.4041 22.129 87.3823 22.2556 87.3621C22.2766 87.3587 22.2976 87.3544 22.319 87.3512C22.4334 87.3338 22.549 87.3202 22.6645 87.3072C22.697 87.3036 22.7292 87.2986 22.7619 87.2953C22.8734 87.2841 22.986 87.2767 23.0985 87.2697C23.1342 87.2675 23.1698 87.2637 23.2055 87.2619C23.3529 87.2545 23.5015 87.2507 23.6507 87.2507C24.4818 87.2507 25.1557 86.5767 25.1557 85.7451V67.0853C25.1557 66.2537 24.4818 65.5798 23.6507 65.5798C22.8195 65.5798 22.1456 66.2537 22.1456 67.0853V84.3344C19.6041 84.6559 17.2451 85.7898 15.385 87.6069C15.1893 87.798 15.0038 87.9967 14.8232 88.1987V32.1366C14.8232 27.7811 17.9927 24.1517 22.1454 23.4349V38.2006V68.8072C22.1454 69.6386 22.8193 70.3129 23.6505 70.3129C24.4816 70.3129 25.1555 69.6388 25.1555 68.8074V39.7061H68.8633L60.5431 48.0288C59.9553 48.617 59.9553 49.57 60.5431 50.158C61.1309 50.7458 62.0838 50.7458 62.6715 50.158L73.561 39.2652L73.562 39.2642L83.4124 29.4107L90.3225 36.3232L89.5118 37.1342L89.5098 37.136L59.1627 67.4928L52.2524 60.5804L63.4706 49.3586C64.0584 48.7704 64.0584 47.8174 63.4706 47.2294C62.8828 46.6417 61.9299 46.6417 61.3423 47.2294L49.0596 59.5159C49.022 59.5535 48.9867 59.5934 48.9537 59.6343C48.9427 59.6479 48.9329 59.6625 48.9224 59.6767C48.9012 59.705 48.8804 59.7334 48.861 59.7631C48.8499 59.7803 48.8399 59.7979 48.8295 59.8158C48.8129 59.8438 48.7969 59.8722 48.7822 59.9013C48.7726 59.9201 48.764 59.9392 48.7552 59.9588C48.7418 59.9882 48.7294 60.0183 48.718 60.0483C48.714 60.059 48.7088 60.069 48.7049 60.0796L45.7727 68.3885L43.7736 74.0538C43.7472 74.1291 43.7281 74.2056 43.7139 74.2828H38.7087C37.8775 74.2828 37.2036 74.9567 37.2036 75.7883C37.2036 76.6199 37.8775 77.2938 38.7087 77.2938H80.3885C81.2198 77.2938 81.8935 76.6199 81.8935 75.7883C81.8935 74.9567 81.2198 74.2828 80.3885 74.2828H50.485L59.6635 71.0417C59.6711 71.0389 59.6784 71.0351 59.686 71.0323C59.7216 71.0191 59.7567 71.0043 59.7913 70.9885C59.8051 70.982 59.819 70.976 59.8324 70.9694C59.8684 70.9514 59.9039 70.9316 59.9387 70.9103C59.9499 70.9035 59.9615 70.8973 59.9726 70.8903C60.0088 70.8671 60.0441 70.8416 60.0787 70.8148C60.0873 70.8082 60.0963 70.8023 60.1047 70.7955C60.1466 70.7619 60.1877 70.7256 60.2265 70.6867L91.1977 39.7063H104.267V71.8693L82.7379 93.4048C82.1501 93.993 82.1501 94.946 82.7379 95.5339C82.7745 95.5706 82.8128 95.6051 82.8523 95.6373C83.1282 95.8623 83.4653 95.9749 83.8022 95.9749C84.139 95.9749 84.4763 95.8623 84.7521 95.6373C84.7915 95.6053 84.8298 95.5706 84.8664 95.5339L111.344 69.048V82.3306ZM56.4099 68.9971L52.0988 70.5195L49.2265 67.6463L50.7483 63.3338L56.4099 68.9971Z"/>
</mask>
<path d="M113.425 64.023C112.862 63.7898 112.215 63.9186 111.784 64.3491L107.277 68.8581V38.2006C107.277 37.369 106.603 36.6951 105.772 36.6951H94.2078L98.4055 32.496L98.4073 32.494L102.452 28.4481C103.319 27.5812 103.796 26.4281 103.796 25.202C103.796 23.976 103.319 22.8232 102.452 21.956L97.7749 17.2774C96.9083 16.4105 95.7555 15.9331 94.5298 15.9331C93.3042 15.9331 92.1516 16.4105 91.2848 17.2774L87.2381 21.3253L82.3482 26.2167L71.8732 36.6949H25.1557V21.8009C25.1557 20.9693 24.4818 20.2954 23.6507 20.2954C17.1237 20.2958 11.8135 25.6073 11.8135 32.1366V96.0809C11.8135 96.192 11.8263 96.3002 11.8491 96.4044C12.057 99.1748 13.2552 101.749 15.2578 103.703C17.3983 105.791 20.224 106.941 23.2145 106.941H69.205L60.5433 115.606C60.113 116.036 59.9842 116.684 60.2171 117.246C60.45 117.809 60.999 118.176 61.6076 118.176H112.849C113.68 118.176 114.354 117.502 114.354 116.67V65.4139C114.354 64.8051 113.987 64.256 113.425 64.023ZM93.4137 19.4067C94.0289 18.7909 95.0313 18.7909 95.6466 19.4067L100.324 24.0856C100.94 24.7012 100.94 25.7035 100.324 26.3193L97.3417 29.3027L90.431 22.3901L93.4137 19.4067ZM88.3025 24.5193L95.213 31.4316L92.4514 34.1941L85.5413 27.2817L88.3025 24.5193ZM111.344 82.3306H108.567C107.736 82.3306 107.062 83.0046 107.062 83.8362C107.062 84.6677 107.736 85.3417 108.567 85.3417H111.344V89.8785H108.567C107.736 89.8785 107.062 90.5524 107.062 91.384C107.062 92.2156 107.736 92.8895 108.567 92.8895H111.344V97.4261H108.567C107.736 97.4261 107.062 98.1 107.062 98.9316C107.062 99.7632 107.736 100.437 108.567 100.437H111.344V104.974H108.567C107.736 104.974 107.062 105.648 107.062 106.479C107.062 107.311 107.736 107.985 108.567 107.985H111.344V115.165H65.241L85.2965 95.0729C85.8843 94.4847 85.8843 93.5317 85.2965 92.9438C85.229 92.8762 85.1565 92.8177 85.0806 92.7657C84.4946 92.3642 83.6883 92.4233 83.1678 92.9438L72.2151 103.931H23.2147C18.65 103.931 14.9754 100.366 14.8308 95.8082C14.8394 95.5221 14.8616 95.2384 14.8973 94.958L14.8979 94.9532C14.9147 94.8199 14.9349 94.6873 14.958 94.5555C14.9606 94.5405 14.9634 94.5255 14.966 94.5104C14.987 94.3928 15.0107 94.2758 15.0365 94.1592C15.0437 94.1268 15.0513 94.0943 15.0589 94.0621C15.0817 93.9635 15.1064 93.8655 15.1328 93.768C15.1472 93.7151 15.1623 93.6628 15.1777 93.6101C15.1997 93.5336 15.2225 93.4573 15.2468 93.3817C15.271 93.3062 15.2968 93.2315 15.3231 93.1568C15.3413 93.1045 15.3593 93.0522 15.379 93.0003C15.4156 92.9017 15.4545 92.8042 15.4945 92.7074C15.5059 92.6796 15.5171 92.6513 15.529 92.6235C15.5804 92.5033 15.6339 92.3845 15.6904 92.2671C15.6928 92.2621 15.695 92.2571 15.6974 92.252C16.8746 89.8152 19.1387 87.9983 21.8558 87.4346C21.8634 87.433 21.871 87.4312 21.8786 87.4296C22.0032 87.4041 22.129 87.3823 22.2556 87.3621C22.2766 87.3587 22.2976 87.3544 22.319 87.3512C22.4334 87.3338 22.549 87.3202 22.6645 87.3072C22.697 87.3036 22.7292 87.2986 22.7619 87.2953C22.8734 87.2841 22.986 87.2767 23.0985 87.2697C23.1342 87.2675 23.1698 87.2637 23.2055 87.2619C23.3529 87.2545 23.5015 87.2507 23.6507 87.2507C24.4818 87.2507 25.1557 86.5767 25.1557 85.7451V67.0853C25.1557 66.2537 24.4818 65.5798 23.6507 65.5798C22.8195 65.5798 22.1456 66.2537 22.1456 67.0853V84.3344C19.6041 84.6559 17.2451 85.7898 15.385 87.6069C15.1893 87.798 15.0038 87.9967 14.8232 88.1987V32.1366C14.8232 27.7811 17.9927 24.1517 22.1454 23.4349V38.2006V68.8072C22.1454 69.6386 22.8193 70.3129 23.6505 70.3129C24.4816 70.3129 25.1555 69.6388 25.1555 68.8074V39.7061H68.8633L60.5431 48.0288C59.9553 48.617 59.9553 49.57 60.5431 50.158C61.1309 50.7458 62.0838 50.7458 62.6715 50.158L73.561 39.2652L73.562 39.2642L83.4124 29.4107L90.3225 36.3232L89.5118 37.1342L89.5098 37.136L59.1627 67.4928L52.2524 60.5804L63.4706 49.3586C64.0584 48.7704 64.0584 47.8174 63.4706 47.2294C62.8828 46.6417 61.9299 46.6417 61.3423 47.2294L49.0596 59.5159C49.022 59.5535 48.9867 59.5934 48.9537 59.6343C48.9427 59.6479 48.9329 59.6625 48.9224 59.6767C48.9012 59.705 48.8804 59.7334 48.861 59.7631C48.8499 59.7803 48.8399 59.7979 48.8295 59.8158C48.8129 59.8438 48.7969 59.8722 48.7822 59.9013C48.7726 59.9201 48.764 59.9392 48.7552 59.9588C48.7418 59.9882 48.7294 60.0183 48.718 60.0483C48.714 60.059 48.7088 60.069 48.7049 60.0796L45.7727 68.3885L43.7736 74.0538C43.7472 74.1291 43.7281 74.2056 43.7139 74.2828H38.7087C37.8775 74.2828 37.2036 74.9567 37.2036 75.7883C37.2036 76.6199 37.8775 77.2938 38.7087 77.2938H80.3885C81.2198 77.2938 81.8935 76.6199 81.8935 75.7883C81.8935 74.9567 81.2198 74.2828 80.3885 74.2828H50.485L59.6635 71.0417C59.6711 71.0389 59.6784 71.0351 59.686 71.0323C59.7216 71.0191 59.7567 71.0043 59.7913 70.9885C59.8051 70.982 59.819 70.976 59.8324 70.9694C59.8684 70.9514 59.9039 70.9316 59.9387 70.9103C59.9499 70.9035 59.9615 70.8973 59.9726 70.8903C60.0088 70.8671 60.0441 70.8416 60.0787 70.8148C60.0873 70.8082 60.0963 70.8023 60.1047 70.7955C60.1466 70.7619 60.1877 70.7256 60.2265 70.6867L91.1977 39.7063H104.267V71.8693L82.7379 93.4048C82.1501 93.993 82.1501 94.946 82.7379 95.5339C82.7745 95.5706 82.8128 95.6051 82.8523 95.6373C83.1282 95.8623 83.4653 95.9749 83.8022 95.9749C84.139 95.9749 84.4763 95.8623 84.7521 95.6373C84.7915 95.6053 84.8298 95.5706 84.8664 95.5339L111.344 69.048V82.3306ZM56.4099 68.9971L52.0988 70.5195L49.2265 67.6463L50.7483 63.3338L56.4099 68.9971Z" fill="#435586"/>
<path d="M113.425 64.023C112.862 63.7898 112.215 63.9186 111.784 64.3491L107.277 68.8581V38.2006C107.277 37.369 106.603 36.6951 105.772 36.6951H94.2078L98.4055 32.496L98.4073 32.494L102.452 28.4481C103.319 27.5812 103.796 26.4281 103.796 25.202C103.796 23.976 103.319 22.8232 102.452 21.956L97.7749 17.2774C96.9083 16.4105 95.7555 15.9331 94.5298 15.9331C93.3042 15.9331 92.1516 16.4105 91.2848 17.2774L87.2381 21.3253L82.3482 26.2167L71.8732 36.6949H25.1557V21.8009C25.1557 20.9693 24.4818 20.2954 23.6507 20.2954C17.1237 20.2958 11.8135 25.6073 11.8135 32.1366V96.0809C11.8135 96.192 11.8263 96.3002 11.8491 96.4044C12.057 99.1748 13.2552 101.749 15.2578 103.703C17.3983 105.791 20.224 106.941 23.2145 106.941H69.205L60.5433 115.606C60.113 116.036 59.9842 116.684 60.2171 117.246C60.45 117.809 60.999 118.176 61.6076 118.176H112.849C113.68 118.176 114.354 117.502 114.354 116.67V65.4139C114.354 64.8051 113.987 64.256 113.425 64.023ZM93.4137 19.4067C94.0289 18.7909 95.0313 18.7909 95.6466 19.4067L100.324 24.0856C100.94 24.7012 100.94 25.7035 100.324 26.3193L97.3417 29.3027L90.431 22.3901L93.4137 19.4067ZM88.3025 24.5193L95.213 31.4316L92.4514 34.1941L85.5413 27.2817L88.3025 24.5193ZM111.344 82.3306H108.567C107.736 82.3306 107.062 83.0046 107.062 83.8362C107.062 84.6677 107.736 85.3417 108.567 85.3417H111.344V89.8785H108.567C107.736 89.8785 107.062 90.5524 107.062 91.384C107.062 92.2156 107.736 92.8895 108.567 92.8895H111.344V97.4261H108.567C107.736 97.4261 107.062 98.1 107.062 98.9316C107.062 99.7632 107.736 100.437 108.567 100.437H111.344V104.974H108.567C107.736 104.974 107.062 105.648 107.062 106.479C107.062 107.311 107.736 107.985 108.567 107.985H111.344V115.165H65.241L85.2965 95.0729C85.8843 94.4847 85.8843 93.5317 85.2965 92.9438C85.229 92.8762 85.1565 92.8177 85.0806 92.7657C84.4946 92.3642 83.6883 92.4233 83.1678 92.9438L72.2151 103.931H23.2147C18.65 103.931 14.9754 100.366 14.8308 95.8082C14.8394 95.5221 14.8616 95.2384 14.8973 94.958L14.8979 94.9532C14.9147 94.8199 14.9349 94.6873 14.958 94.5555C14.9606 94.5405 14.9634 94.5255 14.966 94.5104C14.987 94.3928 15.0107 94.2758 15.0365 94.1592C15.0437 94.1268 15.0513 94.0943 15.0589 94.0621C15.0817 93.9635 15.1064 93.8655 15.1328 93.768C15.1472 93.7151 15.1623 93.6628 15.1777 93.6101C15.1997 93.5336 15.2225 93.4573 15.2468 93.3817C15.271 93.3062 15.2968 93.2315 15.3231 93.1568C15.3413 93.1045 15.3593 93.0522 15.379 93.0003C15.4156 92.9017 15.4545 92.8042 15.4945 92.7074C15.5059 92.6796 15.5171 92.6513 15.529 92.6235C15.5804 92.5033 15.6339 92.3845 15.6904 92.2671C15.6928 92.2621 15.695 92.2571 15.6974 92.252C16.8746 89.8152 19.1387 87.9983 21.8558 87.4346C21.8634 87.433 21.871 87.4312 21.8786 87.4296C22.0032 87.4041 22.129 87.3823 22.2556 87.3621C22.2766 87.3587 22.2976 87.3544 22.319 87.3512C22.4334 87.3338 22.549 87.3202 22.6645 87.3072C22.697 87.3036 22.7292 87.2986 22.7619 87.2953C22.8734 87.2841 22.986 87.2767 23.0985 87.2697C23.1342 87.2675 23.1698 87.2637 23.2055 87.2619C23.3529 87.2545 23.5015 87.2507 23.6507 87.2507C24.4818 87.2507 25.1557 86.5767 25.1557 85.7451V67.0853C25.1557 66.2537 24.4818 65.5798 23.6507 65.5798C22.8195 65.5798 22.1456 66.2537 22.1456 67.0853V84.3344C19.6041 84.6559 17.2451 85.7898 15.385 87.6069C15.1893 87.798 15.0038 87.9967 14.8232 88.1987V32.1366C14.8232 27.7811 17.9927 24.1517 22.1454 23.4349V38.2006V68.8072C22.1454 69.6386 22.8193 70.3129 23.6505 70.3129C24.4816 70.3129 25.1555 69.6388 25.1555 68.8074V39.7061H68.8633L60.5431 48.0288C59.9553 48.617 59.9553 49.57 60.5431 50.158C61.1309 50.7458 62.0838 50.7458 62.6715 50.158L73.561 39.2652L73.562 39.2642L83.4124 29.4107L90.3225 36.3232L89.5118 37.1342L89.5098 37.136L59.1627 67.4928L52.2524 60.5804L63.4706 49.3586C64.0584 48.7704 64.0584 47.8174 63.4706 47.2294C62.8828 46.6417 61.9299 46.6417 61.3423 47.2294L49.0596 59.5159C49.022 59.5535 48.9867 59.5934 48.9537 59.6343C48.9427 59.6479 48.9329 59.6625 48.9224 59.6767C48.9012 59.705 48.8804 59.7334 48.861 59.7631C48.8499 59.7803 48.8399 59.7979 48.8295 59.8158C48.8129 59.8438 48.7969 59.8722 48.7822 59.9013C48.7726 59.9201 48.764 59.9392 48.7552 59.9588C48.7418 59.9882 48.7294 60.0183 48.718 60.0483C48.714 60.059 48.7088 60.069 48.7049 60.0796L45.7727 68.3885L43.7736 74.0538C43.7472 74.1291 43.7281 74.2056 43.7139 74.2828H38.7087C37.8775 74.2828 37.2036 74.9567 37.2036 75.7883C37.2036 76.6199 37.8775 77.2938 38.7087 77.2938H80.3885C81.2198 77.2938 81.8935 76.6199 81.8935 75.7883C81.8935 74.9567 81.2198 74.2828 80.3885 74.2828H50.485L59.6635 71.0417C59.6711 71.0389 59.6784 71.0351 59.686 71.0323C59.7216 71.0191 59.7567 71.0043 59.7913 70.9885C59.8051 70.982 59.819 70.976 59.8324 70.9694C59.8684 70.9514 59.9039 70.9316 59.9387 70.9103C59.9499 70.9035 59.9615 70.8973 59.9726 70.8903C60.0088 70.8671 60.0441 70.8416 60.0787 70.8148C60.0873 70.8082 60.0963 70.8023 60.1047 70.7955C60.1466 70.7619 60.1877 70.7256 60.2265 70.6867L91.1977 39.7063H104.267V71.8693L82.7379 93.4048C82.1501 93.993 82.1501 94.946 82.7379 95.5339C82.7745 95.5706 82.8128 95.6051 82.8523 95.6373C83.1282 95.8623 83.4653 95.9749 83.8022 95.9749C84.139 95.9749 84.4763 95.8623 84.7521 95.6373C84.7915 95.6053 84.8298 95.5706 84.8664 95.5339L111.344 69.048V82.3306ZM56.4099 68.9971L52.0988 70.5195L49.2265 67.6463L50.7483 63.3338L56.4099 68.9971Z" stroke="#435586" mask="url(#path-3-outside-1)"/>
</svg>
