<svg width="128" height="128" viewBox="0 0 128 128" fill="none" xmlns="http://www.w3.org/2000/svg">
<path opacity="0.2" d="M108.25 84.3724C100.267 107.381 67.7314 104.521 45.9783 92.9825C27.8543 83.3687 14.8936 69.1346 17.5646 49.0036C21.627 18.3862 77.3145 21.7568 97.228 45.6911C107.318 57.8188 113.375 69.5984 108.25 84.3724Z" fill="#2A91F0"/>
<path d="M116.304 64.9125C115.425 56.0963 111.475 47.7849 105.182 41.509C99.8038 36.1461 93.221 32.6997 86.2944 31.1673V26.3228C89.1235 25.6209 91.2264 23.0673 91.2264 20.0321C91.2264 16.4574 88.3101 13.5493 84.7254 13.5493H70.9587C67.3739 13.5493 64.4577 16.4574 64.4577 20.0321C64.4577 23.0671 66.5606 25.6208 69.3894 26.3228V31.1809C62.4841 32.7197 55.9231 36.1613 50.5602 41.5092C49.3865 42.6795 48.3043 43.9072 47.3137 45.1832C47.2657 45.1796 47.2177 45.176 47.1688 45.176H33.5433C32.4875 45.176 31.6313 46.0296 31.6313 47.0826C31.6313 48.1357 32.4875 48.9893 33.5433 48.9893H44.712C43.3101 51.3298 42.1797 53.7877 41.3192 56.3179H20.5095C19.4536 56.3179 18.5974 57.1715 18.5974 58.2246C18.5974 59.2776 19.4536 60.1313 20.5095 60.1313H40.2387C39.6877 62.5434 39.3714 64.9983 39.2898 67.46H30.8345C29.7787 67.46 28.9225 68.3136 28.9225 69.3667C28.9225 70.4198 29.7787 71.2734 30.8345 71.2734H39.3508C39.5122 73.7414 39.9101 76.1965 40.5447 78.6021H28.1577C27.1018 78.6021 26.2456 79.4557 26.2456 80.5088C26.2456 81.5619 27.1018 82.4155 28.1577 82.4155H41.7649C43.6407 87.3635 46.572 92.0012 50.5602 95.9782C56.8596 102.26 65.203 106.2 74.0531 107.071C75.3162 107.196 76.5803 107.257 77.8426 107.257C85.3038 107.257 92.6702 105.104 98.9206 101.045C99.8055 100.471 100.056 99.2893 99.4795 98.4069C98.9032 97.5245 97.7187 97.2749 96.8338 97.8496C83.1518 106.734 64.8281 104.813 53.2642 93.2817C39.6959 79.7515 39.6959 57.7363 53.2642 44.2058C66.8323 30.6758 88.9093 30.6758 102.478 44.2058C114.026 55.7222 115.963 73.979 107.083 87.616C106.508 88.4992 106.76 89.6802 107.645 90.2535C108.531 90.8271 109.715 90.5759 110.29 89.6928C115.035 82.4063 117.171 73.606 116.304 64.9125ZM68.2818 20.0323C68.2818 18.5603 69.4826 17.3629 70.9587 17.3629H84.7254C86.2015 17.3629 87.4023 18.5603 87.4023 20.0323C87.4023 21.5042 86.2015 22.7016 84.7254 22.7016H84.3824H71.3015H70.9587C69.4826 22.7016 68.2818 21.504 68.2818 20.0323ZM73.2135 30.5253V26.515H82.4703V30.5185C79.3965 30.1539 76.2868 30.1562 73.2135 30.5253Z" fill="#435586"/>
<path d="M77.8711 39.1646C61.5159 39.1646 48.2097 52.4332 48.2097 68.7428C48.2097 85.0525 61.5159 98.3211 77.8711 98.3211C94.2264 98.3211 107.533 85.0525 107.533 68.7428C107.533 52.4332 94.2264 39.1646 77.8711 39.1646ZM77.8711 94.5077C63.6243 94.5077 52.0338 82.9496 52.0338 68.7428C52.0338 54.5361 63.6243 42.9779 77.8711 42.9779C92.118 42.9779 103.708 54.5361 103.708 68.7428C103.708 82.9496 92.118 94.5077 77.8711 94.5077Z" fill="#435586"/>
<path d="M89.9661 53.9871L80.4957 63.4308C79.7038 63.0403 78.8129 62.8197 77.8713 62.8197C76.9294 62.8197 76.0387 63.0403 75.2468 63.4308L71.0083 59.2042C70.2615 58.4597 69.0512 58.4597 68.3041 59.2042C67.5575 59.9488 67.5575 61.1561 68.3041 61.9007L72.5426 66.1272C72.1508 66.917 71.9298 67.8053 71.9298 68.7443C71.9298 72.0113 74.595 74.6692 77.8713 74.6692C81.1476 74.6692 83.8128 72.0113 83.8128 68.7443C83.8128 67.8053 83.5915 66.917 83.1999 66.1272L92.3923 56.9606L92.6701 56.6836C93.4168 55.939 93.4168 54.7317 92.6701 53.9871C91.9235 53.2426 90.7131 53.2426 89.9661 53.9871ZM77.8713 70.856C76.7038 70.856 75.7539 69.9088 75.7539 68.7445C75.7539 67.5803 76.7038 66.6331 77.8713 66.6331C79.0388 66.6331 79.9887 67.5803 79.9887 68.7445C79.9887 69.9088 79.0388 70.856 77.8713 70.856Z" fill="#435586"/>
<path d="M98.3144 66.8591H96.5429C95.4871 66.8591 94.6309 67.7127 94.6309 68.7658C94.6309 69.8188 95.4871 70.6724 96.5429 70.6724H98.3144C99.3702 70.6724 100.226 69.8188 100.226 68.7658C100.226 67.7127 99.3702 66.8591 98.3144 66.8591Z" fill="#435586"/>
<path d="M59.1992 66.8147H57.4279C56.3721 66.8147 55.5159 67.6683 55.5159 68.7214C55.5159 69.7744 56.3721 70.628 57.4279 70.628H59.1992C60.255 70.628 61.1112 69.7744 61.1112 68.7214C61.1112 67.6683 60.255 66.8147 59.1992 66.8147Z" fill="#435586"/>
<path d="M77.8942 52.0301C78.95 52.0301 79.8062 51.1765 79.8062 50.1234V48.3571C79.8062 47.3041 78.95 46.4504 77.8942 46.4504C76.8384 46.4504 75.9822 47.3041 75.9822 48.3571V50.1234C75.9822 51.1765 76.8384 52.0301 77.8942 52.0301Z" fill="#435586"/>
<path d="M77.8478 85.4573C76.792 85.4573 75.9358 86.3109 75.9358 87.3639V89.1303C75.9358 90.1833 76.792 91.0369 77.8478 91.0369C78.9036 91.0369 79.7598 90.1833 79.7598 89.1303V87.3639C79.7598 86.3109 78.9036 85.4573 77.8478 85.4573Z" fill="#435586"/>
<path d="M20.5094 78.6018C20.0066 78.6018 19.5133 78.8058 19.1576 79.1605C18.802 79.5151 18.5974 80.007 18.5974 80.5085C18.5974 81.0118 18.8018 81.5018 19.1576 81.8565C19.5135 82.2111 20.0066 82.4151 20.5094 82.4151C21.0123 82.4151 21.5056 82.2111 21.861 81.8565C22.2167 81.5018 22.4214 81.0099 22.4214 80.5085C22.4214 80.007 22.2169 79.5151 21.861 79.1605C21.5056 78.8058 21.0123 78.6018 20.5094 78.6018Z" fill="#435586"/>
<path d="M114.629 68.5908C114.629 88.5579 98.3956 104.756 78.3553 104.756C58.3149 104.756 42.0811 88.5579 42.0811 68.5908C42.0811 48.6238 58.3149 32.4253 78.3553 32.4253C98.3956 32.4253 114.629 48.6238 114.629 68.5908Z" stroke="#435586" stroke-width="5"/>
</svg>
