<svg width="10" height="12" viewBox="0 0 10 12" fill="none" xmlns="http://www.w3.org/2000/svg">
<path d="M1.35625 10.5654H1.42849L1.45119 10.634C1.57417 11.0057 1.80189 11.3264 2.10186 11.5528C2.40172 11.779 2.75919 11.9 3.125 11.9C3.49081 11.9 3.84828 11.779 4.14814 11.5528C4.44811 11.3264 4.67583 11.0057 4.79881 10.634L4.82151 10.5654H4.89375H9.375C9.51209 10.5654 9.64497 10.5074 9.744 10.4018C9.84323 10.296 9.9 10.1512 9.9 9.99891C9.9 9.84667 9.84323 9.70186 9.744 9.59604C9.64497 9.49044 9.51209 9.43243 9.375 9.43243H4.89375H4.82151L4.79881 9.36384C4.67583 8.99214 4.44811 8.67138 4.14814 8.44504C3.84828 8.21878 3.49081 8.09782 3.125 8.09782C2.75919 8.09782 2.40172 8.21878 2.10186 8.44504C1.80189 8.67138 1.57417 8.99214 1.45119 9.36384L1.42849 9.43243H1.35625H0.625C0.487911 9.43243 0.355029 9.49044 0.256003 9.59604C0.156773 9.70186 0.1 9.84667 0.1 9.99891C0.1 10.1512 0.156773 10.296 0.256003 10.4018C0.355029 10.5074 0.487911 10.5654 0.625 10.5654H1.35625ZM5.10625 6.56648H5.17849L5.20119 6.63507C5.32417 7.00677 5.55189 7.32753 5.85186 7.55387C6.15172 7.78013 6.50919 7.90109 6.875 7.90109C7.24081 7.90109 7.59828 7.78013 7.89814 7.55387C8.19811 7.32753 8.42583 7.00677 8.54881 6.63507L8.57151 6.56648H8.64375H9.375C9.51209 6.56648 9.64497 6.50847 9.744 6.40287C9.84323 6.29706 9.9 6.15224 9.9 6C9.9 5.84776 9.84323 5.70294 9.744 5.59713C9.64497 5.49153 9.51209 5.43351 9.375 5.43351H8.64375H8.57151L8.54881 5.36493C8.42583 4.99323 8.19811 4.67247 7.89814 4.44613C7.59828 4.21987 7.24081 4.09891 6.875 4.09891C6.50919 4.09891 6.15172 4.21987 5.85186 4.44613C5.55189 4.67247 5.32417 4.99323 5.20119 5.36493L5.17849 5.43351H5.10625H0.625C0.487911 5.43351 0.355029 5.49153 0.256003 5.59713C0.156773 5.70294 0.1 5.84776 0.1 6C0.1 6.15224 0.156773 6.29706 0.256003 6.40287C0.355028 6.50847 0.487911 6.56648 0.625 6.56648H5.10625ZM1.35625 2.56757H1.42849L1.45119 2.63616C1.57417 3.00786 1.80189 3.32862 2.10186 3.55496C2.40172 3.78122 2.75919 3.90218 3.125 3.90218C3.49081 3.90218 3.84828 3.78122 4.14814 3.55496C4.44811 3.32862 4.67583 3.00786 4.79881 2.63616L4.82151 2.56757H4.89375H9.375C9.51209 2.56757 9.64497 2.50956 9.744 2.40396C9.84323 2.29815 9.9 2.15333 9.9 2.00109C9.9 1.84885 9.84323 1.70403 9.744 1.59822C9.64497 1.49262 9.51209 1.4346 9.375 1.4346H4.89375H4.82151L4.79881 1.36602C4.67583 0.994322 4.44811 0.673555 4.14814 0.447219C3.84828 0.220962 3.49081 0.1 3.125 0.1C2.75919 0.1 2.40172 0.220962 2.10186 0.447219C1.80189 0.673555 1.57417 0.994322 1.45119 1.36602L1.42849 1.4346H1.35625H0.625C0.487911 1.4346 0.355028 1.49262 0.256003 1.59822C0.156773 1.70403 0.1 1.84885 0.1 2.00109C0.1 2.15333 0.156773 2.29814 0.256003 2.40396C0.355028 2.50956 0.487911 2.56757 0.625 2.56757H1.35625ZM3.125 10.7654C2.93057 10.7654 2.74551 10.683 2.61011 10.5386C2.47492 10.3944 2.4 10.2002 2.4 9.99891C2.4 9.79763 2.47492 9.6034 2.61011 9.45923C2.74551 9.31485 2.93057 9.23243 3.125 9.23243C3.31943 9.23243 3.50449 9.31485 3.63989 9.45923C3.77508 9.6034 3.85 9.79763 3.85 9.99891C3.85 10.2002 3.77508 10.3944 3.63989 10.5386C3.50449 10.683 3.31943 10.7654 3.125 10.7654ZM6.875 6.76648C6.68057 6.76648 6.49551 6.68406 6.36011 6.53968C6.22492 6.39552 6.15 6.20128 6.15 6C6.15 5.79871 6.22492 5.60448 6.36011 5.46032C6.49551 5.31594 6.68057 5.23351 6.875 5.23351C7.06943 5.23351 7.25449 5.31594 7.38989 5.46032C7.52508 5.60448 7.6 5.79871 7.6 6C7.6 6.20128 7.52508 6.39552 7.38989 6.53968C7.25449 6.68406 7.06943 6.76648 6.875 6.76648ZM3.125 2.76757C2.93057 2.76757 2.74551 2.68515 2.61011 2.54077C2.47492 2.3966 2.4 2.20237 2.4 2.00109C2.4 1.7998 2.47492 1.60557 2.61011 1.46141C2.74551 1.31703 2.93057 1.2346 3.125 1.2346C3.31943 1.2346 3.50449 1.31703 3.63989 1.46141C3.77508 1.60557 3.85 1.7998 3.85 2.00109C3.85 2.20237 3.77508 2.3966 3.63989 2.54077C3.50449 2.68515 3.31943 2.76757 3.125 2.76757Z" fill="white" stroke="#435586" stroke-width="0.2"/>
</svg>
