<svg width="128" height="128" viewBox="0 0 128 128" fill="none" xmlns="http://www.w3.org/2000/svg">
<path opacity="0.2" d="M97.4924 53.2863C106.381 72.4505 84.4816 90.2035 64.0492 96.0608C47.0255 100.941 30.4251 99.8348 19.9729 85.6581C4.07607 64.0965 40.6424 32.7583 67.3897 35.7473C80.9428 37.2618 91.785 40.9811 97.4924 53.2863Z" fill="#2A91F0"/>
<path d="M54.4224 46.047C54.4224 38.3704 48.177 32.125 40.5005 32.125C32.8239 32.125 26.5785 38.3704 26.5785 46.047C26.5785 53.7235 32.8239 59.9689 40.5005 59.9689C48.177 59.9689 54.4224 53.7237 54.4224 46.047ZM31.641 46.047C31.641 41.1619 35.6154 37.1875 40.5005 37.1875C45.3855 37.1875 49.3599 41.1619 49.3599 46.047C49.3599 50.932 45.3855 54.9064 40.5005 54.9064C35.6154 54.9064 31.641 50.9321 31.641 46.047Z" fill="#435586"/>
<path d="M80.8801 99.6977L70.7551 68.0569C70.488 67.2224 69.8082 66.5852 68.958 66.3727L58.6422 63.7943C62.0095 58.217 64.5473 52.0291 64.5473 46.047C64.5473 32.7874 53.7598 22 40.5003 22C27.2408 22 16.4533 32.7874 16.4533 46.047C16.4533 52.0291 18.9911 58.217 22.3584 63.7943L12.0426 66.3727C11.1924 66.5852 10.5126 67.2224 10.2456 68.0569L0.120531 99.6977C-0.15949 100.572 0.0564581 101.53 0.684527 102.2C1.3126 102.87 2.25438 103.147 3.14523 102.925L22.7378 98.0267L39.8048 102.903C40.2594 103.033 40.7411 103.033 41.1956 102.903L58.2626 98.0267L77.8552 102.925C78.0587 102.976 78.2647 103.001 78.4691 103.001C79.1598 103.001 79.8314 102.717 80.3159 102.2C80.9443 101.53 81.1601 100.572 80.8801 99.6977V99.6977ZM37.9691 82.6034V97.1134L25.6497 93.5936L29.0592 73.1335C32.8249 77.689 36.3728 81.1217 37.9691 82.6034V82.6034ZM43.0316 82.6034C44.628 81.1217 48.1757 77.689 51.9415 73.1335L55.3509 93.5936L43.0316 97.1134V82.6034ZM40.5003 27.0625C50.9683 27.0625 59.4848 35.5789 59.4848 46.047C59.4848 58.5781 45.4193 73.2655 40.4994 78.019C35.5772 73.2685 21.5159 58.5971 21.5159 46.047C21.5159 35.5789 30.0323 27.0625 40.5003 27.0625ZM14.6378 70.9424L24.7117 68.4244L20.5576 93.3534L6.32782 96.9108L14.6378 70.9424ZM60.4432 93.3534L56.289 68.4244L66.363 70.9424L74.673 96.9109L60.4432 93.3534Z" fill="#435586"/>
</svg>
