<svg width="128" height="128" viewBox="0 0 128 128" fill="none" xmlns="http://www.w3.org/2000/svg">
<g clip-path="url(#clip0)">
<path opacity="0.2" d="M32.3878 21.5914C51.7158 3.6209 81.3122 22.8688 96.2014 44.9513C108.607 63.35 113.733 83.5503 100.939 101.462C81.481 128.704 30.0478 97.2185 23.2222 64.2058C19.7637 47.4781 19.9774 33.1302 32.3878 21.5914Z" fill="#2A91F0"/>
<path d="M66.3566 14.6436C45.152 14.6436 27.896 37.6472 27.896 65.9244C27.896 94.2015 45.152 117.205 66.3566 117.205C87.5612 117.205 104.817 94.2015 104.817 65.9244C104.817 37.6472 87.5612 14.6436 66.3566 14.6436ZM66.3566 112.932C47.5067 112.932 32.1693 91.8426 32.1693 65.9244C32.1693 40.0061 47.5067 18.9169 66.3566 18.9169C85.2065 18.9169 100.544 40.0061 100.544 65.9244C100.544 91.8426 85.2065 112.932 66.3566 112.932Z" fill="#435586"/>
<path d="M66.3566 23.1909C50.1433 23.1909 36.4429 42.7632 36.4429 65.9249C36.4429 89.0866 50.1433 108.659 66.3566 108.659C82.57 108.659 96.2704 89.0868 96.2704 65.9249C96.2704 42.763 82.57 23.1909 66.3566 23.1909ZM66.3566 104.385C52.4595 104.385 40.7162 86.7705 40.7162 65.9249C40.7162 45.0792 52.4595 27.4643 66.3566 27.4643C80.2537 27.4643 91.997 45.0792 91.997 65.9249C91.997 86.7705 80.2537 104.385 66.3566 104.385Z" fill="#435586"/>
<path d="M61.4552 40.9123C60.6219 40.079 59.2671 40.079 58.4338 40.9123L49.8869 49.4592C49.0536 50.2925 49.0536 51.6473 49.8869 52.4806C50.3058 52.895 50.8527 53.1046 51.3997 53.1046C51.9468 53.1046 52.4937 52.8952 52.9083 52.4806L61.4552 43.9337C62.2885 43.1004 62.2885 41.7457 61.4552 40.9123Z" fill="#435586"/>
<path d="M74.2754 40.9123C73.4421 40.079 72.0873 40.079 71.254 40.9123L49.8869 62.2794C49.0536 63.1127 49.0536 64.4675 49.8869 65.3008C50.3058 65.7152 50.8527 65.9248 51.3997 65.9248C51.9468 65.9248 52.4937 65.7154 52.9083 65.3008L74.2754 43.9337C75.1087 43.1004 75.1087 41.7457 74.2754 40.9123Z" fill="#435586"/>
<path d="M82.8221 79.373C81.9888 78.5397 80.6341 78.5397 79.8008 79.373L71.2539 87.9199C70.4206 88.7532 70.4206 90.1079 71.2539 90.9413C71.6728 91.3557 72.2196 91.5652 72.7667 91.5652C73.3137 91.5652 73.8606 91.3559 74.2753 90.9413L82.8221 82.3944C83.6554 81.5611 83.6554 80.2063 82.8221 79.373Z" fill="#435586"/>
<path d="M82.8221 66.5527C81.9887 65.7194 80.634 65.7194 79.8007 66.5527L58.4338 87.9198C57.6005 88.7531 57.6005 90.1078 58.4338 90.9412C58.8527 91.3556 59.3995 91.5651 59.9466 91.5651C60.4937 91.5651 61.0405 91.3558 61.4552 90.9412L82.8223 69.5741C83.6554 68.7408 83.6554 67.386 82.8221 66.5527Z" fill="#435586"/>
</g>
<defs>
<clipPath id="clip0">
<rect width="128" height="128" fill="white"/>
</clipPath>
</defs>
</svg>
