<svg width="128" height="128" viewBox="0 0 128 128" fill="none" xmlns="http://www.w3.org/2000/svg">
<path opacity="0.2" d="M99.7141 28.5274C119.244 44.3896 104.999 74.8839 86.1279 91.8698C70.4045 106.022 52.0146 113.542 33.4077 103.84C5.1082 89.0851 28.0081 36.3523 58.268 25.5286C73.6009 20.0442 87.1744 18.3423 99.7141 28.5274Z" fill="#2A91F0"/>
<path d="M58.7997 57.1517L58.7997 57.1516H58.7916H58.7914H58.7913H58.7912H58.7911H58.791H58.7908H58.7907H58.7906H58.7905H58.7904H58.7902H58.7901H58.79H58.7899H58.7898H58.7897H58.7895H58.7894H58.7893H58.7892H58.7891H58.7889H58.7888H58.7887H58.7886H58.7885H58.7883H58.7882H58.7881H58.788H58.7879H58.7877H58.7876H58.7875H58.7874H58.7873H58.7872H58.787H58.7869H58.7868H58.7867H58.7866H58.7864H58.7863H58.7862H58.7861H58.786H58.7859H58.7857H58.7856H58.7855H58.7854H58.7853H58.7851H58.785H58.7849H58.7848H58.7847H58.7846H58.7844H58.7843H58.7842H58.7841H58.784H58.7839H58.7837H58.7836H58.7835H58.7834H58.7833H58.7832H58.783H58.7829H58.7828H58.7827H58.7826H58.7825H58.7823H58.7822H58.7821H58.782H58.7819H58.7818H58.7816H58.7815H58.7814H58.7813H58.7812H58.7811H58.7809H58.7808H58.7807H58.7806H58.7805H58.7804H58.7803H58.7801H58.78H58.7799H58.7798H58.7797H58.7796H58.7794H58.7793H58.7792H58.7791H58.779H58.7789H58.7788H58.7787H58.7785H58.7784H58.7783H58.7782H58.7781H58.778H58.7779H58.7777H58.7776H58.7775H58.7774H58.7773H58.7772H58.7771H58.777H58.7768H58.7767H58.7766H58.7765H58.7764H58.7763H58.7762H58.7761H58.776H58.7758H58.7757H58.7756H58.7755H58.7754H58.7753H58.7752H58.7751H58.775H58.7749H58.7747H58.7746H58.7745H58.7744H58.7743H58.7742H58.7741H58.774H58.7739H58.7738H58.7737H58.7735H58.7734H58.7733H58.7732H58.7731H58.773H58.7729H58.7728H58.7727H58.7726H58.7725H58.7724H58.7723H58.7722H58.772H58.7719H58.7718H58.7717H58.7716H58.7715H58.7714H58.7713H58.7712H58.7711H58.771H58.7709H58.7708H58.7707H58.7706H58.7705H58.7704H58.7703H58.7702H58.7701H58.77H58.7699H58.7698H58.7696H58.7695H58.7694H58.7693H58.7692H58.7691H58.769H58.7689H58.7688H58.7687H58.7686H58.7685H58.7684H58.7683H58.7682H58.7681H58.768H58.7679H58.7678H58.7677H58.7676H58.7675H58.7674H58.7673H58.7672H58.7671H58.7671H58.767H58.7669H58.7668H58.7667H58.7666H58.7665H58.7664H58.7663H58.7662H58.7661H58.766H58.7659H58.7658H58.7657H58.7656H58.7655H58.7654H58.7653H58.7652H58.7651H58.7651H58.765H58.7649H58.7648H58.7647H58.7646H58.7645H58.7644H58.7643H58.7642H58.7641H58.764H58.764H58.7639H58.7638H58.7637H58.7636H58.7635H58.7634H58.7633H58.7632H58.7632H58.7631H58.763H58.7629H58.7628H58.7627H58.7626H58.7625H58.7625H58.7624H58.7623H58.7622H58.7621H58.762H58.7619H58.7619H58.7618H58.7617H58.7616H58.7615H58.7614H58.7614H58.7613H58.7612H58.7611H58.761H58.7609H58.7609H58.7608H58.7607H58.7606H58.7605H58.7605H58.7604H58.7603H58.7602H58.7601H58.7601H58.76H58.7599H58.7598H58.7597H58.7597H58.7596H58.7595H58.7594H58.7594H58.7593H58.7592H58.7591H58.7591H58.759H58.7589H58.7588H58.7588H58.7587H58.7586H58.7585H58.7585H58.7584H58.7583H58.7582H58.7582H58.7581H58.758H58.758H58.7579H58.7578H58.7577H58.7577H58.7576H58.7575H58.7575H58.7574H58.7573H58.7573H58.7572H58.7571H58.7571H58.757H58.7569H58.7569H58.7568H58.7567H58.7567H58.7566H58.7565H58.7565H58.7564H58.7563H58.7563H58.7562H58.7562H58.7561H58.756H58.756H58.7559H58.7558H58.7558H58.7557H58.7557H58.7556H58.7555H58.7555H58.7554H58.7554H58.7553H58.7553H58.7552H58.7551H58.7551H58.755H58.755H58.7549H58.7549H58.7548H58.7548H58.7547H58.7546H58.7546H58.7545H58.7545H58.7544H58.7544H58.7543H58.7543H58.7542H58.7542H58.7541H58.7541H58.754H58.754H58.7539H58.7539H58.7538H58.7538H58.7537H58.7537H58.7536H58.7536H58.7535H58.7535H58.7535H58.7534H58.7534H58.7533H58.7533H58.7532H58.7532H58.7531H58.7531H58.7531H58.753H58.753H58.7529H58.7529H58.7529H58.7528H58.7528H58.7527H58.7527H58.7527H58.7526H58.7526H58.7525H58.7525H58.7525H58.7524H58.7524H58.7524H58.7523H58.7523H58.7523H58.7522H58.7522H58.7522H58.7521H58.7521H58.7521H58.752H58.752H58.752H58.7519H58.7519H58.7519H58.7519H58.7518H58.7518H58.7518H58.7517H58.7517H58.7517H58.7517H58.7516H58.7516H58.7516H58.7516H58.7515H58.7515H58.7515H58.7515H58.7514H58.7514H58.7514H58.7514H58.7514H58.7513H58.7513H58.7513H58.7513H58.7513H58.7512H58.7512H58.7512H58.7512H58.7512H58.7512H58.7511H58.7511H58.7511H58.7511H58.7511H58.7511H58.7511H58.751H58.751H58.751H58.751H58.751H58.751H58.751H58.751H58.751H58.751H58.7509H58.7509H58.7509H58.7509H58.7509H58.7509H58.7509H52.121C51.1461 57.1516 50.3457 57.9666 50.3457 58.946V75.8285H48.4806C47.5058 75.8285 46.7053 76.6435 46.7053 77.6229C46.7053 78.6023 47.5058 79.4173 48.4806 79.4173H50.3457V81.5737H48.4806C47.5058 81.5737 46.7053 82.3887 46.7053 83.3681C46.7053 84.3475 47.5058 85.1625 48.4806 85.1625H50.3457V92.9434C50.3457 93.9228 51.1461 94.7378 52.121 94.7378C53.0958 94.7378 53.8963 93.9228 53.8963 92.9434V85.1625H63.3267C64.3016 85.1625 65.102 84.3475 65.102 83.3681C65.102 82.3887 64.3016 81.5737 63.3267 81.5737H53.8963V79.4173H58.7509C64.5356 79.4173 69.2101 74.4527 69.2101 68.3565C69.2101 62.2807 64.6592 57.3418 58.7997 57.1517ZM58.7509 75.8285H53.8963V60.7404H58.726C62.6034 60.8817 65.6596 64.217 65.6596 68.3565C65.6596 72.499 62.5409 75.8285 58.7509 75.8285Z" fill="#435586" stroke="#435586" stroke-width="0.5"/>
<path d="M58.6168 43.6907H58.6088H58.6086H58.6083H58.6081H58.6079H58.6076H58.6074H58.6072H58.6069H58.6067H58.6065H58.6062H58.606H58.6058H58.6055H58.6053H58.6051H58.6048H58.6046H58.6044H58.6041H58.6039H58.6037H58.6035H58.6032H58.603H58.6028H58.6026H58.6023H58.6021H58.6019H58.6016H58.6014H58.6012H58.601H58.6008H58.6005H58.6003H58.6001H58.5999H58.5996H58.5994H58.5992H58.599H58.5988H58.5985H58.5983H58.5981H58.5979H58.5977H58.5974H58.5972H58.597H58.5968H58.5966H58.5964H58.5962H58.5959H58.5957H58.5955H58.5953H58.5951H58.5949H58.5947H58.5944H58.5942H58.594H58.5938H58.5936H58.5934H58.5932H58.593H58.5928H58.5925H58.5923H58.5921H58.5919H58.5917H58.5915H58.5913H58.5911H58.5909H58.5907H58.5905H58.5903H58.5901H58.5899H58.5896H58.5894H58.5892H58.589H58.5888H58.5886H58.5884H58.5882H58.588H58.5878H58.5876H58.5874H58.5872H58.587H58.5868H58.5866H58.5864H58.5862H58.586H58.5858H58.5856H58.5854H58.5852H58.585H58.5848H58.5846H58.5844H58.5842H58.584H58.5838H58.5836H58.5834H58.5832H58.583H58.5829H58.5827H58.5825H58.5823H58.5821H58.5819H58.5817H58.5815H58.5813H58.5811H58.5809H58.5807H58.5805H58.5803H58.5801H58.58H58.5798H58.5796H58.5794H58.5792H58.579H58.5788H58.5786H58.5784H58.5782H58.578H58.5779H58.5777H58.5775H58.5773H58.5771H58.5769H58.5767H58.5765H58.5763H58.5762H58.576H58.5758H58.5756H58.5754H58.5752H58.575H58.5748H58.5747H58.5745H58.5743H58.5741H58.5739H58.5737H58.5735H58.5734H58.5732H58.573H58.5728H58.5726H58.5724H58.5722H58.5721H58.5719H58.5717H58.5715H58.5713H58.5711H58.571H58.5708H58.5706H58.5704H58.5702H58.57H58.5699H58.5697H58.5695H58.5693H58.5691H58.569H58.5688H58.5686H58.5684H58.5682H58.568H58.5679H58.5677H58.5675H58.5673H58.5671H58.567H58.5668H58.5666H58.5664H58.5662H58.566H58.5659H58.5657H58.5655H58.5653H58.5651H58.565H58.5648H58.5646H58.5644H58.5642H58.5641H58.5639H58.5637H58.5635H58.5633H58.5632H58.563H58.5628H58.5626H58.5625H58.5623H58.5621H58.5619H58.5617H58.5616H58.5614H58.5612H58.561H58.5608H58.5607H58.5605H58.5603H58.5601H58.5599H58.5598H58.5596H58.5594H58.5592H58.5591H58.5589H58.5587H58.5585H58.5583H58.5582H58.558H58.5578H58.5576H58.5574H58.5573H58.5571H58.5569H58.5567H58.5565H58.5564H58.5562H58.556H58.5558H58.5557H58.5555H58.5553H58.5551H58.5549H58.5548H58.5546H58.5544H58.5542H58.554H58.5539H58.5537H58.5535H58.5533H58.5531H58.553H58.5528H58.5526H58.5524H58.5522H58.5521H58.5519H58.5517H58.5515H58.5513H58.5512H58.551H58.5508H58.5506H58.5504H58.5503H58.5501H58.5499H58.5497H58.5495H58.5494H58.5492H58.549H58.5488H58.5486H58.5485H58.5483H58.5481H58.5479H58.5477H58.5476H58.5474H58.5472H58.547H58.5468H58.5466H58.5465H58.5463H58.5461H58.5459H58.5457H58.5455H58.5454H58.5452H58.545H58.5448H58.5446H58.5444H58.5443H58.5441H58.5439H58.5437H58.5435H58.5433H58.5432H58.543H58.5428H58.5426H58.5424H58.5422H58.542H58.5419H58.5417H58.5415H58.5413H58.5411H58.5409H58.5407H58.5406H58.5404H58.5402H58.54H58.5398H58.5396H58.5394H58.5392H58.539H58.5389H58.5387H58.5385H58.5383H58.5381H58.5379H58.5377H58.5375H58.5373H58.5372H58.537H58.5368H58.5366H58.5364H58.5362H58.536H58.5358H58.5356H58.5354H58.5352H58.535H58.5349H58.5347H58.5345H58.5343H58.5341H58.5339H58.5337H58.5335H58.5333H58.5331H58.5329H58.5327H58.5325H58.5323H58.5321H58.5319H58.5317H58.5315H58.5313H58.5311H58.5309H58.5307H58.5305H58.5303H58.5301H58.5299H58.5297H58.5295H58.5293H58.5291H58.5289H58.5287H58.5285H58.5283H58.5281H58.5279H58.5277H58.5275H58.5273H58.5271H58.5269H58.5267H58.5265H58.5263H58.5261H58.5259H58.5257H58.5255H58.5253H58.5251H58.5249H58.5247H58.5245H58.5242H58.524H58.5238H58.5236H58.5234H58.5232H58.523H58.5228H58.5226H58.5224H58.5222H58.5219H58.5217H58.5215H58.5213H58.5211H58.5209H58.5207H58.5204H58.5202H58.52H58.5198H58.5196H58.5194H58.5192H58.5189H58.5187H58.5185H58.5183H58.5181H58.5179H58.5176H58.5174H58.5172H58.517H58.5168H58.5165H58.5163H58.5161H58.5159H58.5156H58.5154H58.5152H58.515H58.5148H58.5145H58.5143H58.5141H58.5139H58.5136H58.5134H58.5132H58.513H58.5127H58.5125H58.5123H58.512H58.5118H58.5116H58.5114H58.5111H58.5109H58.5107H58.5104H58.5102H58.51H58.5097H58.5095H58.5093H58.509H58.5088H58.5086H58.5083H58.5081H58.5078H58.5076H58.5074H58.5071H58.6168ZM58.6168 43.6907L58.6248 43.6902M58.6168 43.6907L58.6248 43.6902M58.6248 43.6902C60.1216 43.5943 61.5841 43.3046 62.9645 42.8369C62.8319 43.9384 62.3493 44.9881 61.6014 45.7999C60.5909 46.8015 59.2942 47.3287 57.9211 47.3091C56.6055 47.2895 55.4098 46.7618 54.5213 45.8035L54.5214 45.8035M58.6248 43.6902L54.5214 45.8035M54.5214 45.8035L54.5159 45.7978M54.5214 45.8035L54.5159 45.7978M54.5159 45.7978L54.4854 45.767L54.4549 45.7361L54.455 45.736M54.5159 45.7978L54.455 45.736M54.455 45.736L54.4491 45.7304M54.455 45.736L54.4491 45.7304M54.4491 45.7304C53.5208 44.8492 52.9794 43.6558 52.9406 42.3423M54.4491 45.7304L52.9406 42.3423M56.9818 41.9993L56.7321 42.011L56.7322 42.0116L56.9818 41.9993ZM56.9818 41.9993C57.0225 42.8229 57.6936 43.4407 58.5071 43.4407H58.6088L58.4258 40.3519C57.5716 40.4137 56.9412 41.1344 56.9818 41.9993ZM52.9406 42.3423C52.9018 40.9682 53.4256 39.6111 54.3576 38.6079C55.2456 37.6701 56.4417 37.1414 57.7584 37.1013H57.7586H57.7587H57.7588H57.759H57.7591H57.7592H57.7594H57.7595H57.7596H57.7598H57.7599H57.7601H57.7602H57.7603H57.7605H57.7606H57.7607H57.7609H57.761H57.7612H57.7613H57.7614H57.7616H57.7617H57.7619H57.762H57.7622H57.7623H57.7624H57.7626H57.7627H57.7629H57.763H57.7632H57.7633H57.7635H57.7636H57.7637H57.7639H57.764H57.7642H57.7643H57.7645H57.7646H57.7648H57.7649H57.7651H57.7652H57.7654H57.7655H57.7657H57.7658H57.766H57.7661H57.7663H57.7664H57.7666H57.7667H57.7669H57.767H57.7672H57.7674H57.7675H57.7677H57.7678H57.768H57.7681H57.7683H57.7684H57.7686H57.7688H57.7689H57.7691H57.7692H57.7694H57.7695H57.7697H57.7699H57.77H57.7702H57.7703H57.7705H57.7707H57.7708H57.771H57.7711H57.7713H57.7715H57.7716H57.7718H57.7719H57.7721H57.7723H57.7724H57.7726H57.7728H57.7729H57.7731H57.7733H57.7734H57.7736H57.7737H57.7739H57.7741H57.7742H57.7744H57.7746H57.7747H57.7749H57.7751H57.7752H57.7754H57.7756H57.7757H57.7759H57.7761H57.7762H57.7764H57.7766H57.7767H57.7769H57.7771H57.7773H57.7774H57.7776H57.7778H57.7779H57.7781H57.7783H57.7784H57.7786H57.7788H57.779H57.7791H57.7793H57.7795H57.7796H57.7798H57.78H57.7802H57.7803H57.7805H57.7807H57.7808H57.781H57.7812H57.7814H57.7815H57.7817H57.7819H57.7821H57.7822H57.7824H57.7826H57.7828H57.7829H57.7831H57.7833H57.7835H57.7836H57.7838H57.784H57.7842H57.7843H57.7845H57.7847H57.7849H57.785H57.7852H57.7854H57.7856H57.7857H57.7859H57.7861H57.7863H57.7864H57.7866H57.7868H57.787H57.7871H57.7873H57.7875H57.7877H57.7879H57.788H57.7882H57.7884H57.7886H57.7887H57.7889H57.7891H57.7893H57.7894H57.7896H57.7898H57.79H57.7902H57.7903H57.7905H57.7907H57.7909H57.791H57.7912H57.7914H57.7916H57.7918H57.7919H57.7921H57.7923H57.7925H57.7927H57.7928H57.793H57.7932H57.7934H57.7935H57.7937H57.7939H57.7941H57.7943H57.7944H57.7946H57.7948H57.795H57.7952H57.7953H57.7955H57.7957H57.7959H57.7961H57.7962H57.7964H57.7966H57.7968H57.7969H57.7971H57.7973H57.7975H57.7977H57.7978H57.798H57.7982H57.7984H57.7986H57.7987H57.7989H57.7991H57.7993H57.7994H57.7996H57.7998H57.8H57.8002H57.8003H57.8005H57.8007H57.8009H57.801H57.8012H57.8014H57.8016H57.8018H57.8019H57.8021H57.8023H57.8025H57.8026H57.8028H57.803H57.8032H57.8034H57.8035H57.8037H57.8039H57.8041H57.8042H57.8044H57.8046H57.8048H57.8049H57.8051H57.8053H57.8055H57.8056H57.8058H57.806H57.8062H57.8063H57.8065H57.8067H57.8069H57.807H57.8072H57.8074H57.8076H57.8077H57.8079H57.8081H57.8083H57.8084H57.8086H57.8088H57.809H57.8091H57.8093H57.8095H57.8097H57.8098H57.81H57.8102H57.8103H57.8105H57.8107H57.8109H57.811H57.8112H57.8114H57.8115H57.8117H57.8119H57.8121H57.8122H57.8124H57.8126H57.8127H57.8129H57.8131H57.8132H57.8134H57.8136H57.8138H57.8139H57.8141H57.8143H57.8144H57.8146H57.8148H57.8149H57.8151H57.8153H57.8154H57.8156H57.8158H57.8159H57.8161H57.8163H57.8164H57.8166H57.8168H57.8169H57.8171H57.8173H57.8174H57.8176H57.8177H57.8179H57.8181H57.8182H57.8184H57.8186H57.8187H57.8189H57.819H57.8192H57.8194H57.8195H57.8197H57.8199H57.82H57.8202H57.8203H57.8205H57.8207H57.8208H57.821H57.8211H57.8213H57.8214H57.8216H57.8218H57.8219H57.8221H57.8222H57.8224H57.8225H57.8227H57.8228H57.823H57.8232H57.8233H57.8235H57.8236H57.8238H57.8239H57.8241H57.8242H57.8244H57.8245H57.8247H57.8248H57.825H57.8251H57.8253H57.8254H57.8256H57.8257H57.8259H57.826H57.8262H57.8263H57.8265H57.8266H57.8268H57.8269H57.8271H57.8272H57.8274H57.8275H57.8277H57.8278H57.8279H57.8281H57.8282H57.8284H57.8285H57.8287H57.8288H57.8289H57.8291H57.8292H57.8294H57.8295H57.8296H57.8298H57.8299H57.8301H57.8302H57.8303H57.8305H57.8306H57.8308H57.8309H57.831H57.8312H57.8313H57.8314H57.8316H57.8317H57.8318H57.832H57.8321H57.8322H57.8324H57.8325H57.8326H57.8328H57.8329H57.833H57.8332H57.8333H57.8334H57.8335H57.8337H57.8338H57.8339H57.834H57.8342H57.8343H57.8344H57.8345H57.8347H57.8348H57.8349H57.835H57.8352H57.8353H57.8354H57.8355H57.8357H57.8358H57.8359H57.836L52.9406 42.3423ZM82.4629 39.3783L82.4599 39.3758L73.7296 32.2392C74.1914 30.9321 74.5003 29.5659 74.6193 28.1411L74.6201 28.1307V28.1203V28.1201V28.12V28.1199V28.1198V28.1197V28.1195V28.1194V28.1193V28.1192V28.1191V28.119V28.1188V28.1187V28.1186V28.1185V28.1184V28.1183V28.1182V28.118V28.1179V28.1178V28.1177V28.1176V28.1175V28.1174V28.1173V28.1172V28.1171V28.1169V28.1168V28.1167V28.1166V28.1165V28.1164V28.1163V28.1162V28.1161V28.116V28.1159V28.1158V28.1157V28.1156V28.1155V28.1154V28.1153V28.1152V28.1151V28.115V28.1149V28.1148V28.1147V28.1146V28.1145V28.1144V28.1143V28.1142V28.1141V28.114V28.1139V28.1138V28.1137V28.1136V28.1135V28.1134V28.1133V28.1132V28.1131V28.113V28.113V28.1129V28.1128V28.1127V28.1126V28.1125V28.1124V28.1123V28.1122V28.1121V28.112V28.112V28.1119V28.1118V28.1117V28.1116V28.1115V28.1114V28.1113V28.1113V28.1112V28.1111V28.111V28.1109V28.1108V28.1107V28.1107V28.1106V28.1105V28.1104V28.1103V28.1102V28.1102V28.1101V28.11V28.1099V28.1098V28.1098V28.1097V28.1096V28.1095V28.1094V28.1093V28.1093V28.1092V28.1091V28.109V28.109V28.1089V28.1088V28.1087V28.1086V28.1086V28.1085V28.1084V28.1083V28.1083V28.1082V28.1081V28.108V28.108V28.1079V28.1078V28.1077V28.1077V28.1076V28.1075V28.1074V28.1074V28.1073V28.1072V28.1071V28.1071V28.107V28.1069V28.1069V28.1068V28.1067V28.1066V28.1066V28.1065V28.1064V28.1064V28.1063V28.1062V28.1061V28.1061V28.106V28.1059V28.1059V28.1058V28.1057V28.1057V28.1056V28.1055V28.1055V28.1054V28.1053V28.1053V28.1052V28.1051V28.105V28.105V28.1049V28.1048V28.1048V28.1047V28.1046V28.1046V28.1045V28.1045V28.1044V28.1043V28.1043V28.1042V28.1041V28.1041V28.104V28.1039V28.1039V28.1038V28.1037V28.1037V28.1036V28.1035V28.1035V28.1034V28.1034V28.1033V28.1032V28.1032V28.1031V28.103V28.103V28.1029V28.1028V28.1028V28.1027V28.1027V28.1026V28.1025V28.1025V28.1024V28.1023V28.1023V28.1022V28.1022V28.1021V28.102V28.102V28.1019V28.1019V28.1018V28.1017V28.1017V28.1016V28.1015V28.1015V28.1014V28.1014V28.1013V28.1012V28.1012V28.1011V28.1011V28.101V28.1009V28.1009V28.1008V28.1008V28.1007V28.1006V28.1006V28.1005V28.1005V28.1004V28.1003V28.1003V28.1002V28.1001V28.1001V28.1V28.1V28.0999V28.0998V28.0998V28.0997V28.0997V28.0996V28.0995V28.0995V28.0994V28.0994V28.0993V28.0992V28.0992V28.0991V28.0991V28.099V28.0989V28.0989V28.0988V28.0988V28.0987V28.0986V28.0986V28.0985V28.0985V28.0984V28.0983V28.0983V28.0982V28.0982V28.0981V28.098V28.098V28.0979V28.0978V28.0978V28.0977V28.0977V28.0976V28.0975V28.0975V28.0974V28.0974V28.0973V28.0972V28.0972V28.0971V28.097V28.097V28.0969V28.0969V28.0968V28.0967V28.0967V28.0966V28.0965V28.0965V28.0964V28.0964V28.0963V28.0962V28.0962V28.0961V28.096V28.096V28.0959V28.0959V28.0958V28.0957V28.0957V28.0956V28.0955V28.0955V28.0954V28.0953V28.0953V28.0952V28.0951V28.0951V28.095V28.0949V28.0949V28.0948V28.0947V28.0947V28.0946V28.0945V28.0945V28.0944V28.0943V28.0943V28.0942V28.0941V28.0941V28.094V28.0939V28.0939V28.0938V28.0937V28.0937V28.0936V28.0935V28.0935V28.0934V28.0933V28.0933V28.0932V28.0931V28.093V28.093V28.0929V28.0928V28.0928V28.0927V28.0926V28.0925V28.0925V28.0924V28.0923V28.0923V28.0922V28.0921V28.092V28.092V28.0919V28.0918V28.0917V28.0917V28.0916V28.0915V28.0914V28.0914V28.0913V28.0912V28.0911V28.0911V28.091V28.0909V28.0908V28.0908V28.0907V28.0906V28.0905V28.0905V28.0904V28.0903V28.0902V28.0901V28.0901V28.09V28.0899V28.0898V28.0897V28.0897V28.0896V28.0895V28.0894V28.0893V28.0893V28.0892V28.0891V28.089V28.0889V28.0888V28.0888V28.0887V28.0886V28.0885V28.0884V28.0883V28.0882V28.0882V28.0881V28.088V28.0879V28.0878V28.0877V28.0876V28.0876V28.0875V28.0874V28.0873C75.1729 19.6917 69.4602 12.0269 61.3281 10.2497C57.3063 9.31035 53.0576 9.81147 49.4057 11.6499L49.5053 11.8477L49.4057 11.6499C45.7104 13.5102 42.8613 16.6459 41.3542 20.4503L41.3537 20.4516C41.0014 21.3554 41.4209 22.4103 42.349 22.7724C43.2478 23.131 44.2903 22.7007 44.6466 21.7652C47.0601 15.6479 53.8878 12.1848 60.5244 13.7433L60.5526 13.7499H60.5748C66.9644 15.1544 71.4666 21.2094 71.05 27.8324C70.9831 28.5076 70.8746 29.1546 70.7243 29.7973L58.9705 20.1841L58.9705 20.1841L58.9678 20.182C58.309 19.6579 57.3845 19.6542 56.7414 20.1848L33.4372 39.3542C33.0086 39.6929 32.7747 40.2194 32.7747 40.7431V106.267C32.7747 107.246 33.5751 108.061 34.5499 108.061H81.3254C82.3003 108.061 83.1007 107.246 83.1007 106.267V40.7487C83.123 40.2311 82.8789 39.7294 82.4629 39.3783ZM57.6914 33.4919L57.689 33.4919C55.4278 33.5343 53.3084 34.4464 51.7756 36.1043C50.1858 37.7991 49.3068 40.1075 49.3903 42.4191C49.4533 44.6637 50.3732 46.7633 51.9852 48.292C53.536 49.9234 55.6112 50.8349 57.872 50.8773V50.8773H57.8767H57.8769H57.8772H57.8774H57.8776H57.8779H57.8781H57.8784H57.8786H57.8788H57.8791H57.8793H57.8795H57.8798H57.88H57.8803H57.8805H57.8807H57.881H57.8812H57.8815H57.8817H57.8819H57.8822H57.8824H57.8826H57.8829H57.8831H57.8834H57.8836H57.8838H57.8841H57.8843H57.8846H57.8848H57.885H57.8853H57.8855H57.8857H57.886H57.8862H57.8865H57.8867H57.8869H57.8872H57.8874H57.8876H57.8879H57.8881H57.8884H57.8886H57.8888H57.8891H57.8893H57.8896H57.8898H57.89H57.8903H57.8905H57.8907H57.891H57.8912H57.8915H57.8917H57.8919H57.8922H57.8924H57.8927H57.8929H57.8931H57.8934H57.8936H57.8938H57.8941H57.8943H57.8946H57.8948H57.895H57.8953H57.8955H57.8958H57.896H57.8962H57.8965H57.8967H57.8969H57.8972H57.8974H57.8977H57.8979H57.8981H57.8984H57.8986H57.8988H57.8991H57.8993H57.8996H57.8998H57.9H57.9003H57.9005H57.9008H57.901H57.9012H57.9015H57.9017H57.9019H57.9022H57.9024H57.9027H57.9029H57.9031H57.9034H57.9036H57.9039H57.9041H57.9043H57.9046H57.9048H57.905H57.9053H57.9055H57.9058H57.906H57.9062H57.9065H57.9067H57.907H57.9072H57.9074H57.9077H57.9079H57.9081H57.9084H57.9086H57.9089H57.9091H57.9093H57.9096H57.9098H57.91H57.9103H57.9105H57.9108H57.911H57.9112H57.9115H57.9117H57.912H57.9122H57.9124H57.9127H57.9129H57.9131H57.9134H57.9136H57.9139H57.9141H57.9143H57.9146H57.9148H57.9151H57.9153H57.9155H57.9158H57.916H57.9162H57.9165H57.9167H57.917H57.9172H57.9174H57.9177H57.9179H57.9182H57.9184H57.9186H57.9189H57.9191H57.9193H57.9196H57.9198H57.9201H57.9203H57.9205H57.9208H57.921H57.9213H57.9215H57.9217H57.922H57.9222H57.9224H57.9227H57.9229H57.9232H57.9234H57.9236H57.9239H57.9241H57.9243H57.9246H57.9248H57.9251H57.9253H57.9255H57.9258H57.926H57.9263H57.9265H57.9267H57.927H57.9272H57.9274H57.9277H57.9279H57.9282H57.9284H57.9286H57.9289H57.9291H57.9294H57.9296H57.9298H57.9301H57.9303H57.9305H57.9308H57.931H57.9313H57.9315H57.9317H57.932H57.9322H57.9325H57.9327H57.9329H57.9332H57.9334H57.9336H57.9339H57.9341H57.9344H57.9346H57.9348H57.9351H57.9353H57.9356H57.9358H57.936H57.9363H57.9365H57.9367H57.937H57.9372H57.9375H57.9377H57.9379H57.9382H57.9384H57.9386H57.9389H57.9391H57.9394H57.9396H57.9398H57.9401H57.9403H57.9406H57.9408H57.941H57.9413H57.9415H57.9417H57.942H57.9422H57.9425H57.9427H57.9429H57.9432H57.9434H57.9437H57.9439H57.9441H57.9444H57.9446H57.9448H57.9451H57.9453H57.9456H57.9458H57.946H57.9463H57.9465H57.9468H57.947H57.9472H57.9475H57.9477H57.9479H57.9482H57.9484H57.9487H57.9489H57.9491H57.9494H57.9496H57.9499H57.9501H57.9503H57.9506H57.9508H57.951H57.9513H57.9515H57.9518H57.952H57.9522H57.9525H57.9527H57.9529H57.9532H57.9534H57.9537H57.9539H57.9541H57.9544H57.9546H57.9549H57.9551H57.9553H57.9556H57.9558H57.956H57.9563H57.9565H57.9568H57.957H57.9572H57.9575H57.9577H57.958H57.9582H57.9584H57.9587H57.9589H57.9591H57.9594H57.9596H57.9599H57.9601H57.9603H57.9606H57.9608H57.9611H57.9613H57.9615H57.9618H57.962H57.9622H57.9625H57.9627H57.963H57.9632H57.9634H57.9637H57.9639H57.9641H57.9644H57.9646H57.9649H57.9651H57.9653H57.9656H57.9658H57.9661H57.9663H57.9665H57.9668H57.967H57.9672H57.9675H57.9677H57.968H57.9682H57.9684H57.9687H57.9689H57.9692H57.9694H57.9696H57.9699H57.9701H57.9703H57.9706H57.9708H57.9711H57.9713H57.9715H57.9718H57.972H57.9723H57.9725H57.9727H57.973H57.9732H57.9734H57.9737H57.9739H57.9742H57.9744H57.9746H57.9749H57.9751H57.9753H57.9756H57.9758H57.9761H57.9763H57.9765H57.9768H57.977H57.9773H57.9775H57.9777H57.978H57.9782H57.9784H57.9787H57.9789H57.9792H57.9794H57.9796H57.9799H57.9801H57.9804H57.9806H57.9808H57.9811H57.9813H57.9815H57.9818H57.982H57.9823H57.9825H57.9827H57.983H57.9832H57.9835H57.9837H57.9839H57.9842H57.9844H57.9846H57.9849H57.9851H57.9854H57.9856H57.9858H57.9861H57.9863H57.9866H57.9868H57.987H57.9873H57.9875H57.9877H57.988H57.9882H57.9885H57.9887H57.9889H57.9892H57.9894H57.9896H57.9899H57.9901H57.9904H57.9906H57.9908H57.9911H57.9913H57.9916H57.9918H57.992H57.9923H57.9925H57.9927H57.993H57.9932H57.9935H57.9937H57.9939H57.9942H57.9944H57.9947H57.9949H57.9951H57.9954H57.9956H57.9958H57.9961H57.9963H57.9966H57.9968H57.997H57.9973H57.9975H57.9978H57.998H57.9982H57.9985H57.9987C60.3044 50.8773 62.4621 49.9638 64.1343 48.2919L64.1354 48.2908L64.1557 48.2701L64.176 48.2496L64.1761 48.2496L64.1805 48.245C65.7699 46.5509 66.6491 44.2437 66.5666 41.9329C66.5663 41.6636 66.537 41.3963 66.5042 41.14C68.795 39.7346 70.7497 37.8078 72.1577 35.518L79.5908 41.5826V104.514H36.3456V41.623L57.8773 23.8928L69.3515 33.2672C68.3421 35.0325 66.9399 36.5345 65.2558 37.6916C64.8874 37.1013 64.45 36.5451 63.9282 36.054C62.2337 34.3609 60.0145 33.4707 57.6914 33.4919ZM57.7547 36.8513V36.8513H57.836L57.7547 36.8513Z" fill="#435586" stroke="#435586" stroke-width="0.5"/>
</svg>
