<svg width="128" height="128" viewBox="0 0 128 128" fill="none" xmlns="http://www.w3.org/2000/svg">
<path opacity="0.2" d="M106.859 49.4341C116.614 70.5204 92.67 90.0123 70.3156 96.4252C51.6905 101.768 33.5206 100.529 22.0615 84.9249C4.63318 61.1926 44.6103 26.7819 73.8884 30.1056C88.7238 31.7897 100.595 35.8947 106.859 49.4341Z" fill="#2A91F0"/>
<path d="M77.5635 46.4596L61.6017 26.2963C61.2014 25.7935 60.6096 25.4988 59.9655 25.4988H18.0506C17.4065 25.4988 16.8147 25.7935 16.4144 26.2963L0.45257 46.4596C0.156659 46.8237 0 47.2745 0 47.7426V104.418C0 105.563 0.939953 106.499 2.08878 106.499H75.9099C77.0587 106.499 77.9987 105.563 77.9987 104.418V47.7426C78.0161 47.2745 77.8594 46.8237 77.5635 46.4596ZM71.889 46.0088H41.0968V29.6597H58.9559L71.889 46.0088ZM19.0602 29.6597H36.9193V46.0088H6.1271L19.0602 29.6597ZM4.17757 102.338V50.1698H73.8211V102.338H4.17757Z" fill="#435586"/>
<path d="M48.9123 66.9188L34.9175 80.858L29.1037 75.0673C28.2856 74.2525 26.9627 74.2525 26.1446 75.0673C25.3265 75.8822 25.3265 77.1998 26.1446 78.0147L33.4379 85.279C33.8383 85.6778 34.3779 85.8858 34.9175 85.8858C35.4571 85.8858 35.9793 85.6778 36.397 85.279L51.854 69.8835C52.6721 69.0686 52.6721 67.751 51.854 66.9361C51.0533 66.104 49.7304 66.104 48.9123 66.9188Z" fill="#435586"/>
</svg>
