<svg width="128" height="128" viewBox="0 0 128 128" fill="none" xmlns="http://www.w3.org/2000/svg">
<g clip-path="url(#clip0)">
<path opacity="0.2" d="M105.788 96.7485C91.6712 119.39 57.8587 108.317 37.615 90.6179C20.7484 75.8717 10.4936 57.4562 18.2691 36.5845C30.095 4.84047 88.343 22.1626 103.592 52.6649C111.319 68.1207 114.853 82.2107 105.788 96.7485Z" fill="#2A91F0"/>
<path d="M109.704 37.1389L109.701 37.0581C109.656 36.061 109.626 35.006 109.608 33.8322C109.524 28.1082 104.985 23.3735 99.2751 23.0535C87.37 22.3874 78.1604 18.4954 70.2913 10.8057L70.2242 10.7415C67.6575 8.38206 63.7858 8.38206 61.2184 10.7415L61.1512 10.8057C53.2822 18.4954 44.0725 22.3874 32.1675 23.0543C26.4582 23.3735 21.919 28.1082 21.8345 33.833C21.8171 34.9989 21.7863 36.0538 21.7412 37.0581L21.7365 37.2458C21.505 49.4169 21.2175 64.5644 26.2718 78.3132C29.051 85.8738 33.26 92.4461 38.7812 97.8485C45.0695 104.001 53.3059 108.885 63.2613 112.365C63.5852 112.479 63.9217 112.571 64.2645 112.64C64.748 112.736 65.2346 112.784 65.7213 112.784C66.2079 112.784 66.6953 112.736 67.178 112.64C67.5209 112.571 67.8598 112.478 68.1852 112.364C78.1288 108.877 86.3565 103.991 92.6392 97.839C98.158 92.435 102.367 85.8612 105.149 78.2989C110.222 64.5089 109.935 49.3329 109.704 37.1389ZM99.4481 76.1913C94.1173 90.6822 83.2352 100.634 66.1803 106.614C66.1194 106.634 66.0546 106.653 65.9875 106.666C65.8113 106.701 65.632 106.701 65.4535 106.665C65.3871 106.652 65.3223 106.634 65.2623 106.614C48.1891 100.645 37.3 90.6988 31.9731 76.2072C27.3146 63.534 27.5784 49.6292 27.8115 37.3623L27.8131 37.2942C27.8605 36.24 27.8921 35.1359 27.9094 33.9225C27.9474 31.3809 29.9666 29.2781 32.5064 29.1363C39.2434 28.7593 45.1619 27.454 50.6002 25.1461C56.0313 22.8413 60.855 19.5924 65.3452 15.2141C65.5735 15.0208 65.8698 15.02 66.0973 15.2141C70.5884 19.5924 75.412 22.8413 80.8424 25.1461C86.2806 27.454 92.1992 28.7593 98.937 29.1363C101.477 29.2781 103.496 31.3809 103.533 33.9233C103.551 35.143 103.583 36.2471 103.63 37.2942C103.863 49.5753 104.12 63.4912 99.4481 76.1913Z" fill="#435586"/>
<path d="M65.7197 35.0078C51.4905 35.0078 39.9148 46.6142 39.9148 60.8794C39.9148 75.1454 51.4905 86.7518 65.7197 86.7518C79.9482 86.7518 91.5246 75.1454 91.5246 60.8794C91.5246 46.6142 79.9482 35.0078 65.7197 35.0078ZM65.7197 80.6595C54.8408 80.6595 45.9906 71.7864 45.9906 60.8794C45.9906 49.9724 54.8408 41.0993 65.7197 41.0993C76.5978 41.0993 85.4481 49.9724 85.4481 60.8794C85.4481 71.7864 76.5978 80.6595 65.7197 80.6595Z" fill="#435586"/>
<path d="M73.1363 52.8479L61.1507 64.8645L57.8975 61.603C56.7109 60.4133 54.7873 60.4133 53.6008 61.603C52.415 62.7926 52.415 64.7212 53.6008 65.91L59.0027 71.3259C59.596 71.9207 60.3733 72.2177 61.1507 72.2177C61.928 72.2177 62.7054 71.9207 63.2986 71.3259L77.4331 57.1549C78.6188 55.9653 78.6188 54.0367 77.4331 52.8479C76.2465 51.6575 74.3229 51.6575 73.1363 52.8479Z" fill="#435586"/>
</g>
<defs>
<clipPath id="clip0">
<rect width="128" height="128" fill="white"/>
</clipPath>
</defs>
</svg>
