<svg width="76" height="93" viewBox="0 0 76 93" fill="none" xmlns="http://www.w3.org/2000/svg">
<path d="M23.1271 37.9175C23.1271 36.6504 22.0881 35.6136 20.8182 35.6136H2.30886C1.03899 35.6136 0 36.6504 0 37.9175C0 39.1847 1.03899 40.2214 2.30886 40.2214H20.8182C22.0881 40.2214 23.1271 39.1847 23.1271 37.9175Z" fill="white"/>
<path d="M73.6913 35.6133H55.1819C53.912 35.6133 52.873 36.65 52.873 37.9172C52.873 39.1843 53.912 40.221 55.1819 40.221H73.6913C74.9612 40.221 76.0001 39.1843 76.0001 37.9172C76.0001 36.65 74.9804 35.6133 73.6913 35.6133Z" fill="white"/>
<path d="M38 23.0771C39.2699 23.0771 40.3089 22.0404 40.3089 20.7733V2.30387C40.3089 1.03674 39.2699 0 38 0C36.7301 0 35.6912 1.03674 35.6912 2.30387V20.7733C35.6912 22.0404 36.7301 23.0771 38 23.0771Z" fill="white"/>
<path d="M50.1408 28.107C50.7373 28.107 51.3145 27.8766 51.7763 27.435L64.8791 14.3605C65.7834 13.4582 65.7834 11.999 64.8791 11.0967C63.9747 10.1943 62.5125 10.1943 61.6082 11.0967L48.5054 24.1712C47.6011 25.0735 47.6011 26.5326 48.5054 27.435C48.9671 27.8766 49.5636 28.107 50.1408 28.107Z" fill="white"/>
<path d="M24.2239 27.435C24.6664 27.8766 25.2629 28.107 25.8593 28.107C26.4558 28.107 27.033 27.8766 27.4948 27.435C28.3991 26.5326 28.3991 25.0735 27.4948 24.1712L14.392 11.0967C13.4877 10.1943 12.0254 10.1943 11.1211 11.0967C10.2168 11.999 10.2168 13.4582 11.1211 14.3605L24.2239 27.435Z" fill="white"/>
<path d="M65.7449 52.4517C63.9941 50.9541 61.7814 50.1286 59.5303 50.1286H57.433H49.8908H46.312V40.8171C46.312 36.3629 44.9844 33.1183 42.3485 31.1792C38.1925 28.1458 32.5551 29.8545 32.3049 29.9313C31.3429 30.2385 30.6887 31.1216 30.6887 32.12V43.3514C30.6887 46.7688 29.0533 49.6678 25.8016 51.9909C23.3389 53.7572 20.8184 54.5636 20.4913 54.6595L20.2604 54.7171C19.3946 53.738 18.1247 53.1236 16.7009 53.1236H7.92721C5.3105 53.1236 3.1748 55.2547 3.1748 57.8658V86.5874C3.1748 89.1985 5.3105 91.3295 7.92721 91.3295H16.7394C17.8938 91.3295 18.9713 90.9072 19.7794 90.216C21.5495 91.9439 23.9546 92.9999 26.552 92.9999H35.3065H36.2108H54.1237C56.8943 92.9999 59.3379 92.3279 61.2042 91.08C63.59 89.4672 65.0715 86.9138 65.4948 83.65L69.0543 61.5712C69.6123 58.1538 68.3424 54.6595 65.7449 52.4517ZM16.874 86.5874C16.874 86.6642 16.8163 86.7218 16.7394 86.7218H7.92721C7.85025 86.7218 7.79253 86.6642 7.79253 86.5874V57.8658C7.79253 57.789 7.85025 57.7314 7.92721 57.7314H16.7394C16.8163 57.7314 16.874 57.789 16.874 57.8658V86.5874ZM64.4943 60.8608L60.9348 82.978C60.9348 82.9972 60.9348 83.0356 60.9156 83.074C60.7617 84.3987 60.2614 88.4113 54.1237 88.4113H36.2108H35.3065H26.552C24.0892 88.4113 21.9343 86.5682 21.5495 84.1299C21.5303 84.0339 21.511 83.9379 21.4918 83.8612V59.1713L21.6265 59.1329C21.6649 59.1329 21.6842 59.1137 21.7227 59.1137C21.8573 59.0753 25.1282 58.1538 28.3799 55.8307C32.9014 52.6245 35.3065 48.3047 35.3065 43.3514V34.0207C36.5763 33.8863 38.3272 33.9439 39.6163 34.8846C41.0017 35.9022 41.6943 37.8989 41.6943 40.7979V52.4133C41.6943 53.6804 42.7333 54.7171 44.0032 54.7171H49.8908H57.433H59.5303C60.6847 54.7171 61.8199 55.1587 62.7434 55.9267C64.1287 57.117 64.7829 58.9985 64.4943 60.8608Z" fill="white"/>
</svg>
