<svg width="128" height="128" viewBox="0 0 128 128" fill="none" xmlns="http://www.w3.org/2000/svg">
<path opacity="0.2" d="M114.853 46.1472C126.256 70.7224 98.3977 93.482 72.3664 100.989C50.6777 107.243 29.5071 105.821 16.1283 87.641C-4.21974 59.9904 42.2906 19.814 76.4062 23.6518C93.6928 25.5964 107.531 30.3676 114.853 46.1472Z" fill="#2A91F0"/>
<path d="M72.6275 58.9211H70.8476V45.9305C70.8476 40.6186 67.2878 36.3133 62.9302 36.3133H61.2884L61.3038 31.486C61.3038 27.9075 58.9101 25 55.9641 25H8.49042C4.94601 25 2.04603 28.4667 2 32.772C2 32.8093 2 32.8466 2 32.8839V96.514C2 100.092 4.39363 103 7.33964 103H62.9455C67.3185 103 70.8629 98.676 70.8629 93.3828V80.3735H72.6428C74.9444 80.3735 76.8163 78.0996 76.8163 75.3039V63.9907C76.801 61.195 74.929 58.9211 72.6275 58.9211ZM8.49042 29.4731H55.9641C56.8694 29.4731 57.6212 30.3677 57.6212 31.4674L57.6059 36.3133H8.49042C6.9407 36.3133 5.68251 34.7849 5.68251 32.9025C5.68251 31.0201 6.9407 29.4731 8.49042 29.4731ZM67.1651 93.3642C67.1651 96.1971 65.2625 98.5082 62.9302 98.5082H7.3243C6.41901 98.5082 5.66717 97.6136 5.66717 96.4953V40.0036C6.52642 40.5068 7.47773 40.7864 8.49042 40.7864H62.9302C65.2625 40.7864 67.1651 43.0975 67.1651 45.9305V58.9211H54.5985C52.2969 58.9211 50.425 61.195 50.425 63.9907V75.3039C50.425 78.0996 52.2969 80.3735 54.5985 80.3735H67.1651V93.3642V93.3642ZM73.1185 75.3039C73.1185 75.6394 72.9037 75.9004 72.6275 75.9004H54.6139C54.3377 75.9004 54.1229 75.6394 54.1229 75.3039V63.9907C54.1229 63.6738 54.3377 63.3943 54.6139 63.3943H72.6275C72.8883 63.3943 73.1185 63.6552 73.1185 63.9907V75.3039Z" fill="#435586"/>
</svg>
