<svg width="128" height="128" viewBox="0 0 128 128" fill="none" xmlns="http://www.w3.org/2000/svg">
<path opacity="0.2" d="M98.7817 49.0037C108.407 69.7659 84.7083 88.9919 62.5946 95.332C44.17 100.614 26.2023 99.4121 14.8858 84.0523C-2.32553 60.6913 37.2446 26.7524 66.1956 29.9968C80.8652 31.6407 92.6012 35.6723 98.7817 49.0037Z" fill="#2A91F0"/>
<path d="M38.9601 80.0223C37.2523 80.0689 35.7854 78.6847 36.0744 77.0009C36.1928 76.3113 36.3565 75.7008 36.5655 75.1695C37.0474 73.9442 37.9263 72.7411 39.2021 71.5601C40.492 70.3644 41.3496 69.3975 41.7749 68.6594C42.2002 67.9065 42.4128 67.1167 42.4128 66.29C42.4128 63.7952 41.3071 62.5478 39.0958 62.5478C38.0468 62.5478 37.2034 62.8874 36.5655 63.5664V63.5664C35.4221 64.7842 34.2409 66.3343 32.5705 66.3343V66.3343C30.8439 66.3343 29.3616 64.8929 29.8614 63.2402C30.2835 61.8446 31.0085 60.669 32.0365 59.7135C33.7659 58.1192 36.119 57.322 39.0958 57.322C42.1009 57.322 44.4328 58.0823 46.0913 59.6028C47.7498 61.1085 48.579 63.2416 48.579 66.0022C48.579 67.257 48.3097 68.4453 47.771 69.5672C47.2324 70.6744 46.2897 71.907 44.9431 73.2652L43.2208 74.9702C42.1435 76.0478 41.5268 77.31 41.3709 78.7567V78.7567C40.9623 79.5104 40.1828 79.989 39.3258 80.0124L38.9601 80.0223ZM35.2259 86.9054C35.2259 85.9163 35.5449 85.1044 36.1828 84.4696C36.8348 83.8201 37.6641 83.4953 38.6705 83.4953C39.677 83.4953 40.4991 83.8201 41.137 84.4696C41.7891 85.1044 42.1151 85.9163 42.1151 86.9054C42.1151 87.8797 41.7962 88.6842 41.1583 89.319C40.5346 89.9538 39.7053 90.2712 38.6705 90.2712C37.6357 90.2712 36.7994 89.9538 36.1615 89.319C35.5378 88.6842 35.2259 87.8797 35.2259 86.9054Z" fill="#435586"/>
<path d="M77.5635 43.9608L61.6017 23.7975C61.2014 23.2947 60.6096 23 59.9655 23H18.0506C17.4065 23 16.7973 23.2947 16.4144 23.7975L0.45257 43.9608C0.156659 44.3249 0 44.7757 0 45.2438V101.92C0 103.064 0.939953 104 2.08878 104H75.9099C77.0587 104 77.9987 103.064 77.9987 101.92V45.2438C78.0161 44.7757 77.8594 44.3249 77.5635 43.9608ZM71.889 43.5101H41.0968V27.161H58.9559L71.889 43.5101ZM19.0602 27.161H36.9193V43.5101H6.1271L19.0602 27.161ZM4.17757 99.839V47.671H73.8211V99.839H4.17757Z" fill="#435586"/>
</svg>
