<svg width="128" height="128" viewBox="0 0 128 128" fill="none" xmlns="http://www.w3.org/2000/svg">
<path opacity="0.2" d="M72.2488 14.3314C96.9649 13.5201 106.109 45.1904 103.099 69.8494C100.592 90.3946 91.8235 107.75 71.7706 112.522C41.2718 119.778 24.1753 66.1231 39.6036 38.7098C47.4213 24.8192 56.3787 14.8523 72.2488 14.3314Z" fill="#2A91F0"/>
<mask id="path-2-outside-1" maskUnits="userSpaceOnUse" x="15" y="11.4043" width="97" height="97" fill="black">
<rect fill="white" x="15" y="11.4043" width="97" height="97"/>
<path d="M109.528 28.2771C109.948 28.2771 110.351 28.1099 110.649 27.8122C110.946 27.5145 111.113 27.1108 111.113 26.6898V20.3407C111.113 18.2358 110.278 16.2172 108.791 14.7288C107.305 13.2405 105.289 12.4043 103.187 12.4043H38.1934C36.0912 12.4043 34.0752 13.2405 32.5888 14.7288C31.1024 16.2172 30.2673 18.2358 30.2673 20.3407V25.8327C27.808 26.6057 25.5741 27.9679 23.7597 29.8013C21.9452 31.6346 20.605 33.8835 19.8553 36.353C19.1056 38.8225 18.969 41.4379 19.4575 43.9722C19.946 46.5065 21.0447 48.8831 22.6583 50.8959L16.3334 59.0545C16.1519 59.2884 16.0394 59.5684 16.0086 59.8629C15.9778 60.1574 16.0299 60.4547 16.159 60.7212C16.2915 60.9869 16.495 61.2107 16.7468 61.3676C16.9987 61.5245 17.2891 61.6084 17.5857 61.61H22.9437L25.6861 67.0862C25.8161 67.3493 26.0172 67.5707 26.2666 67.725C26.516 67.8793 26.8037 67.9605 27.0969 67.9592H27.1286C27.4275 67.9499 27.7179 67.8574 27.9671 67.6919C28.2164 67.5265 28.4146 67.2947 28.5395 67.0227L30.2673 63.2291V91.7684H20.7561C20.3357 91.7684 19.9325 91.9356 19.6352 92.2333C19.3379 92.531 19.1709 92.9347 19.1709 93.3557V99.7048C19.1709 101.81 20.0059 103.828 21.4924 105.317C22.9788 106.805 24.9948 107.641 27.0969 107.641H90.5051C92.6073 107.641 94.6233 106.805 96.1097 105.317C97.5961 103.828 98.4312 101.81 98.4312 99.7048V98.1175C98.4312 98.5385 98.5982 98.9422 98.8955 99.2399C99.1928 99.5376 99.596 99.7048 100.016 99.7048H109.528C109.948 99.7048 110.351 99.5376 110.649 99.2399C110.946 98.9422 111.113 98.5385 111.113 98.1175V75.8956C111.113 75.4746 110.946 75.0709 110.649 74.7732C110.351 74.4755 109.948 74.3083 109.528 74.3083H100.016C99.596 74.3083 99.1928 74.4755 98.8955 74.7732C98.5982 75.0709 98.4312 75.4746 98.4312 75.8956V28.2771H109.528ZM98.4312 20.3407C98.4312 19.0778 98.9322 17.8666 99.8241 16.9736C100.716 16.0806 101.926 15.5789 103.187 15.5789C104.448 15.5789 105.658 16.0806 106.55 16.9736C107.441 17.8666 107.942 19.0778 107.942 20.3407V25.1026H98.4312V20.3407ZM101.602 77.4828H107.942V96.5302H101.602V77.4828ZM33.4377 20.3407C33.4415 19.0789 33.9437 17.8699 34.8348 16.9777C35.7258 16.0855 36.9332 15.5826 38.1934 15.5789H96.8935C95.8396 16.9424 95.2656 18.6165 95.2608 20.3407V75.2448L93.5646 73.5464L92.6293 67.9115C92.4246 66.6692 91.81 65.5313 90.8838 64.6796C89.9575 63.8279 88.773 63.3115 87.5194 63.2128C86.2657 63.1141 85.0151 63.4389 83.9674 64.1352C82.9196 64.8315 82.1351 65.8593 81.739 67.0544L81.0732 69.0385C81.0237 69.2034 80.997 69.3743 80.9939 69.5464V72.721H69.8975C68.6374 72.7248 67.4299 73.2277 66.5389 74.1199C65.6479 75.0121 65.1456 76.2211 65.1419 77.4828C65.1449 78.6583 65.5858 79.7903 66.3783 80.6574C65.5831 81.5229 65.1418 82.656 65.1418 83.832C65.1418 85.008 65.5831 86.1411 66.3783 87.0065C65.5858 87.8737 65.1449 89.0057 65.1419 90.1811C65.1461 90.7226 65.2426 91.2594 65.4272 91.7684H33.4377V56.7688C33.9609 56.8164 34.484 56.8482 35.0229 56.8482C35.6269 56.8438 36.2301 56.8067 36.8301 56.7371L41.5064 67.0227C41.6313 67.2947 41.8295 67.5265 42.0788 67.6919C42.328 67.8574 42.6184 67.9499 42.9173 67.9592H42.949C43.2422 67.9605 43.5298 67.8793 43.7793 67.725C44.0287 67.5707 44.2298 67.3493 44.3598 67.0862L47.1022 61.61H52.4602C52.7568 61.6084 53.0472 61.5245 53.2991 61.3676C53.5509 61.2107 53.7544 60.9869 53.8869 60.7212C54.016 60.4547 54.0681 60.1574 54.0373 59.8629C54.0064 59.5684 53.894 59.2884 53.7125 59.0545L47.3875 50.8959C49.2575 48.5632 50.4307 45.7487 50.7718 42.7771C51.1129 39.8055 50.608 36.7979 49.3153 34.1013C48.0226 31.4047 45.9948 29.129 43.466 27.5368C40.9371 25.9445 38.0102 25.1007 35.0229 25.1026C34.484 25.1026 33.9609 25.1343 33.4377 25.1819V20.3407ZM69.8975 82.2447H74.6531C75.0735 82.2447 75.4767 82.4119 75.774 82.7096C76.0713 83.0073 76.2383 83.411 76.2383 83.832C76.2383 84.2529 76.0713 84.6567 75.774 84.9544C75.4767 85.252 75.0735 85.4193 74.6531 85.4193H69.8975C69.4771 85.4193 69.0738 85.252 68.7766 84.9544C68.4793 84.6567 68.3123 84.2529 68.3123 83.832C68.3123 83.411 68.4793 83.0073 68.7766 82.7096C69.0738 82.4119 69.4771 82.2447 69.8975 82.2447ZM68.3123 77.4828C68.3123 77.0619 68.4793 76.6581 68.7766 76.3605C69.0738 76.0628 69.4771 75.8956 69.8975 75.8956H74.6531C75.0735 75.8956 75.4767 76.0628 75.774 76.3605C76.0713 76.6581 76.2383 77.0619 76.2383 77.4828C76.2383 77.9038 76.0713 78.3076 75.774 78.6052C75.4767 78.9029 75.0735 79.0701 74.6531 79.0701H69.8975C69.4771 79.0701 69.0738 78.9029 68.7766 78.6052C68.4793 78.3076 68.3123 77.9038 68.3123 77.4828ZM69.8975 88.5938H74.6531C75.0735 88.5938 75.4767 88.761 75.774 89.0587C76.0713 89.3564 76.2383 89.7601 76.2383 90.1811C76.2383 90.6021 76.0713 91.0058 75.774 91.3035C75.4767 91.6012 75.0735 91.7684 74.6531 91.7684H69.8975C69.4771 91.7684 69.0738 91.6012 68.7766 91.3035C68.4793 91.0058 68.3123 90.6021 68.3123 90.1811C68.3123 89.7601 68.4793 89.3564 68.7766 89.0587C69.0738 88.761 69.4771 88.5938 69.8975 88.5938ZM71.4827 94.9429H76.2383C76.6587 94.9429 77.0619 95.1102 77.3592 95.4079C77.6565 95.7055 77.8235 96.1093 77.8235 96.5302C77.8235 96.9512 77.6565 97.3549 77.3592 97.6526C77.0619 97.9503 76.6587 98.1175 76.2383 98.1175H71.4827C71.0623 98.1175 70.6591 97.9503 70.3618 97.6526C70.0645 97.3549 69.8975 96.9512 69.8975 96.5302C69.8975 96.1093 70.0645 95.7055 70.3618 95.4079C70.6591 95.1102 71.0623 94.9429 71.4827 94.9429ZM40.0005 56.0387C41.8739 55.4117 43.6152 54.443 45.1366 53.1816L49.2264 58.4355H46.1194C45.8258 58.4321 45.5372 58.5124 45.2874 58.6669C45.0376 58.8215 44.8369 59.044 44.7086 59.3085L43.0124 62.6894L40.0005 56.0387ZM27.0335 62.6894L25.3373 59.3085C25.209 59.044 25.0083 58.8215 24.7585 58.6669C24.5087 58.5124 24.2201 58.4321 23.9265 58.4355H20.8195L24.9093 53.1816C26.4307 54.443 28.172 55.4117 30.0454 56.0387L27.0335 62.6894ZM22.3413 40.9754C22.3413 38.4639 23.0851 36.0088 24.4785 33.9206C25.872 31.8324 27.8526 30.2048 30.1699 29.2437C32.4872 28.2826 35.037 28.0311 37.497 28.5211C39.957 29.0111 42.2167 30.2205 43.9902 31.9963C45.7638 33.7722 46.9716 36.0348 47.4609 38.4981C47.9502 40.9613 47.6991 43.5145 46.7393 45.8348C45.7794 48.1551 44.154 50.1383 42.0685 51.5336C39.983 52.9289 37.5311 53.6736 35.0229 53.6736C31.661 53.669 28.438 52.3297 26.0608 49.9493C23.6835 47.5689 22.3459 44.3417 22.3413 40.9754ZM27.0969 104.467C25.8368 104.463 24.6294 103.96 23.7383 103.068C22.8473 102.176 22.3451 100.967 22.3413 99.7048V94.9429H67.0124C66.7515 95.6601 66.6678 96.4297 66.7683 97.1863C66.8689 97.9428 67.1509 98.6638 67.59 99.2876C68.0292 99.9114 68.6127 100.419 69.2905 100.769C69.9683 101.118 70.7205 101.297 71.4827 101.292H82.7376C82.9785 102.45 83.483 103.536 84.2119 104.467H27.0969ZM90.5051 104.467C89.5245 104.462 88.5693 104.154 87.7694 103.586C86.9696 103.018 86.3639 102.217 86.0349 101.292H93.6756C94.0958 101.289 94.4988 101.124 94.8011 100.832L95.1815 100.435C95.0133 101.556 94.4488 102.58 93.5906 103.32C92.7325 104.06 91.6376 104.467 90.5051 104.467ZM98.4312 94.9429H96.846C96.4257 94.9461 96.0228 95.1109 95.7205 95.4033L93.0256 98.1175H80.7086C81.0792 97.1033 81.0892 95.9922 80.7369 94.9715C80.3846 93.9508 79.6915 93.083 78.7746 92.5144C79.1869 91.8059 79.4056 91.0011 79.4087 90.1811C79.4056 89.0057 78.9647 87.8737 78.1722 87.0065C78.9674 86.1411 79.4088 85.008 79.4088 83.832C79.4088 82.656 78.9674 81.5229 78.1722 80.6574C78.9647 79.7903 79.4056 78.6583 79.4087 77.4828C79.4044 76.9414 79.3079 76.4046 79.1234 75.8956H80.9939V81.832C80.9993 83.2003 81.3565 84.5441 82.0312 85.734C82.7059 86.9239 83.6753 87.9198 84.846 88.6256L86.1525 89.7367L87.7694 87.0065L86.4787 85.9113C85.7764 85.4867 85.1947 84.8886 84.7895 84.1743C84.3842 83.46 84.169 82.6535 84.1643 81.832V69.8004L84.7509 68.0544C84.9246 67.5328 85.2679 67.0844 85.7259 66.781C86.1839 66.4776 86.7302 66.3366 87.2776 66.3804C87.825 66.4243 88.342 66.6505 88.746 67.0229C89.15 67.3954 89.4177 67.8927 89.5065 68.4353L90.521 74.5623C90.5838 74.8893 90.7377 75.192 90.9649 75.4353L94.1353 78.6098C94.4375 78.9022 94.8405 79.067 95.2608 79.0701H98.4312V94.9429Z"/>
</mask>
<path d="M109.528 28.2771C109.948 28.2771 110.351 28.1099 110.649 27.8122C110.946 27.5145 111.113 27.1108 111.113 26.6898V20.3407C111.113 18.2358 110.278 16.2172 108.791 14.7288C107.305 13.2405 105.289 12.4043 103.187 12.4043H38.1934C36.0912 12.4043 34.0752 13.2405 32.5888 14.7288C31.1024 16.2172 30.2673 18.2358 30.2673 20.3407V25.8327C27.808 26.6057 25.5741 27.9679 23.7597 29.8013C21.9452 31.6346 20.605 33.8835 19.8553 36.353C19.1056 38.8225 18.969 41.4379 19.4575 43.9722C19.946 46.5065 21.0447 48.8831 22.6583 50.8959L16.3334 59.0545C16.1519 59.2884 16.0394 59.5684 16.0086 59.8629C15.9778 60.1574 16.0299 60.4547 16.159 60.7212C16.2915 60.9869 16.495 61.2107 16.7468 61.3676C16.9987 61.5245 17.2891 61.6084 17.5857 61.61H22.9437L25.6861 67.0862C25.8161 67.3493 26.0172 67.5707 26.2666 67.725C26.516 67.8793 26.8037 67.9605 27.0969 67.9592H27.1286C27.4275 67.9499 27.7179 67.8574 27.9671 67.6919C28.2164 67.5265 28.4146 67.2947 28.5395 67.0227L30.2673 63.2291V91.7684H20.7561C20.3357 91.7684 19.9325 91.9356 19.6352 92.2333C19.3379 92.531 19.1709 92.9347 19.1709 93.3557V99.7048C19.1709 101.81 20.0059 103.828 21.4924 105.317C22.9788 106.805 24.9948 107.641 27.0969 107.641H90.5051C92.6073 107.641 94.6233 106.805 96.1097 105.317C97.5961 103.828 98.4312 101.81 98.4312 99.7048V98.1175C98.4312 98.5385 98.5982 98.9422 98.8955 99.2399C99.1928 99.5376 99.596 99.7048 100.016 99.7048H109.528C109.948 99.7048 110.351 99.5376 110.649 99.2399C110.946 98.9422 111.113 98.5385 111.113 98.1175V75.8956C111.113 75.4746 110.946 75.0709 110.649 74.7732C110.351 74.4755 109.948 74.3083 109.528 74.3083H100.016C99.596 74.3083 99.1928 74.4755 98.8955 74.7732C98.5982 75.0709 98.4312 75.4746 98.4312 75.8956V28.2771H109.528ZM98.4312 20.3407C98.4312 19.0778 98.9322 17.8666 99.8241 16.9736C100.716 16.0806 101.926 15.5789 103.187 15.5789C104.448 15.5789 105.658 16.0806 106.55 16.9736C107.441 17.8666 107.942 19.0778 107.942 20.3407V25.1026H98.4312V20.3407ZM101.602 77.4828H107.942V96.5302H101.602V77.4828ZM33.4377 20.3407C33.4415 19.0789 33.9437 17.8699 34.8348 16.9777C35.7258 16.0855 36.9332 15.5826 38.1934 15.5789H96.8935C95.8396 16.9424 95.2656 18.6165 95.2608 20.3407V75.2448L93.5646 73.5464L92.6293 67.9115C92.4246 66.6692 91.81 65.5313 90.8838 64.6796C89.9575 63.8279 88.773 63.3115 87.5194 63.2128C86.2657 63.1141 85.0151 63.4389 83.9674 64.1352C82.9196 64.8315 82.1351 65.8593 81.739 67.0544L81.0732 69.0385C81.0237 69.2034 80.997 69.3743 80.9939 69.5464V72.721H69.8975C68.6374 72.7248 67.4299 73.2277 66.5389 74.1199C65.6479 75.0121 65.1456 76.2211 65.1419 77.4828C65.1449 78.6583 65.5858 79.7903 66.3783 80.6574C65.5831 81.5229 65.1418 82.656 65.1418 83.832C65.1418 85.008 65.5831 86.1411 66.3783 87.0065C65.5858 87.8737 65.1449 89.0057 65.1419 90.1811C65.1461 90.7226 65.2426 91.2594 65.4272 91.7684H33.4377V56.7688C33.9609 56.8164 34.484 56.8482 35.0229 56.8482C35.6269 56.8438 36.2301 56.8067 36.8301 56.7371L41.5064 67.0227C41.6313 67.2947 41.8295 67.5265 42.0788 67.6919C42.328 67.8574 42.6184 67.9499 42.9173 67.9592H42.949C43.2422 67.9605 43.5298 67.8793 43.7793 67.725C44.0287 67.5707 44.2298 67.3493 44.3598 67.0862L47.1022 61.61H52.4602C52.7568 61.6084 53.0472 61.5245 53.2991 61.3676C53.5509 61.2107 53.7544 60.9869 53.8869 60.7212C54.016 60.4547 54.0681 60.1574 54.0373 59.8629C54.0064 59.5684 53.894 59.2884 53.7125 59.0545L47.3875 50.8959C49.2575 48.5632 50.4307 45.7487 50.7718 42.7771C51.1129 39.8055 50.608 36.7979 49.3153 34.1013C48.0226 31.4047 45.9948 29.129 43.466 27.5368C40.9371 25.9445 38.0102 25.1007 35.0229 25.1026C34.484 25.1026 33.9609 25.1343 33.4377 25.1819V20.3407ZM69.8975 82.2447H74.6531C75.0735 82.2447 75.4767 82.4119 75.774 82.7096C76.0713 83.0073 76.2383 83.411 76.2383 83.832C76.2383 84.2529 76.0713 84.6567 75.774 84.9544C75.4767 85.252 75.0735 85.4193 74.6531 85.4193H69.8975C69.4771 85.4193 69.0738 85.252 68.7766 84.9544C68.4793 84.6567 68.3123 84.2529 68.3123 83.832C68.3123 83.411 68.4793 83.0073 68.7766 82.7096C69.0738 82.4119 69.4771 82.2447 69.8975 82.2447ZM68.3123 77.4828C68.3123 77.0619 68.4793 76.6581 68.7766 76.3605C69.0738 76.0628 69.4771 75.8956 69.8975 75.8956H74.6531C75.0735 75.8956 75.4767 76.0628 75.774 76.3605C76.0713 76.6581 76.2383 77.0619 76.2383 77.4828C76.2383 77.9038 76.0713 78.3076 75.774 78.6052C75.4767 78.9029 75.0735 79.0701 74.6531 79.0701H69.8975C69.4771 79.0701 69.0738 78.9029 68.7766 78.6052C68.4793 78.3076 68.3123 77.9038 68.3123 77.4828ZM69.8975 88.5938H74.6531C75.0735 88.5938 75.4767 88.761 75.774 89.0587C76.0713 89.3564 76.2383 89.7601 76.2383 90.1811C76.2383 90.6021 76.0713 91.0058 75.774 91.3035C75.4767 91.6012 75.0735 91.7684 74.6531 91.7684H69.8975C69.4771 91.7684 69.0738 91.6012 68.7766 91.3035C68.4793 91.0058 68.3123 90.6021 68.3123 90.1811C68.3123 89.7601 68.4793 89.3564 68.7766 89.0587C69.0738 88.761 69.4771 88.5938 69.8975 88.5938ZM71.4827 94.9429H76.2383C76.6587 94.9429 77.0619 95.1102 77.3592 95.4079C77.6565 95.7055 77.8235 96.1093 77.8235 96.5302C77.8235 96.9512 77.6565 97.3549 77.3592 97.6526C77.0619 97.9503 76.6587 98.1175 76.2383 98.1175H71.4827C71.0623 98.1175 70.6591 97.9503 70.3618 97.6526C70.0645 97.3549 69.8975 96.9512 69.8975 96.5302C69.8975 96.1093 70.0645 95.7055 70.3618 95.4079C70.6591 95.1102 71.0623 94.9429 71.4827 94.9429ZM40.0005 56.0387C41.8739 55.4117 43.6152 54.443 45.1366 53.1816L49.2264 58.4355H46.1194C45.8258 58.4321 45.5372 58.5124 45.2874 58.6669C45.0376 58.8215 44.8369 59.044 44.7086 59.3085L43.0124 62.6894L40.0005 56.0387ZM27.0335 62.6894L25.3373 59.3085C25.209 59.044 25.0083 58.8215 24.7585 58.6669C24.5087 58.5124 24.2201 58.4321 23.9265 58.4355H20.8195L24.9093 53.1816C26.4307 54.443 28.172 55.4117 30.0454 56.0387L27.0335 62.6894ZM22.3413 40.9754C22.3413 38.4639 23.0851 36.0088 24.4785 33.9206C25.872 31.8324 27.8526 30.2048 30.1699 29.2437C32.4872 28.2826 35.037 28.0311 37.497 28.5211C39.957 29.0111 42.2167 30.2205 43.9902 31.9963C45.7638 33.7722 46.9716 36.0348 47.4609 38.4981C47.9502 40.9613 47.6991 43.5145 46.7393 45.8348C45.7794 48.1551 44.154 50.1383 42.0685 51.5336C39.983 52.9289 37.5311 53.6736 35.0229 53.6736C31.661 53.669 28.438 52.3297 26.0608 49.9493C23.6835 47.5689 22.3459 44.3417 22.3413 40.9754ZM27.0969 104.467C25.8368 104.463 24.6294 103.96 23.7383 103.068C22.8473 102.176 22.3451 100.967 22.3413 99.7048V94.9429H67.0124C66.7515 95.6601 66.6678 96.4297 66.7683 97.1863C66.8689 97.9428 67.1509 98.6638 67.59 99.2876C68.0292 99.9114 68.6127 100.419 69.2905 100.769C69.9683 101.118 70.7205 101.297 71.4827 101.292H82.7376C82.9785 102.45 83.483 103.536 84.2119 104.467H27.0969ZM90.5051 104.467C89.5245 104.462 88.5693 104.154 87.7694 103.586C86.9696 103.018 86.3639 102.217 86.0349 101.292H93.6756C94.0958 101.289 94.4988 101.124 94.8011 100.832L95.1815 100.435C95.0133 101.556 94.4488 102.58 93.5906 103.32C92.7325 104.06 91.6376 104.467 90.5051 104.467ZM98.4312 94.9429H96.846C96.4257 94.9461 96.0228 95.1109 95.7205 95.4033L93.0256 98.1175H80.7086C81.0792 97.1033 81.0892 95.9922 80.7369 94.9715C80.3846 93.9508 79.6915 93.083 78.7746 92.5144C79.1869 91.8059 79.4056 91.0011 79.4087 90.1811C79.4056 89.0057 78.9647 87.8737 78.1722 87.0065C78.9674 86.1411 79.4088 85.008 79.4088 83.832C79.4088 82.656 78.9674 81.5229 78.1722 80.6574C78.9647 79.7903 79.4056 78.6583 79.4087 77.4828C79.4044 76.9414 79.3079 76.4046 79.1234 75.8956H80.9939V81.832C80.9993 83.2003 81.3565 84.5441 82.0312 85.734C82.7059 86.9239 83.6753 87.9198 84.846 88.6256L86.1525 89.7367L87.7694 87.0065L86.4787 85.9113C85.7764 85.4867 85.1947 84.8886 84.7895 84.1743C84.3842 83.46 84.169 82.6535 84.1643 81.832V69.8004L84.7509 68.0544C84.9246 67.5328 85.2679 67.0844 85.7259 66.781C86.1839 66.4776 86.7302 66.3366 87.2776 66.3804C87.825 66.4243 88.342 66.6505 88.746 67.0229C89.15 67.3954 89.4177 67.8927 89.5065 68.4353L90.521 74.5623C90.5838 74.8893 90.7377 75.192 90.9649 75.4353L94.1353 78.6098C94.4375 78.9022 94.8405 79.067 95.2608 79.0701H98.4312V94.9429Z" fill="#435586"/>
<path d="M109.528 28.2771C109.948 28.2771 110.351 28.1099 110.649 27.8122C110.946 27.5145 111.113 27.1108 111.113 26.6898V20.3407C111.113 18.2358 110.278 16.2172 108.791 14.7288C107.305 13.2405 105.289 12.4043 103.187 12.4043H38.1934C36.0912 12.4043 34.0752 13.2405 32.5888 14.7288C31.1024 16.2172 30.2673 18.2358 30.2673 20.3407V25.8327C27.808 26.6057 25.5741 27.9679 23.7597 29.8013C21.9452 31.6346 20.605 33.8835 19.8553 36.353C19.1056 38.8225 18.969 41.4379 19.4575 43.9722C19.946 46.5065 21.0447 48.8831 22.6583 50.8959L16.3334 59.0545C16.1519 59.2884 16.0394 59.5684 16.0086 59.8629C15.9778 60.1574 16.0299 60.4547 16.159 60.7212C16.2915 60.9869 16.495 61.2107 16.7468 61.3676C16.9987 61.5245 17.2891 61.6084 17.5857 61.61H22.9437L25.6861 67.0862C25.8161 67.3493 26.0172 67.5707 26.2666 67.725C26.516 67.8793 26.8037 67.9605 27.0969 67.9592H27.1286C27.4275 67.9499 27.7179 67.8574 27.9671 67.6919C28.2164 67.5265 28.4146 67.2947 28.5395 67.0227L30.2673 63.2291V91.7684H20.7561C20.3357 91.7684 19.9325 91.9356 19.6352 92.2333C19.3379 92.531 19.1709 92.9347 19.1709 93.3557V99.7048C19.1709 101.81 20.0059 103.828 21.4924 105.317C22.9788 106.805 24.9948 107.641 27.0969 107.641H90.5051C92.6073 107.641 94.6233 106.805 96.1097 105.317C97.5961 103.828 98.4312 101.81 98.4312 99.7048V98.1175C98.4312 98.5385 98.5982 98.9422 98.8955 99.2399C99.1928 99.5376 99.596 99.7048 100.016 99.7048H109.528C109.948 99.7048 110.351 99.5376 110.649 99.2399C110.946 98.9422 111.113 98.5385 111.113 98.1175V75.8956C111.113 75.4746 110.946 75.0709 110.649 74.7732C110.351 74.4755 109.948 74.3083 109.528 74.3083H100.016C99.596 74.3083 99.1928 74.4755 98.8955 74.7732C98.5982 75.0709 98.4312 75.4746 98.4312 75.8956V28.2771H109.528ZM98.4312 20.3407C98.4312 19.0778 98.9322 17.8666 99.8241 16.9736C100.716 16.0806 101.926 15.5789 103.187 15.5789C104.448 15.5789 105.658 16.0806 106.55 16.9736C107.441 17.8666 107.942 19.0778 107.942 20.3407V25.1026H98.4312V20.3407ZM101.602 77.4828H107.942V96.5302H101.602V77.4828ZM33.4377 20.3407C33.4415 19.0789 33.9437 17.8699 34.8348 16.9777C35.7258 16.0855 36.9332 15.5826 38.1934 15.5789H96.8935C95.8396 16.9424 95.2656 18.6165 95.2608 20.3407V75.2448L93.5646 73.5464L92.6293 67.9115C92.4246 66.6692 91.81 65.5313 90.8838 64.6796C89.9575 63.8279 88.773 63.3115 87.5194 63.2128C86.2657 63.1141 85.0151 63.4389 83.9674 64.1352C82.9196 64.8315 82.1351 65.8593 81.739 67.0544L81.0732 69.0385C81.0237 69.2034 80.997 69.3743 80.9939 69.5464V72.721H69.8975C68.6374 72.7248 67.4299 73.2277 66.5389 74.1199C65.6479 75.0121 65.1456 76.2211 65.1419 77.4828C65.1449 78.6583 65.5858 79.7903 66.3783 80.6574C65.5831 81.5229 65.1418 82.656 65.1418 83.832C65.1418 85.008 65.5831 86.1411 66.3783 87.0065C65.5858 87.8737 65.1449 89.0057 65.1419 90.1811C65.1461 90.7226 65.2426 91.2594 65.4272 91.7684H33.4377V56.7688C33.9609 56.8164 34.484 56.8482 35.0229 56.8482C35.6269 56.8438 36.2301 56.8067 36.8301 56.7371L41.5064 67.0227C41.6313 67.2947 41.8295 67.5265 42.0788 67.6919C42.328 67.8574 42.6184 67.9499 42.9173 67.9592H42.949C43.2422 67.9605 43.5298 67.8793 43.7793 67.725C44.0287 67.5707 44.2298 67.3493 44.3598 67.0862L47.1022 61.61H52.4602C52.7568 61.6084 53.0472 61.5245 53.2991 61.3676C53.5509 61.2107 53.7544 60.9869 53.8869 60.7212C54.016 60.4547 54.0681 60.1574 54.0373 59.8629C54.0064 59.5684 53.894 59.2884 53.7125 59.0545L47.3875 50.8959C49.2575 48.5632 50.4307 45.7487 50.7718 42.7771C51.1129 39.8055 50.608 36.7979 49.3153 34.1013C48.0226 31.4047 45.9948 29.129 43.466 27.5368C40.9371 25.9445 38.0102 25.1007 35.0229 25.1026C34.484 25.1026 33.9609 25.1343 33.4377 25.1819V20.3407ZM69.8975 82.2447H74.6531C75.0735 82.2447 75.4767 82.4119 75.774 82.7096C76.0713 83.0073 76.2383 83.411 76.2383 83.832C76.2383 84.2529 76.0713 84.6567 75.774 84.9544C75.4767 85.252 75.0735 85.4193 74.6531 85.4193H69.8975C69.4771 85.4193 69.0738 85.252 68.7766 84.9544C68.4793 84.6567 68.3123 84.2529 68.3123 83.832C68.3123 83.411 68.4793 83.0073 68.7766 82.7096C69.0738 82.4119 69.4771 82.2447 69.8975 82.2447ZM68.3123 77.4828C68.3123 77.0619 68.4793 76.6581 68.7766 76.3605C69.0738 76.0628 69.4771 75.8956 69.8975 75.8956H74.6531C75.0735 75.8956 75.4767 76.0628 75.774 76.3605C76.0713 76.6581 76.2383 77.0619 76.2383 77.4828C76.2383 77.9038 76.0713 78.3076 75.774 78.6052C75.4767 78.9029 75.0735 79.0701 74.6531 79.0701H69.8975C69.4771 79.0701 69.0738 78.9029 68.7766 78.6052C68.4793 78.3076 68.3123 77.9038 68.3123 77.4828ZM69.8975 88.5938H74.6531C75.0735 88.5938 75.4767 88.761 75.774 89.0587C76.0713 89.3564 76.2383 89.7601 76.2383 90.1811C76.2383 90.6021 76.0713 91.0058 75.774 91.3035C75.4767 91.6012 75.0735 91.7684 74.6531 91.7684H69.8975C69.4771 91.7684 69.0738 91.6012 68.7766 91.3035C68.4793 91.0058 68.3123 90.6021 68.3123 90.1811C68.3123 89.7601 68.4793 89.3564 68.7766 89.0587C69.0738 88.761 69.4771 88.5938 69.8975 88.5938ZM71.4827 94.9429H76.2383C76.6587 94.9429 77.0619 95.1102 77.3592 95.4079C77.6565 95.7055 77.8235 96.1093 77.8235 96.5302C77.8235 96.9512 77.6565 97.3549 77.3592 97.6526C77.0619 97.9503 76.6587 98.1175 76.2383 98.1175H71.4827C71.0623 98.1175 70.6591 97.9503 70.3618 97.6526C70.0645 97.3549 69.8975 96.9512 69.8975 96.5302C69.8975 96.1093 70.0645 95.7055 70.3618 95.4079C70.6591 95.1102 71.0623 94.9429 71.4827 94.9429ZM40.0005 56.0387C41.8739 55.4117 43.6152 54.443 45.1366 53.1816L49.2264 58.4355H46.1194C45.8258 58.4321 45.5372 58.5124 45.2874 58.6669C45.0376 58.8215 44.8369 59.044 44.7086 59.3085L43.0124 62.6894L40.0005 56.0387ZM27.0335 62.6894L25.3373 59.3085C25.209 59.044 25.0083 58.8215 24.7585 58.6669C24.5087 58.5124 24.2201 58.4321 23.9265 58.4355H20.8195L24.9093 53.1816C26.4307 54.443 28.172 55.4117 30.0454 56.0387L27.0335 62.6894ZM22.3413 40.9754C22.3413 38.4639 23.0851 36.0088 24.4785 33.9206C25.872 31.8324 27.8526 30.2048 30.1699 29.2437C32.4872 28.2826 35.037 28.0311 37.497 28.5211C39.957 29.0111 42.2167 30.2205 43.9902 31.9963C45.7638 33.7722 46.9716 36.0348 47.4609 38.4981C47.9502 40.9613 47.6991 43.5145 46.7393 45.8348C45.7794 48.1551 44.154 50.1383 42.0685 51.5336C39.983 52.9289 37.5311 53.6736 35.0229 53.6736C31.661 53.669 28.438 52.3297 26.0608 49.9493C23.6835 47.5689 22.3459 44.3417 22.3413 40.9754ZM27.0969 104.467C25.8368 104.463 24.6294 103.96 23.7383 103.068C22.8473 102.176 22.3451 100.967 22.3413 99.7048V94.9429H67.0124C66.7515 95.6601 66.6678 96.4297 66.7683 97.1863C66.8689 97.9428 67.1509 98.6638 67.59 99.2876C68.0292 99.9114 68.6127 100.419 69.2905 100.769C69.9683 101.118 70.7205 101.297 71.4827 101.292H82.7376C82.9785 102.45 83.483 103.536 84.2119 104.467H27.0969ZM90.5051 104.467C89.5245 104.462 88.5693 104.154 87.7694 103.586C86.9696 103.018 86.3639 102.217 86.0349 101.292H93.6756C94.0958 101.289 94.4988 101.124 94.8011 100.832L95.1815 100.435C95.0133 101.556 94.4488 102.58 93.5906 103.32C92.7325 104.06 91.6376 104.467 90.5051 104.467ZM98.4312 94.9429H96.846C96.4257 94.9461 96.0228 95.1109 95.7205 95.4033L93.0256 98.1175H80.7086C81.0792 97.1033 81.0892 95.9922 80.7369 94.9715C80.3846 93.9508 79.6915 93.083 78.7746 92.5144C79.1869 91.8059 79.4056 91.0011 79.4087 90.1811C79.4056 89.0057 78.9647 87.8737 78.1722 87.0065C78.9674 86.1411 79.4088 85.008 79.4088 83.832C79.4088 82.656 78.9674 81.5229 78.1722 80.6574C78.9647 79.7903 79.4056 78.6583 79.4087 77.4828C79.4044 76.9414 79.3079 76.4046 79.1234 75.8956H80.9939V81.832C80.9993 83.2003 81.3565 84.5441 82.0312 85.734C82.7059 86.9239 83.6753 87.9198 84.846 88.6256L86.1525 89.7367L87.7694 87.0065L86.4787 85.9113C85.7764 85.4867 85.1947 84.8886 84.7895 84.1743C84.3842 83.46 84.169 82.6535 84.1643 81.832V69.8004L84.7509 68.0544C84.9246 67.5328 85.2679 67.0844 85.7259 66.781C86.1839 66.4776 86.7302 66.3366 87.2776 66.3804C87.825 66.4243 88.342 66.6505 88.746 67.0229C89.15 67.3954 89.4177 67.8927 89.5065 68.4353L90.521 74.5623C90.5838 74.8893 90.7377 75.192 90.9649 75.4353L94.1353 78.6098C94.4375 78.9022 94.8405 79.067 95.2608 79.0701H98.4312V94.9429Z" stroke="#435586" mask="url(#path-2-outside-1)"/>
<path d="M34.4681 50.5641H34.4684C36.3443 50.5641 38.178 50.0071 39.7377 48.9636C41.2974 47.9201 42.5129 46.437 43.2307 44.7018C43.9485 42.9666 44.1363 41.0573 43.7704 39.2153C43.4045 37.3732 42.5012 35.6812 41.1749 34.3531C39.8485 33.0249 38.1586 32.1205 36.3187 31.754C34.4789 31.3876 32.5719 31.5757 30.8388 32.2944C29.1058 33.0132 27.6245 34.2304 26.5824 35.7921C25.5403 37.3537 24.9841 39.1897 24.9841 41.0678L24.9841 41.0681C24.9866 43.5857 25.9866 45.9996 27.7646 47.7799C29.5426 49.5603 31.9535 50.5616 34.4681 50.5641ZM34.4684 35.1536C35.6364 35.1536 36.7783 35.5005 37.7495 36.1503C38.7208 36.8001 39.4779 37.7237 39.9249 38.8045C40.372 39.8852 40.489 41.0744 40.2611 42.2217C40.0331 43.369 39.4706 44.4228 38.6446 45.2499C37.8185 46.077 36.7662 46.6402 35.6206 46.8684C34.4749 47.0966 33.2875 46.9795 32.2083 46.5319C31.1291 46.0843 30.2067 45.3263 29.5577 44.3537C28.9086 43.3811 28.5622 42.2376 28.5622 41.0678C28.5622 39.4992 29.1845 37.9949 30.2922 36.8858C31.3999 35.7767 32.9021 35.1536 34.4684 35.1536Z" fill="#435586" stroke="#435586" stroke-width="0.5"/>
<path d="M56.6306 29.7224H56.3806V29.9724V32.7463V32.9963H56.6306H89.8739H90.1239V32.7463V29.9724V29.7224H89.8739H56.6306Z" fill="#435586" stroke="#435586" stroke-width="0.5"/>
<path d="M56.6306 38.0442H56.3806V38.2942V41.0681V41.3181H56.6306H89.8739H90.1239V41.0681V38.2942V38.0442H89.8739H56.6306Z" fill="#435586" stroke="#435586" stroke-width="0.5"/>
<path d="M56.6306 45.4412H56.3806V45.6912V48.4651V48.7151H56.6306H89.8739H90.1239V48.4651V45.6912V45.4412H89.8739H56.6306Z" fill="#435586" stroke="#435586" stroke-width="0.5"/>
<path d="M56.6306 52.8381H56.3806V53.0881V55.862V56.112H56.6306H89.8739H90.1239V55.862V53.0881V52.8381H89.8739H56.6306Z" fill="#435586" stroke="#435586" stroke-width="0.5"/>
</svg>
