<?xml version="1.0" encoding="utf-8"?>
<!-- Generator: Adobe Illustrator 23.0.3, SVG Export Plug-In . SVG Version: 6.00 Build 0)  -->
<svg version="1.1" id="Layer_1" xmlns="http://www.w3.org/2000/svg" xmlns:xlink="http://www.w3.org/1999/xlink" x="0px" y="0px"
	 viewBox="0 0 256 122.84" style="enable-background:new 0 0 256 122.84;" xml:space="preserve">
<style type="text/css">
	.st0{fill:#1D1D1B;}
	.st1{fill:#FFFFFF;}
</style>
<g>
	<path class="st1" d="M133.67,2.06c0.18,0.12,0.38,0.1,0.57,0.11c0.91,0.02,1.82,0.04,2.73,0.05c0.94,0.01,1.87,0.03,2.8,0.1
		c0.39,0.03,0.79,0.04,1.18,0.04c0.74,0.02,1.48,0.03,2.21,0.11c0.27,0.03,0.54,0.03,0.81,0.04c0.64,0.02,1.28,0.04,1.92,0.11
		c0.29,0.03,0.59,0.03,0.88,0.05c0.44,0.03,0.88,0.06,1.33,0.09c0.07,0.01,0.15,0.02,0.22,0.02c0.98,0.06,1.96,0.13,2.95,0.19
		c0.25,0.02,0.49,0.04,0.73,0.07c0.12,0.01,0.24,0.03,0.37,0.04c0.83,0.06,1.67,0.12,2.5,0.19c0.73,0.06,1.47,0.15,2.2,0.22
		c0.15,0.01,0.29,0.04,0.44,0.05c0.86,0.06,1.71,0.17,2.57,0.27c0.63,0.08,1.27,0.13,1.91,0.2c0.59,0.07,1.17,0.14,1.76,0.22
		c0.46,0.06,0.93,0.12,1.39,0.18c0.9,0.11,1.81,0.22,2.71,0.34c0.85,0.12,1.7,0.25,2.55,0.38c0.73,0.11,1.46,0.22,2.19,0.33
		c0.83,0.13,1.65,0.26,2.47,0.4c0.68,0.11,1.36,0.23,2.03,0.35c0.94,0.17,1.89,0.33,2.83,0.51c1.13,0.22,2.27,0.44,3.4,0.67
		c1.49,0.31,2.98,0.61,4.47,0.95c1.99,0.45,3.97,0.92,5.95,1.43c7.55,1.93,14.97,4.26,22.19,7.23c4.51,1.85,8.9,3.93,13.13,6.37
		c2.97,1.71,5.83,3.58,8.53,5.68c2.32,1.8,4.49,3.76,6.46,5.94c1.79,1.98,3.36,4.11,4.63,6.46c1.03,1.91,1.84,3.92,2.33,6.04
		c0.12,0.53,0.25,1.05,0.26,1.6c0,0.15,0.02,0.3,0.14,0.41c0,1.92,0,3.84,0,5.76c-0.07,0.13-0.13,0.26-0.14,0.42
		c-0.01,0.75-0.21,1.46-0.4,2.17c-0.57,2.21-1.47,4.27-2.61,6.24c-1.14,1.97-2.5,3.78-4,5.48c-2.01,2.27-4.26,4.3-6.65,6.16
		c-1.88,1.47-3.85,2.82-5.88,4.09c-0.1,0.07-0.21,0.13-0.32,0.19c-0.02,0.01-0.06,0-0.07-0.01c-0.03-0.03-0.07-0.08-0.07-0.11
		c0.06-0.64,0.12-1.27,0.17-1.87c0.11-0.23,0.3-0.3,0.46-0.41c1.53-0.99,3.02-2.04,4.46-3.15c2.34-1.81,4.54-3.78,6.51-5.99
		c1.67-1.88,3.15-3.91,4.33-6.14c0.9-1.7,1.6-3.48,2.05-5.36c0.48-1.98,0.64-3.98,0.49-6.01c-0.18-2.43-0.81-4.75-1.8-6.97
		c-0.96-2.15-2.21-4.12-3.66-5.96c-1.59-2.02-3.38-3.84-5.31-5.53c-2.78-2.44-5.8-4.56-8.96-6.49c-3.85-2.35-7.86-4.37-11.99-6.18
		c-4.96-2.17-10.04-4.02-15.2-5.63c-4.25-1.33-8.54-2.49-12.87-3.51c-2.22-0.53-4.46-1.01-6.69-1.48c-1.78-0.37-3.57-0.71-5.36-1.03
		c-1.28-0.23-2.57-0.43-3.85-0.65c-1.09-0.18-2.18-0.37-3.27-0.54c-0.85-0.13-1.71-0.23-2.56-0.35c-0.9-0.13-1.8-0.27-2.7-0.39
		c-0.98-0.13-1.95-0.23-2.93-0.34c-0.61-0.07-1.22-0.16-1.83-0.23c-0.54-0.06-1.08-0.12-1.61-0.18c-0.44-0.05-0.88-0.1-1.32-0.14
		c-0.73-0.07-1.47-0.12-2.21-0.19c-0.78-0.07-1.57-0.15-2.35-0.23c-0.05,0-0.1-0.01-0.15-0.02c-0.88-0.06-1.77-0.13-2.65-0.19
		c-0.27-0.02-0.54-0.04-0.81-0.07c-0.22-0.02-0.44-0.04-0.66-0.06c-0.61-0.04-1.23-0.09-1.84-0.13c-1.2-0.07-2.41-0.13-3.61-0.19
		c-0.47-0.02-0.93-0.05-1.4-0.08c-0.47-0.02-0.93-0.04-1.4-0.06c-0.79-0.03-1.57-0.06-2.36-0.1c-0.32-0.01-0.64-0.03-0.96-0.04
		c-1.77-0.04-3.54-0.08-5.32-0.11c-3.47-0.06-6.94-0.06-10.41,0.05c-1.13,0.04-2.26,0.04-3.4,0.06c-0.47,0.01-0.93,0.04-1.4,0.06
		c-0.15,0.01-0.29,0.02-0.44,0.03c-1.63,0.01-3.25,0.15-4.87,0.2c-0.37,0.01-0.74,0.04-1.11,0.07c-0.1,0.01-0.2,0.02-0.29,0.03
		c-1.11,0.06-2.21,0.13-3.32,0.19c-0.32,0.02-0.64,0.05-0.96,0.07c-0.1,0.01-0.2,0.03-0.29,0.03c-0.91,0.06-1.82,0.12-2.72,0.19
		c-0.34,0.03-0.68,0.08-1.03,0.11c-0.78,0.07-1.57,0.12-2.35,0.19c-0.71,0.07-1.42,0.15-2.13,0.22c-0.59,0.06-1.17,0.13-1.76,0.19
		c-0.81,0.08-1.61,0.16-2.42,0.28c-0.58,0.08-1.17,0.13-1.76,0.2c-0.56,0.07-1.12,0.15-1.68,0.23c-0.44,0.06-0.88,0.12-1.32,0.18
		c-1.34,0.17-2.68,0.36-4.01,0.58c-1.07,0.17-2.14,0.32-3.21,0.49c-0.99,0.16-1.99,0.35-2.98,0.52c-0.87,0.16-1.74,0.32-2.61,0.48
		c-1.11,0.21-2.22,0.41-3.33,0.64c-1.37,0.28-2.74,0.57-4.11,0.88c-2.06,0.48-4.12,0.96-6.16,1.48c-3.12,0.8-6.22,1.67-9.29,2.63
		c-5.61,1.75-11.12,3.78-16.48,6.2c-3.7,1.67-7.31,3.53-10.77,5.65c-2.61,1.59-5.12,3.32-7.48,5.26c-2.31,1.89-4.46,3.95-6.34,6.27
		c-1.48,1.82-2.76,3.77-3.77,5.89c-0.86,1.81-1.48,3.7-1.81,5.67c-0.22,1.31-0.3,2.64-0.25,3.97c0.11,3.1,0.96,6.01,2.35,8.77
		c1.1,2.19,2.5,4.18,4.09,6.04c1.77,2.06,3.74,3.91,5.84,5.63c1.78,1.45,3.63,2.78,5.56,4.03c0.21,0.13,0.41,0.27,0.61,0.42
		c0.03,0.02,0.02,0.08,0.03,0.13c-0.15,0-0.29,0-0.44,0c-0.32-0.01-0.37,0.04-0.35,0.39c0.01,0.22,0.04,0.44,0.05,0.66
		c0,0.07,0,0.15-0.02,0.22c-0.01,0.03-0.08,0.08-0.11,0.07c-0.13-0.05-0.27-0.11-0.39-0.19c-2.92-1.88-5.71-3.94-8.28-6.28
		c-2.21-2.01-4.23-4.19-5.95-6.64c-1.39-1.98-2.56-4.09-3.39-6.36c-0.55-1.51-0.96-3.05-1.18-4.64c-0.06-0.44-0.11-0.88-0.14-1.32
		c-0.02-0.27-0.06-0.54-0.09-0.81C4,53.02,3.93,52.87,3.83,52.72c0-0.25,0-0.49,0-0.74c0.05-0.11,0.13-0.21,0.15-0.33
		c0.05-0.29,0.09-0.58,0.11-0.88c0.11-1.75,0.48-3.46,1.01-5.12c0.65-2,1.55-3.88,2.65-5.67c1.42-2.29,3.11-4.37,4.99-6.29
		c2.5-2.56,5.28-4.8,8.22-6.84c3.34-2.31,6.86-4.33,10.49-6.16c4.24-2.13,8.61-3.97,13.07-5.61c4.8-1.77,9.67-3.29,14.61-4.62
		c2.47-0.67,4.94-1.29,7.43-1.86c1.94-0.45,3.88-0.88,5.84-1.25c1.67-0.32,3.32-0.66,4.99-0.97c1.28-0.24,2.57-0.43,3.85-0.65
		c1.09-0.18,2.18-0.37,3.27-0.54c0.83-0.13,1.66-0.23,2.48-0.35c0.51-0.07,1.02-0.16,1.53-0.23c0.54-0.07,1.07-0.14,1.61-0.2
		c0.54-0.07,1.07-0.13,1.61-0.2c0.71-0.09,1.42-0.17,2.12-0.25c0.66-0.08,1.32-0.16,1.98-0.24c0.49-0.06,0.98-0.11,1.47-0.16
		c0.71-0.07,1.42-0.13,2.13-0.19c0.24-0.02,0.49-0.05,0.73-0.07c0.22-0.02,0.44-0.04,0.66-0.06c0.37-0.03,0.73-0.07,1.1-0.1
		c0.05,0,0.1-0.01,0.15-0.02c0.86-0.06,1.72-0.12,2.58-0.19c0.29-0.02,0.59-0.05,0.88-0.07c0.2-0.02,0.39-0.04,0.59-0.05
		c0.62-0.02,1.23-0.08,1.84-0.12c1.15-0.08,2.31-0.13,3.46-0.19c0.47-0.03,0.93-0.05,1.4-0.08c0.25-0.01,0.49-0.04,0.74-0.04
		c2.34-0.06,4.67-0.21,7.01-0.2c0.32,0,0.64-0.01,0.96-0.02c0.15,0,0.29-0.02,0.43-0.1C125.89,2.06,129.78,2.06,133.67,2.06z"/>
	<path class="st1" d="M123.18,120.52c-0.05-0.05-0.1-0.11-0.16-0.13c-0.18-0.07-0.37-0.12-0.56-0.19c-1.85-0.66-2.6-2.25-2.67-3.62
		c-0.04-0.78,0.09-1.52,0.45-2.21c0.59-1.14,1.51-1.84,2.76-2.12c0.41-0.09,0.82-0.16,1.24-0.13c1.53,0.11,2.73,0.77,3.45,2.15
		c0.39,0.73,0.52,1.53,0.43,2.36c-0.05,0.42-0.11,0.83-0.26,1.22c-0.45,1.14-1.26,1.91-2.4,2.34c-0.21,0.08-0.42,0.13-0.63,0.2
		c-0.06,0.02-0.11,0.09-0.17,0.13C124.17,120.52,123.68,120.52,123.18,120.52z M121.7,116.01c-0.03,0.67,0.08,1.35,0.3,2.01
		c0.11,0.33,0.26,0.64,0.46,0.92c0.21,0.3,0.47,0.56,0.81,0.74c0.81,0.42,1.6,0.23,2.15-0.36c0.17-0.18,0.3-0.39,0.41-0.61
		c0.15-0.34,0.26-0.69,0.32-1.05c0.14-0.81,0.11-1.62-0.02-2.42c-0.08-0.49-0.23-0.96-0.47-1.39c-0.18-0.33-0.41-0.61-0.72-0.83
		c-0.71-0.5-1.69-0.47-2.35,0.23c-0.1,0.11-0.2,0.22-0.27,0.35c-0.12,0.21-0.24,0.43-0.32,0.66
		C121.77,114.81,121.68,115.39,121.7,116.01z"/>
	<path class="st1" d="M94.82,120.52c-0.05-0.05-0.1-0.11-0.16-0.13c-0.18-0.07-0.37-0.12-0.56-0.19c-1.83-0.65-2.61-2.24-2.68-3.62
		c-0.04-0.78,0.09-1.52,0.45-2.21c0.58-1.14,1.51-1.84,2.76-2.12c0.41-0.09,0.82-0.16,1.24-0.13c1.5,0.11,2.68,0.74,3.42,2.08
		c0.4,0.73,0.54,1.52,0.47,2.35c-0.03,0.34-0.07,0.68-0.18,1.01c-0.41,1.32-1.27,2.18-2.56,2.64c-0.18,0.07-0.38,0.11-0.56,0.18
		c-0.06,0.02-0.11,0.09-0.17,0.13C95.81,120.52,95.32,120.52,94.82,120.52z M93.34,116.04c-0.02,0.66,0.08,1.31,0.29,1.94
		c0.11,0.33,0.26,0.64,0.45,0.93c0.17,0.25,0.36,0.47,0.61,0.63c0.54,0.36,1.12,0.49,1.75,0.22c0.4-0.17,0.69-0.47,0.9-0.84
		c0.24-0.41,0.37-0.85,0.45-1.32c0.13-0.79,0.1-1.57-0.02-2.35c-0.07-0.46-0.21-0.91-0.43-1.33c-0.16-0.31-0.37-0.58-0.63-0.81
		c-0.73-0.63-1.87-0.63-2.57,0.21c-0.22,0.27-0.39,0.57-0.51,0.89C93.42,114.8,93.32,115.4,93.34,116.04z"/>
	<path class="st1" d="M105.16,120.52c-0.25-0.18-0.55-0.21-0.83-0.29c-0.38-0.11-0.74-0.25-1.08-0.45
		c-0.94-0.56-1.52-1.37-1.79-2.42c-0.19-0.74-0.16-1.47,0.04-2.19c0.25-0.91,0.79-1.63,1.56-2.17c0.51-0.36,1.08-0.59,1.68-0.72
		c0.85-0.19,1.7-0.24,2.56-0.05c0.33,0.07,0.67,0.13,1,0.19c0.05,0.08,0.11,0.14,0.12,0.2c0.13,0.55,0.19,1.11,0.25,1.67
		c0.01,0.09-0.06,0.16-0.18,0.2c-0.1,0.03-0.2,0.03-0.27-0.05c-0.03-0.03-0.06-0.08-0.08-0.12c-0.07-0.16-0.13-0.32-0.21-0.47
		c-0.57-1.06-1.65-1.29-2.51-1.1c-0.65,0.14-1.16,0.51-1.54,1.06c-0.36,0.52-0.55,1.1-0.62,1.72c-0.11,0.82-0.02,1.62,0.27,2.4
		c0.13,0.35,0.31,0.67,0.54,0.96c0.66,0.79,1.51,1.07,2.51,0.9c0.34-0.06,0.64-0.25,0.9-0.48c0.24-0.21,0.45-0.46,0.62-0.73
		c0.09-0.14,0.18-0.29,0.28-0.43c0.05-0.08,0.17-0.12,0.26-0.1c0.12,0.03,0.23,0.17,0.21,0.27c-0.01,0.07-0.01,0.15-0.04,0.22
		c-0.15,0.44-0.31,0.88-0.47,1.32c-0.07,0.2-0.22,0.31-0.44,0.35c-0.34,0.06-0.68,0.13-1.01,0.21c-0.09,0.02-0.18,0.08-0.27,0.12
		C106.15,120.52,105.66,120.52,105.16,120.52z"/>
	<path class="st1" d="M140.68,47.7c0.03,0.05,0.06,0.12,0.09,0.12c0.22,0.02,0.44,0.03,0.66,0.03c2.68,0,5.37,0,8.05,0
		c0.22,0,0.44,0.01,0.66,0.02c0.06,0,0.1,0.12,0.06,0.18c-0.07,0.1-0.13,0.21-0.21,0.3c-0.66,0.85-1.33,1.71-2,2.56
		c-0.08,0.1-0.16,0.19-0.25,0.3c-0.7,0.06-1.42-0.01-2.14,0.04c-0.18,0.18-0.27,0.41-0.38,0.62c-0.62,1.26-0.82,1.74-0.96,2.25
		c0.22,0.1,0.46,0.15,0.69,0.22c0.69,0.21,1.32,0.53,1.89,0.97c0.92,0.71,1.36,1.66,1.44,2.8c0.07,0.92-0.04,1.82-0.32,2.7
		c-0.38,1.15-0.92,2.23-1.66,3.19c-0.61,0.79-1.34,1.44-2.2,1.94c-0.89,0.52-1.84,0.83-2.87,0.82c-0.42,0-0.83,0-1.24,0
		c-0.15,0.09-0.18,0.24-0.24,0.37c-0.16,0.39-0.32,0.77-0.46,1.17c-0.22,0.59-0.63,0.99-1.19,1.25c-0.31,0.15-0.63,0.28-0.94,0.42
		c-0.06,0.02-0.08,0.06-0.05,0.12c0.01,0.02,0.03,0.03,0.05,0.03c0.05,0.01,0.1,0.02,0.15,0.02c0.07,0,0.15,0,0.22,0
		c2.29,0,4.58,0,6.87-0.01c0.66,0,1.33-0.05,1.99-0.08c0.27-0.01,0.54-0.03,0.81-0.04c0.47-0.02,0.93-0.05,1.4-0.11
		c0.59-0.06,1.17-0.12,1.76-0.19c0.86-0.1,1.7-0.24,2.55-0.39c0.51-0.09,1.01-0.2,1.52-0.31c0.12-0.03,0.24,0.04,0.28,0.17
		c0.08,0.26,0.16,0.52,0.22,0.78c0.03,0.13-0.02,0.24-0.14,0.31c-0.04,0.02-0.08,0.05-0.12,0.08c-3.15,1.93-6.38,3.7-9.77,5.18
		c-1.83,0.8-3.68,1.51-5.6,2.05c-1.23,0.34-2.48,0.62-3.74,0.84c-1,0.17-2,0.26-3,0.38c-0.22,0.03-0.44,0.03-0.66,0.03
		c-1.87,0.07-3.74,0.03-5.61-0.02c-0.25-0.01-0.49-0.03-0.74-0.05c-0.39-0.03-0.79-0.05-1.18-0.08c-0.39-0.03-0.78-0.06-1.18-0.1
		c-0.1-0.01-0.2-0.03-0.29-0.03c-1.13-0.05-2.25-0.21-3.38-0.35c-1.15-0.15-2.29-0.32-3.43-0.52c-1.36-0.24-2.7-0.51-4.05-0.79
		c-1.99-0.42-3.99-0.86-5.98-1.28c-1.23-0.26-2.45-0.51-3.68-0.77c-0.5-0.11-1.01-0.23-1.51-0.35c-0.13-0.03-0.24-0.02-0.36,0.03
		c-0.2,0.09-0.4,0.18-0.6,0.28c-2.71,1.25-5.49,2.29-8.36,3.07c-1.21,0.33-2.44,0.59-3.68,0.78c-1.49,0.23-2.99,0.28-4.49,0.17
		c-0.84-0.06-1.65-0.26-2.42-0.6c-0.47-0.21-0.91-0.48-1.31-0.82c-0.11-0.09-0.22-0.19-0.33-0.3c-0.77-0.75-1.03-1.66-0.84-2.7
		c0.16-0.9,0.57-1.67,1.19-2.33c0.51-0.54,1.11-0.97,1.75-1.34c0.75-0.43,1.54-0.76,2.36-1.05c1.05-0.36,2.12-0.64,3.2-0.88
		c1.1-0.25,2.21-0.49,3.32-0.69c0.8-0.14,1.6-0.29,2.41-0.37c0.61-0.06,1.22-0.15,1.83-0.23c0.05-0.01,0.1-0.01,0.15-0.02
		c2.09-0.18,4.18-0.24,6.27-0.12c0.64,0.04,1.28,0.06,1.92,0.08c0.98,0.04,1.97,0.08,2.95,0.11c0.93,0.03,1.87,0.04,2.81,0.05
		c0.1,0,0.2-0.01,0.31-0.02c0.14-0.13,0.29-0.26,0.43-0.39c1.3-1.24,2.51-2.57,3.64-3.97c0.21-0.27,0.42-0.55,0.62-0.83
		c2.37-3.39,4.74-6.78,7.11-10.16c0.13-0.18,0.24-0.37,0.36-0.55c0.05-0.08-0.02-0.21-0.12-0.21c-0.12-0.01-0.25-0.02-0.37-0.02
		c-0.34,0-0.69,0-1.03,0c-1.23,0-2.46,0-3.69,0c-0.14,0-0.29-0.03-0.43-0.05c-0.03-0.01-0.06-0.08-0.06-0.12
		c0-0.05,0.01-0.1,0.04-0.14c0.69-1.05,1.38-2.1,2.07-3.14c0.04-0.06,0.11-0.1,0.18-0.17c0.23,0,0.47,0,0.72,0c1.5,0,3,0,4.5,0
		c0.2,0,0.39,0.01,0.59-0.01c0.09-0.01,0.19-0.06,0.26-0.11c0.08-0.06,0.14-0.14,0.21-0.21c3.94-4.35,8.44-8.04,13.39-11.18
		c2.58-1.64,5.25-3.1,7.99-4.43c0.18-0.09,0.35-0.18,0.53-0.27c0.06-0.03,0.13-0.07,0.11-0.15c0-0.02-0.09-0.04-0.13-0.03
		c-0.26,0.06-0.53,0.12-0.79,0.18c-1.31,0.31-2.64,0.59-3.96,0.85c-1.04,0.2-2.08,0.36-3.13,0.53c-0.58,0.09-1.17,0.12-1.76,0.2
		c-0.86,0.12-1.72,0.13-2.58,0.19c-0.98,0.07-1.97,0.08-2.95,0c-0.17-0.01-0.34-0.03-0.52-0.03c-1.16-0.02-2.3-0.2-3.45-0.35
		c-0.53-0.07-1.06-0.2-1.59-0.32c-1.59-0.33-3.17-0.66-4.76-1c-1.49-0.32-2.98-0.64-4.47-0.96c-0.96-0.21-1.92-0.44-2.88-0.62
		c-1.28-0.24-2.58-0.41-3.88-0.44c-1.29-0.03-2.56,0.1-3.79,0.46c-1.38,0.41-2.63,1.09-3.76,1.98c-1.03,0.81-1.92,1.76-2.73,2.79
		c-0.51,0.66-0.98,1.35-1.41,2.07c-1.61,2.72-2.92,5.58-3.84,8.6c-0.42,1.37-0.74,2.76-0.95,4.17c-0.19,1.27-0.3,2.54-0.3,3.82
		c0,0.81,0.08,1.62,0.26,2.42c0.32,1.43,0.98,2.67,2.05,3.68c0.58,0.55,1.24,0.97,2.01,1.19c0.67,0.19,1.34,0.26,2.04,0.18
		c1.89-0.19,3.47-1.02,4.86-2.27c0.72-0.64,1.35-1.37,1.92-2.14c1.84-2.46,3.27-5.14,4.35-8.02c0.91-2.42,1.58-4.91,2.09-7.45
		c0.22-1.11,0.35-2.24,0.42-3.37c0.02-0.34,0-0.69-0.02-1.03c-0.03-0.64-0.08-1.28-0.12-1.92c-0.01-0.12,0.01-0.25,0.02-0.37
		c0.03-0.24,0.18-0.4,0.39-0.5c0.12-0.06,0.24-0.05,0.36,0.01c0.18,0.09,0.33,0.22,0.45,0.37c1.11,1.35,1.92,2.85,2.23,4.59
		c0.14,0.83,0.18,1.66,0.17,2.5c-0.02,1.56-0.31,3.08-0.76,4.57c-1.27,4.13-3.33,7.82-6.32,10.96c-0.93,0.98-1.92,1.9-3.02,2.71
		c-1.29,0.96-2.69,1.72-4.24,2.19c-1.38,0.42-2.79,0.61-4.23,0.49c-1.94-0.16-3.67-0.88-5.15-2.16c-1.92-1.65-3.11-3.72-3.6-6.2
		c-0.13-0.68-0.2-1.36-0.22-2.05c-0.04-1.7,0.08-3.39,0.46-5.06c0.29-1.25,0.74-2.45,1.27-3.61c1.47-3.23,3.43-6.13,5.87-8.71
		c3.4-3.61,7.36-6.44,11.91-8.43c1.9-0.83,3.85-1.49,5.87-1.93c0.74-0.16,1.49-0.29,2.25-0.39c1.59-0.2,3.19-0.27,4.79-0.16
		c0.32,0.02,0.64,0.02,0.96,0.04c0.32,0.02,0.64,0.05,0.96,0.08c0.54,0.07,1.08,0.11,1.61,0.18c1,0.14,1.99,0.33,2.97,0.54
		c2.5,0.52,4.96,1.23,7.41,1.93c1.72,0.49,3.45,0.97,5.18,1.45c1.23,0.34,2.48,0.59,3.74,0.81c1.29,0.22,2.6,0.23,3.9,0.17
		c0.42-0.02,0.83-0.12,1.23-0.21c1.06-0.23,2.11-0.46,3.15-0.78c0.14-0.04,0.29-0.06,0.43-0.08c0.27-0.03,0.58,0.24,0.52,0.57
		c-0.06,0.32-0.15,0.62-0.32,0.9c-0.08,0.13-0.16,0.25-0.24,0.37c-0.52,0.78-1.05,1.55-1.55,2.34c-0.81,1.26-1.61,2.53-2.41,3.8
		c-0.18,0.29-0.36,0.59-0.53,0.88c-1.02,1.77-2.06,3.53-3.06,5.3c-1.02,1.8-2.21,3.49-3.53,5.09
		C140.98,47.32,140.83,47.51,140.68,47.7z M137.41,66.07c-0.14-0.06-0.22-0.1-0.32-0.13c-0.44-0.14-0.77-0.43-1.02-0.81
		c-0.11-0.16-0.22-0.33-0.3-0.5c-0.58-1.17-0.87-2.4-0.82-3.71c0.01-0.37,0.05-0.74,0.12-1.1c0.2-1,0.62-1.91,1.24-2.73
		c0.93-1.24,2.17-2.05,3.61-2.59c0.48-0.18,0.98-0.32,1.51-0.32c0.1,0,0.19-0.02,0.31-0.03c0.39-0.47,0.76-0.95,1.17-1.41
		c0.43-0.47,0.89-0.92,1.34-1.37c-0.03-0.04-0.05-0.1-0.09-0.11c-0.07-0.02-0.14-0.03-0.22-0.03c-1.94,0-3.89,0-5.83,0
		c-0.1,0-0.19,0.02-0.29,0.03c-0.18,0.22-0.35,0.42-0.52,0.63c-1.59,1.95-3.33,3.76-5.26,5.38c-1.92,1.62-3.95,3.09-6.08,4.43
		c-1,0.63-2.02,1.22-3.08,1.75c-2.17,1.1-4.33,2.21-6.5,3.32c-0.68,0.35-1.36,0.69-2.03,1.04c-0.15,0.08-0.3,0.17-0.44,0.26
		c-0.03,0.02-0.03,0.08-0.03,0.12c0,0.01,0.04,0.03,0.06,0.03c0.86,0.02,1.72,0.06,2.57,0.15c0.05,0,0.1,0,0.15,0.01
		c0.29,0.02,0.59,0.05,0.88,0.07c0.25,0.02,0.49,0.04,0.74,0.06c0.88,0.06,1.77,0.13,2.65,0.19c0.07,0.01,0.15,0.02,0.22,0.02
		c0.37,0.03,0.74,0.06,1.1,0.09c0.2,0.02,0.4,0.01,0.59,0.04c0.68,0.11,1.37,0.11,2.06,0.11c0.57,0,1.13,0,1.7,0.04
		c1.25,0.08,2.49,0.26,3.73,0.44c0.76,0.11,1.51,0.22,2.27,0.26c0.2,0.01,0.39,0.04,0.59,0.06c0.24,0.03,0.49,0.05,0.73,0.07
		c0.32,0.03,0.64,0.07,0.95,0.09c0.37,0.03,0.74,0.04,1.1,0.05c0.06,0,0.12-0.06,0.17-0.11c0.03-0.03,0.04-0.09,0.06-0.13
		c0.39-1.14,0.78-2.28,1.17-3.42C137.38,66.27,137.39,66.19,137.41,66.07z M97.77,74.02c-0.24-0.06-0.48-0.13-0.72-0.18
		c-1.2-0.26-2.41-0.48-3.62-0.64c-0.85-0.11-1.7-0.23-2.56-0.27c-0.2-0.01-0.39-0.04-0.59-0.05c-0.29-0.02-0.59-0.06-0.88-0.06
		c-1.5-0.04-3-0.06-4.5-0.02c-0.89,0.02-1.76,0.14-2.63,0.32c-0.46,0.09-0.9,0.24-1.32,0.45c-0.29,0.15-0.55,0.33-0.75,0.58
		c-0.44,0.55-0.4,1.31,0.09,1.81c0.16,0.16,0.33,0.3,0.53,0.39c0.22,0.1,0.44,0.22,0.68,0.28c0.62,0.17,1.24,0.29,1.88,0.32
		c1.8,0.08,3.58,0.04,5.36-0.27c0.92-0.16,1.83-0.33,2.74-0.55c2.01-0.48,3.96-1.12,5.9-1.84c0.11-0.04,0.23-0.09,0.33-0.15
		C97.74,74.13,97.75,74.07,97.77,74.02z M146.03,57.72c-0.03-0.24-0.05-0.63-0.12-1.02c-0.07-0.39-0.23-0.75-0.47-1.07
		c-0.32-0.43-0.74-0.72-1.25-0.87c-0.13-0.04-0.25,0.02-0.3,0.14c-0.04,0.09-0.07,0.18-0.11,0.27c-0.46,1.27-0.95,2.53-1.38,3.81
		c-0.77,2.28-1.5,4.57-2.25,6.86c-0.02,0.07-0.04,0.14-0.06,0.21c-0.02,0.09,0.06,0.2,0.14,0.22c0.53,0.11,1.02,0,1.5-0.22
		c0.52-0.25,0.95-0.61,1.34-1.02c0.4-0.43,0.76-0.9,1.08-1.4c0.58-0.92,1.02-1.9,1.36-2.94C145.81,59.77,145.98,58.83,146.03,57.72z
		 M135.59,61.95c0.05,0.83,0.29,1.8,0.82,2.68c0.09,0.15,0.19,0.29,0.31,0.41c0.12,0.12,0.26,0.22,0.41,0.31
		c0.08,0.05,0.18,0.06,0.28,0.09c0.09,0.02,0.22-0.03,0.25-0.11c0.05-0.14,0.11-0.27,0.15-0.41c0.58-1.75,1.13-3.51,1.63-5.28
		c0.41-1.44,0.93-2.85,1.6-4.19c0.04-0.09,0.08-0.18,0.13-0.27c0.04-0.09,0.03-0.19-0.03-0.19c-0.05-0.01-0.1-0.03-0.14-0.01
		c-0.29,0.14-0.58,0.27-0.85,0.43c-1.19,0.72-2.21,1.64-3.06,2.74c-0.45,0.58-0.84,1.21-1.12,1.9
		C135.75,60.59,135.59,61.15,135.59,61.95z"/>
	<path class="st1" d="M28.18,77.65c-0.1,0-0.19,0.02-0.28,0.01c-0.27-0.04-0.54-0.07-0.8-0.14c-0.16-0.04-0.32-0.12-0.47-0.21
		c-0.9-0.56-1.8-1.11-2.69-1.69c-2.06-1.35-4.04-2.81-5.91-4.42c-2.02-1.74-3.89-3.62-5.52-5.74c-1.37-1.78-2.54-3.69-3.42-5.76
		c-0.66-1.57-1.13-3.2-1.38-4.88c-0.19-1.29-0.25-2.6-0.15-3.9c0.18-2.4,0.79-4.7,1.8-6.89c0.9-1.96,2.04-3.76,3.37-5.45
		c1.47-1.86,3.12-3.55,4.9-5.11c2.65-2.33,5.52-4.35,8.54-6.19c3.45-2.1,7.04-3.92,10.73-5.57c4.43-1.97,8.96-3.66,13.57-5.16
		c4.49-1.46,9.03-2.71,13.62-3.82c2.41-0.59,4.83-1.12,7.26-1.62c1.64-0.34,3.28-0.63,4.92-0.94c1.26-0.23,2.51-0.46,3.77-0.68
		c0.75-0.13,1.51-0.23,2.26-0.35c0.8-0.13,1.6-0.26,2.4-0.38c0.49-0.07,0.97-0.13,1.46-0.2c0.54-0.08,1.07-0.16,1.61-0.23
		c0.44-0.06,0.88-0.13,1.32-0.18c0.54-0.07,1.08-0.12,1.61-0.19c0.59-0.07,1.17-0.16,1.76-0.23c0.44-0.06,0.88-0.11,1.32-0.16
		c0.64-0.07,1.27-0.13,1.91-0.19c0.71-0.07,1.42-0.15,2.13-0.23c0.07-0.01,0.15-0.03,0.22-0.03c0.76-0.06,1.52-0.12,2.28-0.19
		c0.83-0.07,1.67-0.16,2.5-0.23c0.22-0.02,0.44-0.03,0.66-0.05c0.39-0.03,0.78-0.06,1.18-0.09c0.07-0.01,0.15-0.02,0.22-0.02
		c1.01-0.06,2.01-0.13,3.02-0.19c1.25-0.08,2.51-0.16,3.76-0.23c0.1-0.01,0.2-0.02,0.29-0.02c1.55-0.06,3.1-0.12,4.65-0.18
		c0.79-0.03,1.57-0.06,2.36-0.08c1.3-0.03,2.61-0.06,3.91-0.07c4.11-0.06,8.22-0.02,12.33,0.03c0.39,0,0.79,0.02,1.18,0.03
		c1.06,0.03,2.12,0.07,3.17,0.11c0.52,0.02,1.03,0.05,1.55,0.07c0.12,0.01,0.25,0.02,0.37,0.03c1.43,0.07,2.85,0.12,4.28,0.2
		c1.15,0.06,2.31,0.15,3.46,0.23c0.05,0,0.1,0.01,0.15,0.01c0.96,0.06,1.91,0.13,2.87,0.19c0.25,0.02,0.49,0.04,0.73,0.07
		c0.25,0.02,0.49,0.04,0.74,0.07c0.37,0.03,0.73,0.06,1.1,0.1c0.07,0.01,0.15,0.02,0.22,0.03c0.76,0.06,1.52,0.12,2.28,0.19
		c0.71,0.07,1.42,0.15,2.13,0.23c0.56,0.06,1.12,0.12,1.69,0.18c0.78,0.09,1.56,0.18,2.34,0.27c0.56,0.06,1.12,0.12,1.69,0.19
		c0.54,0.06,1.07,0.13,1.61,0.21c0.51,0.07,1.02,0.15,1.53,0.22c0.95,0.14,1.9,0.27,2.85,0.41c0.78,0.11,1.56,0.23,2.33,0.35
		c0.73,0.11,1.46,0.23,2.18,0.35c0.73,0.12,1.45,0.25,2.18,0.38c0.92,0.16,1.84,0.32,2.76,0.5c0.87,0.16,1.74,0.34,2.6,0.52
		c1.3,0.26,2.6,0.51,3.9,0.8c1.85,0.41,3.69,0.84,5.53,1.29c7.57,1.87,15.01,4.15,22.24,7.08c4.27,1.73,8.43,3.67,12.44,5.94
		c2.94,1.66,5.76,3.49,8.42,5.58c2.23,1.75,4.32,3.65,6.18,5.8c1.62,1.87,3.02,3.88,4.1,6.11c0.85,1.73,1.46,3.55,1.79,5.45
		c0.23,1.31,0.31,2.64,0.26,3.97c-0.12,3.01-0.97,5.81-2.34,8.46c-0.97,1.87-2.16,3.58-3.51,5.18c-1.54,1.83-3.26,3.49-5.09,5.03
		c-2.46,2.06-5.08,3.88-7.83,5.54c-0.19,0.11-0.37,0.23-0.6,0.27c-0.34,0.07-0.67,0.16-1.02,0.11c0.02-0.06,0.03-0.12,0.06-0.14
		c0.18-0.12,0.37-0.24,0.56-0.35c2.35-1.39,4.63-2.9,6.79-4.57c2.07-1.6,4.01-3.33,5.78-5.27c1.46-1.61,2.77-3.33,3.85-5.22
		c0.97-1.7,1.73-3.48,2.2-5.38c0.32-1.29,0.52-2.6,0.54-3.94c0.01-1.13-0.02-2.26-0.21-3.38c-0.3-1.7-0.8-3.35-1.51-4.92
		c-0.92-2.03-2.11-3.89-3.5-5.62c-1.59-1.99-3.39-3.76-5.33-5.41c-2.6-2.2-5.4-4.12-8.32-5.86c-3.45-2.06-7.03-3.85-10.71-5.46
		c-4.66-2.04-9.44-3.78-14.3-5.31c-4.24-1.34-8.53-2.5-12.86-3.53c-2.2-0.52-4.41-1-6.62-1.47c-1.37-0.29-2.75-0.54-4.13-0.79
		c-1.55-0.29-3.09-0.57-4.64-0.83c-1.07-0.18-2.14-0.33-3.21-0.5c-0.83-0.13-1.65-0.26-2.48-0.38c-0.51-0.08-1.02-0.13-1.54-0.2
		c-0.54-0.07-1.07-0.15-1.61-0.23c-0.44-0.06-0.88-0.12-1.32-0.18c-0.56-0.07-1.12-0.12-1.69-0.19c-0.61-0.07-1.22-0.15-1.83-0.22
		c-0.51-0.06-1.03-0.12-1.54-0.18c-0.69-0.07-1.37-0.12-2.06-0.19c-0.73-0.07-1.47-0.15-2.2-0.23c-0.05-0.01-0.1-0.01-0.15-0.02
		c-0.81-0.06-1.62-0.13-2.43-0.19c-0.22-0.02-0.44-0.04-0.66-0.06c-0.12-0.01-0.24-0.04-0.37-0.05c-0.96-0.07-1.91-0.13-2.87-0.19
		c-0.22-0.01-0.44-0.03-0.66-0.05c-0.44-0.03-0.88-0.06-1.33-0.09c-0.42-0.03-0.83-0.06-1.25-0.08c-0.1-0.01-0.2-0.02-0.29-0.03
		c-1.33-0.06-2.66-0.12-3.98-0.19c-0.57-0.03-1.13-0.06-1.7-0.08c-0.57-0.02-1.13-0.04-1.7-0.06c-1.01-0.03-2.02-0.06-3.03-0.09
		c-0.74-0.02-1.48-0.04-2.21-0.05c-3.84-0.04-7.68-0.04-11.52,0.01c-0.66,0.01-1.33,0.04-1.99,0.07c-0.69,0.02-1.38,0.04-2.07,0.06
		c-0.89,0.02-1.77,0.03-2.66,0.1c-0.29,0.03-0.59,0.03-0.89,0.04c-0.81,0.02-1.62,0.03-2.43,0.12c-0.29,0.03-0.59,0.02-0.89,0.04
		c-0.54,0.03-1.08,0.07-1.62,0.1c-0.25,0.02-0.49,0.03-0.74,0.04c-0.54,0.04-1.08,0.07-1.62,0.11c-0.17,0.01-0.34,0.03-0.52,0.03
		c-0.54,0.02-1.08,0.04-1.62,0.12c-0.22,0.03-0.44,0.03-0.66,0.04c-0.34,0.03-0.69,0.06-1.03,0.08c-0.1,0.01-0.2,0.03-0.29,0.03
		c-0.83,0.06-1.67,0.12-2.5,0.19c-0.73,0.06-1.47,0.15-2.2,0.22c-0.1,0.01-0.2,0.03-0.29,0.03c-0.91,0.07-1.81,0.17-2.72,0.28
		c-0.63,0.08-1.27,0.13-1.91,0.2c-0.59,0.07-1.17,0.15-1.76,0.22c-0.44,0.06-0.88,0.11-1.32,0.17c-0.9,0.11-1.81,0.22-2.71,0.34
		c-0.51,0.07-1.02,0.15-1.53,0.23c-0.41,0.06-0.83,0.13-1.24,0.18c-1.22,0.17-2.43,0.36-3.64,0.57c-0.99,0.17-1.99,0.32-2.98,0.49
		c-0.9,0.15-1.79,0.32-2.68,0.49c-1.13,0.22-2.27,0.44-3.4,0.68c-1.49,0.31-2.98,0.62-4.47,0.95c-1.97,0.44-3.92,0.91-5.88,1.42
		c-7.1,1.82-14.08,4.02-20.87,6.79c-4.22,1.72-8.33,3.66-12.28,5.92c-2.67,1.53-5.25,3.2-7.69,5.08c-2.11,1.63-4.09,3.39-5.88,5.37
		c-1.34,1.48-2.55,3.06-3.58,4.78c-1.02,1.72-1.84,3.53-2.35,5.47c-0.28,1.07-0.49,2.16-0.57,3.26c-0.05,0.69-0.1,1.38-0.07,2.06
		c0.1,2.31,0.6,4.53,1.49,6.66c0.84,2.01,1.96,3.86,3.28,5.59c1.3,1.71,2.77,3.27,4.35,4.72c2.2,2.02,4.57,3.81,7.06,5.45
		c1.17,0.77,2.37,1.5,3.58,2.21C28.02,77.44,28.15,77.48,28.18,77.65z"/>
	<path class="st1" d="M176.95,36.55c-0.87,1.22-1.74,2.45-2.61,3.67c-0.03,0.04-0.06,0.08-0.09,0.12c-0.06,0.07-0.18,0.11-0.27,0.08
		c-0.13-0.06-0.27-0.1-0.38-0.19c0-0.22,0.13-0.34,0.23-0.47c0.95-1.38,1.9-2.76,2.85-4.14c0.28-0.41,0.55-0.81,0.84-1.21
		c0.49-0.68,0.87-1.43,1.19-2.2c0.25-0.61,0.49-1.23,0.74-1.85c0.05-0.11,0.11-0.21,0.16-0.31c0.24-0.08,0.46-0.06,0.68-0.04
		c0.07,0.01,0.14,0.09,0.12,0.15c-0.06,0.19-0.12,0.37-0.19,0.56c-1.32,3.6-2.64,7.2-3.96,10.8c-0.07,0.18-0.13,0.37-0.19,0.56
		c-0.01,0.02,0.01,0.05,0.02,0.07c0.02,0.05,0.06,0.05,0.11,0c0.11-0.13,0.23-0.26,0.33-0.39c0.56-0.72,1.16-1.4,1.79-2.06
		c0.54-0.57,1.12-1.1,1.76-1.57c0.28-0.21,0.57-0.39,0.89-0.52c0.35-0.14,0.71-0.2,1.08-0.12c0.55,0.11,0.79,0.61,0.54,1.13
		c-0.21,0.44-0.74,0.6-1.19,0.33c-0.17-0.1-0.19-0.28-0.26-0.43c-0.03-0.07-0.12-0.1-0.18-0.06c-0.04,0.02-0.09,0.04-0.13,0.07
		c-0.1,0.07-0.21,0.13-0.3,0.21c-0.89,0.71-1.69,1.5-2.44,2.36c-0.06,0.07-0.1,0.17-0.14,0.25c-0.01,0.02,0,0.05,0,0.08
		c0.07,0.06,0.14,0.13,0.21,0.2c0.55,0.49,0.78,1.12,0.82,1.84c0.02,0.34,0.02,0.69,0.03,1.03c0.01,0.27,0.06,0.54,0.18,0.79
		c0.13,0.27,0.5,0.42,0.82,0.34c0.29-0.07,0.48-0.34,0.48-0.66c0-0.1-0.07-0.19-0.16-0.22c-0.07-0.02-0.14-0.03-0.21-0.05
		c-0.31-0.08-0.39-0.24-0.28-0.54c0.02-0.06,0.1-0.12,0.16-0.13c0.3-0.04,0.59-0.01,0.87,0.09c0.14,0.05,0.22-0.01,0.27-0.16
		c0.01-0.02,0.02-0.04,0.03-0.07c0.21-0.75,0.6-1.4,1.05-2.02c1.03-1.4,2.26-2.6,3.72-3.55c0.43-0.28,0.88-0.54,1.37-0.72
		c0.43-0.15,0.86-0.21,1.3-0.09c0.23,0.06,0.4,0.19,0.52,0.38c0.17,0.29,0.24,0.59,0.14,0.92c-0.07,0.24-0.15,0.47-0.24,0.7
		c-0.61,1.48-1.24,2.95-1.85,4.42c-0.17,0.41-0.32,0.83-0.47,1.24c-0.05,0.15-0.05,0.29,0.06,0.42c0,0.01-0.03-0.06-0.01,0
		c0.35-0.44,0.7-0.88,1.04-1.34c0.25-0.33,0.48-0.68,0.72-1.03c0.17-0.24,0.34-0.49,0.51-0.73c0.25-0.35,0.41-0.36,0.78-0.04
		c-0.09,0.28-0.27,0.51-0.42,0.76c-0.15,0.25-0.3,0.51-0.46,0.76c-0.15,0.25-0.3,0.5-0.45,0.74c0.1,0.13,0.19,0.05,0.27,0.04
		c0.4-0.06,0.73,0.04,0.94,0.41c0.07,0.13,0.19,0.12,0.31,0.01c0.07-0.07,0.14-0.13,0.21-0.2c0.33-0.33,0.61-0.71,0.88-1.09
		c0.46-0.67,0.86-1.37,1.23-2.1c0.35-0.7,0.69-1.41,1.03-2.12c0.17-0.35,0.35-0.7,0.51-1.06c0.01-0.03-0.02-0.11-0.05-0.12
		c-0.09-0.03-0.19-0.04-0.29-0.04c-0.42,0-0.84,0-1.25-0.01c-0.1,0-0.2,0-0.29-0.03c-0.06-0.02-0.14-0.06-0.14-0.15
		c0-0.12,0-0.24,0.01-0.37c0.01-0.1,0.1-0.19,0.18-0.2c0.1-0.01,0.2-0.02,0.29-0.02c2.09,0,4.18,0,6.27,0
		c0.07,0,0.15,0.01,0.22,0.01c0.12,0.01,0.21,0.12,0.21,0.25c0,0.1-0.02,0.2-0.03,0.29c-0.01,0.09-0.11,0.19-0.19,0.19
		c-0.15,0.01-0.29,0.02-0.44,0.02c-0.7,0-0.65-0.02-0.92,0.6c-0.73,1.67-1.46,3.33-2.19,5c-0.17,0.38-0.35,0.76-0.52,1.14
		c-0.03,0.06-0.04,0.14-0.05,0.21c0,0.02,0.02,0.05,0.04,0.06c0.01,0.01,0.04,0.01,0.06,0.01c0.13-0.02,0.22-0.12,0.29-0.21
		c0.39-0.47,0.78-0.95,1.16-1.43c0.38-0.49,0.73-0.99,1.1-1.48c0.12-0.17,0.23-0.19,0.45-0.09c0.04,0.02,0.09,0.05,0.13,0.07
		c0.06,0.04,0.1,0.14,0.08,0.19c-0.05,0.08-0.1,0.17-0.15,0.25c-0.44,0.65-0.88,1.3-1.34,1.94c-0.24,0.34-0.51,0.66-0.78,0.98
		c-0.19,0.23-0.43,0.4-0.69,0.55c-0.3,0.17-0.61,0.19-0.93,0.13c-0.2-0.04-0.35-0.17-0.48-0.33c-0.29-0.38-0.37-0.81-0.21-1.25
		c0.16-0.46,0.33-0.93,0.54-1.37c0.64-1.41,1.28-2.82,1.93-4.22c0.36-0.77,0.35-0.75-0.45-0.75c-0.58,0-0.57-0.03-0.81,0.53
		c-0.32,0.74-0.64,1.49-0.99,2.22c-0.65,1.36-1.41,2.65-2.36,3.82c-0.19,0.23-0.38,0.45-0.58,0.66c-0.1,0.11-0.21,0.2-0.33,0.29
		c-0.5,0.39-1.06,0.5-1.67,0.39c-0.26-0.05-0.45-0.2-0.54-0.45c-0.05-0.14-0.09-0.27-0.14-0.41c0-0.01-0.05-0.02-0.06-0.02
		c-0.08,0.06-0.15,0.12-0.22,0.19c-0.22,0.23-0.45,0.45-0.74,0.6c-0.35,0.17-0.71,0.17-1.07,0.05c-0.17-0.06-0.29-0.18-0.37-0.34
		c-0.09-0.18-0.14-0.36-0.15-0.57c-0.02-0.38,0.07-0.73,0.19-1.08c0.04-0.14,0.11-0.26,0.17-0.41c-0.07,0-0.12-0.02-0.14,0
		c-0.45,0.46-0.88,0.93-1.33,1.38c-0.35,0.35-0.74,0.65-1.17,0.88c-0.29,0.15-0.6,0.22-0.92,0.21c-0.25-0.01-0.48-0.08-0.67-0.26
		c-0.12-0.12-0.23-0.23-0.35-0.35c-0.06,0.04-0.11,0.06-0.14,0.09c-0.49,0.52-1.11,0.59-1.77,0.48c-0.46-0.07-0.82-0.32-1.08-0.7
		c-0.24-0.35-0.39-0.74-0.46-1.16c-0.07-0.44-0.14-0.87-0.14-1.32c0-0.25-0.02-0.49-0.04-0.74c-0.01-0.1-0.05-0.19-0.07-0.28
		c-0.02-0.07-0.14-0.11-0.18-0.07c-0.06,0.07-0.13,0.15-0.19,0.22c-0.73,0.96-1.41,1.96-2,3.01c-0.12,0.21-0.24,0.43-0.37,0.64
		c-0.05,0.08-0.12,0.15-0.18,0.23c-0.35,0.05-0.7,0.03-1.04,0.02c-0.11,0-0.16-0.1-0.12-0.21c0.07-0.21,0.14-0.42,0.22-0.62
		c1-2.54,2.01-5.07,3.01-7.61c0.09-0.23,0.17-0.46,0.27-0.69c0.08-0.17,0.07-0.33,0.06-0.5c0.01,0.01,0.03,0.01,0.05,0.02
		c-0.01,0-0.02,0.01-0.04,0.01C176.94,36.58,176.95,36.57,176.95,36.55z M188.09,38.31c-0.11-0.09-0.23-0.09-0.35-0.04
		c-0.22,0.11-0.44,0.22-0.64,0.36c-0.49,0.33-0.93,0.72-1.33,1.15c-1.19,1.25-2.19,2.64-3.04,4.14c-0.21,0.36-0.36,0.75-0.53,1.13
		c-0.04,0.09-0.05,0.19-0.07,0.28c-0.03,0.18,0.15,0.34,0.32,0.27c0.16-0.07,0.32-0.13,0.46-0.23c0.22-0.15,0.44-0.31,0.64-0.49
		c0.71-0.61,1.32-1.31,1.91-2.04c0.94-1.17,1.73-2.44,2.38-3.79C187.96,38.83,188.11,38.59,188.09,38.31z"/>
	<path class="st1" d="M169.34,36.86c-0.07,0-0.17-0.04-0.2,0c-0.11,0.1-0.19,0.22-0.28,0.34c-0.64,0.9-1.28,1.8-1.93,2.7
		c-0.11,0.16-0.23,0.32-0.36,0.47c-0.04,0.04-0.14,0.07-0.2,0.05c-0.12-0.03-0.23-0.08-0.34-0.13c-0.07-0.03-0.11-0.13-0.08-0.18
		c0.13-0.21,0.26-0.42,0.4-0.62c1.13-1.64,2.25-3.29,3.4-4.92c0.61-0.87,1.12-1.79,1.49-2.79c0.19-0.51,0.4-1,0.6-1.51
		c0.08-0.21,0.23-0.31,0.46-0.28c0.1,0.01,0.2,0.01,0.29,0.01c0.16,0.01,0.22,0.1,0.17,0.24c-0.06,0.19-0.13,0.37-0.2,0.55
		c-0.97,2.63-1.95,5.25-2.92,7.88c-0.07,0.18-0.13,0.37-0.19,0.56c-0.01,0.02,0.01,0.05,0.03,0.06c0.01,0.01,0.04,0.01,0.05,0
		c0.15-0.16,0.3-0.32,0.45-0.48c0.35-0.38,0.71-0.74,1.16-1.02c0.28-0.17,0.57-0.29,0.89-0.33c0.3-0.04,0.6,0,0.87,0.1
		c0.34,0.13,0.57,0.38,0.65,0.75c0.12,0.52,0.05,1.03-0.08,1.53c-0.11,0.43-0.27,0.84-0.48,1.24c-0.87,1.72-2.07,3.16-3.61,4.32
		c-0.51,0.39-1.06,0.72-1.69,0.88c-0.1,0.02-0.19,0.07-0.28,0.07c-0.67,0.05-0.57,0.12-0.77,0.61c-0.3,0.75-0.57,1.52-0.85,2.28
		c-0.02,0.07,0.04,0.17,0.1,0.16c0.02,0,0.05,0,0.07-0.01c0.14-0.04,0.29-0.06,0.43-0.11c0.23-0.08,0.46-0.16,0.69-0.25
		c0.62-0.25,1.21-0.55,1.68-1.04c0.03-0.03,0.09-0.04,0.13-0.05c0.05-0.01,0.09,0.07,0.07,0.17c-0.05,0.27-0.09,0.53-0.16,0.79
		c-0.22,0.76-0.55,1.47-0.97,2.14c-0.16,0.25-0.35,0.48-0.57,0.67c-0.21,0.18-0.45,0.29-0.74,0.29c-0.3,0-0.59,0-0.89-0.01
		c-0.2-0.01-0.39-0.03-0.59-0.03c-0.09,0-0.22,0.01-0.27,0.07c-0.16,0.16-0.34,0.19-0.54,0.18c-0.25,0-0.49-0.01-0.74-0.01
		c-0.1,0-0.18-0.1-0.17-0.2c0.01-0.1,0.04-0.19,0.04-0.29c0-0.04-0.05-0.11-0.07-0.11c-0.46,0.04-0.85,0.22-1.14,0.59
		c-0.06,0.08-0.11,0.16-0.16,0.25c-0.18,0.36-0.17,0.71,0.03,1.06c0.07,0.13,0.17,0.24,0.26,0.36c0.37,0.46,0.73,0.93,1.1,1.39
		c0.38,0.48,0.73,0.98,1.02,1.53c0.44,0.83,0.61,1.71,0.53,2.64c-0.08,0.96-0.25,1.9-0.56,2.81c-0.31,0.91-0.73,1.77-1.28,2.57
		c-0.32,0.47-0.7,0.89-1.15,1.24c-0.67,0.51-1.43,0.75-2.27,0.71c-0.3-0.02-0.59-0.08-0.86-0.19c-0.54-0.2-0.9-0.58-1.07-1.14
		c-0.16-0.51-0.16-1.02-0.09-1.53c0.21-1.62,0.85-3.07,1.85-4.36c0.48-0.63,1.08-1.14,1.75-1.56c0.21-0.13,0.44-0.22,0.66-0.31
		c0.11-0.05,0.24-0.06,0.36,0c0.04,0.02,0.08,0.07,0.08,0.11c-0.01,0.1-0.02,0.2-0.06,0.28c-0.14,0.31-0.3,0.62-0.45,0.93
		c-0.65,1.38-1.21,2.8-1.64,4.26c-0.17,0.59-0.27,1.2-0.35,1.81c-0.04,0.3-0.01,0.59,0.11,0.87c0.09,0.21,0.3,0.34,0.53,0.31
		c0.15-0.02,0.29-0.06,0.41-0.14c0.21-0.14,0.38-0.31,0.53-0.5c0.23-0.29,0.42-0.61,0.58-0.94c0.67-1.38,1.2-2.8,1.37-4.34
		c0.02-0.15,0.05-0.29,0.07-0.44c0.09-0.55,0.01-1.07-0.2-1.59c-0.24-0.57-0.53-1.11-0.83-1.65c-0.35-0.65-0.71-1.3-1.06-1.94
		c-0.12-0.22-0.21-0.44-0.28-0.68c-0.08-0.27-0.11-0.53-0.08-0.8c0.07-0.69,0.25-1.35,0.62-1.95c0.2-0.32,0.43-0.6,0.71-0.84
		c0.34-0.3,0.72-0.52,1.15-0.63c0.24-0.06,0.47-0.12,0.71-0.18c0.04-0.06,0.09-0.12,0.12-0.19c0.36-0.89,0.71-1.78,1.06-2.67
		c0.02-0.04,0.03-0.1,0.02-0.14c-0.01-0.04-0.03-0.11-0.06-0.12c-0.13-0.06-0.27-0.1-0.41-0.15c-0.61-0.22-0.58-0.23-0.36-0.85
		c0.01-0.03,0.08-0.07,0.12-0.06c0.29,0.05,0.58,0.11,0.87,0.17c0.08,0.02,0.22-0.05,0.25-0.12c0.08-0.18,0.15-0.36,0.23-0.54
		c0.98-2.44,1.96-4.88,2.95-7.32c0.1-0.25,0.15-0.52,0.35-0.72c-0.05,0-0.07-0.03-0.05-0.08c0-0.01,0.04-0.02,0.05-0.01
		C169.38,36.79,169.38,36.83,169.34,36.86z M167.21,45.5c0.13,0.02,0.24-0.01,0.35-0.07c0.4-0.2,0.75-0.46,1.09-0.75
		c0.69-0.6,1.3-1.27,1.79-2.05c0.65-1.04,1.23-2.13,1.67-3.28c0.07-0.18,0.11-0.37,0.16-0.56c0.02-0.07,0.01-0.15,0.01-0.22
		c0-0.27-0.22-0.42-0.44-0.28c-0.23,0.14-0.46,0.29-0.66,0.47c-0.3,0.28-0.6,0.58-0.86,0.91c-1.06,1.33-2,2.73-2.6,4.34
		c-0.14,0.37-0.3,0.72-0.45,1.09c-0.04,0.09-0.07,0.18-0.09,0.28c-0.01,0.04,0.02,0.09,0.03,0.14l-0.03-0.04L167.21,45.5z"/>
	<path class="st1" d="M136.17,108.45c-1.25,0.02-2.34-0.3-3.31-1.01c-0.86-0.63-1.46-1.45-1.86-2.43c-0.26-0.64-0.4-1.31-0.48-2
		c-0.14-1.34,0-2.66,0.4-3.94c0.62-1.97,1.82-3.52,3.49-4.72c1.2-0.86,2.52-1.42,3.96-1.73c0.72-0.16,1.45-0.28,2.17-0.42
		c0.21-0.04,0.3,0.04,0.35,0.27c0.03,0.14,0.06,0.29,0.08,0.44c0.02,0.14-0.03,0.23-0.18,0.27c-0.49,0.15-0.99,0.29-1.48,0.46
		c-0.82,0.28-1.57,0.69-2.27,1.21c-1.3,0.99-2.15,2.28-2.64,3.82c-0.03,0.09-0.03,0.19-0.05,0.29c-0.01,0.06,0.1,0.13,0.16,0.1
		c0.34-0.15,0.67-0.31,1.01-0.46c0.22-0.1,0.45-0.2,0.67-0.3c0.42-0.18,0.85-0.24,1.3-0.16c0.36,0.07,0.73,0.09,1.09,0.2
		c1.68,0.52,2.71,1.63,3.06,3.36c0.35,1.74-0.04,3.33-1.15,4.72c-0.95,1.19-2.22,1.84-3.73,1.99c-0.15,0.02-0.29,0.03-0.44,0.03
		C136.27,108.46,136.19,108.45,136.17,108.45z M134.15,100.2c-0.11,0.29-0.15,0.58-0.16,0.88c-0.01,0.64-0.04,1.28,0,1.92
		c0.05,0.86,0.21,1.71,0.55,2.51c0.17,0.41,0.38,0.8,0.67,1.14c0.23,0.26,0.48,0.49,0.8,0.63c0.54,0.24,1.23,0.13,1.64-0.28
		c0.12-0.12,0.23-0.26,0.3-0.41c0.12-0.24,0.23-0.49,0.3-0.75c0.22-0.82,0.26-1.65,0.2-2.49c-0.04-0.54-0.15-1.07-0.36-1.57
		c-0.18-0.44-0.43-0.83-0.77-1.16c-0.31-0.3-0.66-0.53-1.08-0.61C135.53,99.87,134.83,99.91,134.15,100.2z"/>
	<path class="st1" d="M125.03,98.54c-0.02,1.31-0.18,2.45-0.58,3.55c-0.73,1.99-2,3.54-3.77,4.69c-1.15,0.75-2.4,1.22-3.75,1.47
		c-0.6,0.11-1.21,0.2-1.82,0.28c-0.48,0.06-0.56-0.01-0.62-0.48c-0.01-0.07-0.01-0.15-0.01-0.22c0-0.09,0.08-0.21,0.15-0.23
		c0.29-0.07,0.57-0.13,0.86-0.22c2.03-0.62,3.65-1.78,4.81-3.57c0.43-0.66,0.76-1.38,0.94-2.15c0.01-0.04-0.01-0.1-0.04-0.13
		c-0.02-0.03-0.09-0.04-0.12-0.02c-0.2,0.09-0.4,0.2-0.59,0.3c-0.2,0.1-0.39,0.2-0.59,0.3c-0.5,0.25-1.02,0.33-1.57,0.29
		c-0.54-0.04-1.07-0.12-1.58-0.32c-1.41-0.55-2.31-1.56-2.7-3c-0.45-1.66-0.07-3.17,0.94-4.52c0.86-1.15,2.01-1.84,3.43-2.12
		c0.89-0.17,1.76-0.15,2.63,0.07c1.19,0.3,2.13,0.98,2.83,1.99c0.45,0.66,0.74,1.38,0.93,2.15C124.97,97.31,125,98,125.03,98.54z
		 M121.6,98.67c-0.02-0.51-0.02-0.9-0.04-1.29c-0.05-0.76-0.2-1.51-0.45-2.23c-0.14-0.4-0.33-0.76-0.6-1.09
		c-0.27-0.33-0.62-0.56-1.03-0.67c-0.51-0.13-0.98-0.03-1.36,0.34c-0.16,0.15-0.3,0.33-0.4,0.52c-0.13,0.24-0.23,0.49-0.3,0.75
		c-0.28,0.96-0.31,1.94-0.1,2.91c0.13,0.6,0.37,1.17,0.74,1.67c0.78,1.03,2,1.34,3.22,0.85c0.15-0.06,0.24-0.18,0.25-0.33
		C121.56,99.58,121.58,99.07,121.6,98.67z"/>
	<path class="st1" d="M68.22,44.15c-0.16,0.1-0.21,0.27-0.29,0.42c-0.47,0.84-0.93,1.68-1.39,2.52c-0.07,0.13-0.15,0.25-0.23,0.38
		c-0.04,0.07-0.17,0.09-0.27,0.05c-0.11-0.05-0.22-0.1-0.28-0.25c0.09-0.18,0.19-0.38,0.29-0.57c0.86-1.61,1.71-3.21,2.58-4.81
		c0.4-0.74,0.72-1.51,0.95-2.32c0.14-0.5,0.28-0.99,0.43-1.49c0.05-0.16,0.11-0.33,0.15-0.47c0.15-0.12,0.3-0.09,0.45-0.09
		c0.2,0,0.28,0.09,0.23,0.27c-0.15,0.57-0.29,1.14-0.44,1.71c-0.8,3.04-1.6,6.09-2.4,9.13c-0.04,0.17-0.06,0.34-0.09,0.51
		c-0.02,0.04-0.03,0.08-0.05,0.12c0.02,0,0.05-0.01,0.05-0.01c0-0.04-0.01-0.08-0.01-0.12c0.05,0,0.11,0.02,0.13,0
		c0.12-0.16,0.23-0.31,0.34-0.48c0.43-0.69,0.89-1.36,1.39-2c0.35-0.45,0.73-0.86,1.14-1.25c0.21-0.2,0.44-0.39,0.71-0.52
		c0.32-0.16,0.65-0.21,1-0.11c0.15,0.04,0.26,0.13,0.34,0.26c0.22,0.35,0.18,0.77-0.11,1.09c-0.05,0.05-0.12,0.1-0.19,0.11
		c-0.12,0.02-0.24,0.02-0.37,0.01c-0.13-0.01-0.23-0.08-0.31-0.18c-0.06-0.08-0.09-0.18-0.13-0.26c-0.07-0.13-0.17-0.14-0.29-0.04
		c-0.06,0.05-0.12,0.09-0.17,0.14c-0.12,0.12-0.25,0.24-0.36,0.37c-0.53,0.59-1.02,1.2-1.48,1.84c-0.08,0.12-0.18,0.23-0.18,0.42
		c0.06,0.06,0.12,0.13,0.19,0.2c0.47,0.48,0.68,1.07,0.75,1.73c0.05,0.47,0.09,0.93,0.14,1.39c0.01,0.1,0.03,0.2,0.06,0.29
		c0.06,0.16,0.16,0.3,0.32,0.39c0.22,0.13,0.52,0.08,0.65-0.14c0.06-0.1,0.1-0.22,0.13-0.34c0.03-0.15-0.06-0.29-0.21-0.34
		c-0.05-0.02-0.1-0.02-0.14-0.03c-0.14-0.02-0.21-0.12-0.22-0.25c0-0.1,0-0.2,0.02-0.29c0.02-0.07,0.07-0.13,0.16-0.13
		c0.15,0.01,0.29,0.03,0.44,0.06c0.12,0.02,0.23,0.09,0.35,0.03c0.11-0.11,0.1-0.27,0.14-0.41c0.15-0.52,0.34-1.03,0.61-1.5
		c0.71-1.28,1.58-2.43,2.7-3.39c0.41-0.35,0.84-0.69,1.34-0.91c0.27-0.12,0.56-0.18,0.86-0.15c0.49,0.05,0.73,0.41,0.79,0.76
		c0.07,0.37,0.02,0.73-0.09,1.09c-0.25,0.8-0.5,1.6-0.74,2.4c-0.3,0.99-0.59,1.98-0.88,2.97c-0.03,0.12-0.04,0.24-0.05,0.36
		c0,0.02,0.01,0.07,0.02,0.07c0.04,0,0.1,0,0.13-0.02c0.08-0.09,0.17-0.18,0.23-0.29c0.2-0.34,0.4-0.68,0.59-1.02
		c0.28-0.52,0.56-1.04,0.84-1.56c0.1-0.18,0.35-0.19,0.5-0.03c0.03,0.03,0.06,0.09,0.05,0.13c-0.02,0.1-0.05,0.19-0.09,0.28
		c-0.15,0.34-0.31,0.67-0.46,1.01c-0.03,0.06-0.01,0.14-0.02,0.21c0.18,0,0.35,0,0.52,0c0.16,0,0.26,0.1,0.26,0.28
		c0,0.07,0,0.15-0.02,0.22c-0.01,0.04-0.06,0.09-0.1,0.1c-0.09,0.02-0.19,0.03-0.29,0.03c-0.23-0.01-0.38,0.16-0.4,0.35
		c-0.03,0.24,0.1,0.45,0.33,0.51c0.18,0.05,0.35,0.03,0.48-0.1c0.09-0.08,0.18-0.18,0.23-0.28c0.11-0.22,0.19-0.45,0.28-0.68
		c0.14-0.34,0.27-0.69,0.43-1.02c0.1-0.22,0.23-0.44,0.35-0.65c0.2-0.32,0.44-0.59,0.76-0.79c0.1-0.06,0.21-0.12,0.28-0.25
		c-0.1-0.11-0.2-0.21-0.29-0.33c-0.38-0.47-0.5-0.99-0.38-1.59c0.18-0.92,0.76-1.46,1.6-1.77c0.32-0.12,0.66-0.19,1.01-0.19
		c1.11,0,2.22,0,3.32,0c0.02,0,0.05,0.01,0.07,0.01c0.1,0.01,0.19,0.09,0.2,0.18c0.01,0.12,0.01,0.25,0,0.37
		c-0.01,0.07-0.06,0.14-0.14,0.15c-0.22,0.02-0.44,0.04-0.66,0.06c-0.06,0.13-0.12,0.23-0.16,0.35c-0.65,2.01-1.3,4.02-1.95,6.04
		c-0.03,0.09-0.05,0.19-0.07,0.29c0,0.01,0.03,0.04,0.05,0.05c0.02,0.01,0.05,0.02,0.07,0c0.08-0.06,0.16-0.11,0.22-0.19
		c0.26-0.39,0.52-0.78,0.76-1.18c0.29-0.49,0.56-0.98,0.85-1.47c0.05-0.08,0.1-0.17,0.17-0.24c0.05-0.05,0.12-0.08,0.2-0.04
		c0.04,0.03,0.09,0.04,0.13,0.06c0.08,0.05,0.15,0.18,0.12,0.24c-0.01,0.02-0.01,0.05-0.02,0.07c-0.38,0.72-0.75,1.44-1.14,2.15
		c-0.17,0.3-0.38,0.58-0.58,0.86c-0.14,0.2-0.32,0.37-0.53,0.5c-0.44,0.28-0.96,0.15-1.2-0.31c-0.21-0.41-0.24-0.85-0.14-1.29
		c0.06-0.24,0.14-0.47,0.22-0.7c0.52-1.56,1.04-3.12,1.57-4.69c0.04-0.12,0.06-0.24,0.09-0.36c0.01-0.06-0.06-0.16-0.12-0.16
		c-0.47-0.03-0.93-0.06-1.39,0.06c-0.58,0.15-0.95,0.51-1.11,1.07c-0.11,0.38-0.14,0.77-0.07,1.17c0.04,0.25,0.25,0.46,0.49,0.48
		c0.2,0.02,0.39,0.02,0.59,0.03c0.17,0.01,0.24,0.1,0.25,0.3c0,0.1,0,0.2-0.02,0.29c-0.01,0.04-0.05,0.08-0.09,0.11
		c-0.04,0.02-0.09,0.03-0.14,0.03c-0.12,0-0.25-0.01-0.37,0c-0.45,0.02-0.8,0.21-1.04,0.6c-0.21,0.34-0.36,0.7-0.52,1.06
		c-0.15,0.34-0.29,0.68-0.44,1.01c-0.08,0.18-0.19,0.34-0.3,0.51c-0.15,0.23-0.35,0.41-0.57,0.58c-0.46,0.35-0.99,0.43-1.54,0.33
		c-0.22-0.04-0.41-0.17-0.53-0.37c-0.1-0.17-0.18-0.35-0.26-0.52c-0.11,0.02-0.17,0.08-0.23,0.17c-0.14,0.21-0.29,0.4-0.49,0.54
		c-0.16,0.12-0.33,0.2-0.54,0.21c-0.43,0.01-0.78-0.24-0.85-0.65c-0.04-0.19-0.04-0.39-0.05-0.59c0-0.17,0.01-0.35,0.04-0.52
		c0.02-0.17,0.07-0.33,0.11-0.51c-0.06,0.01-0.11,0-0.13,0.02c-0.11,0.13-0.21,0.27-0.32,0.4c-0.31,0.38-0.62,0.77-0.94,1.14
		c-0.21,0.24-0.46,0.44-0.76,0.58c-0.18,0.09-0.37,0.13-0.57,0.12c-0.18,0-0.34-0.07-0.47-0.18c-0.13-0.11-0.25-0.24-0.37-0.37
		c-0.14,0-0.19,0.12-0.27,0.2c-0.47,0.51-1.4,0.43-1.88-0.01c-0.18-0.17-0.33-0.37-0.44-0.59c-0.15-0.31-0.26-0.64-0.32-0.98
		c-0.08-0.44-0.14-0.87-0.15-1.32c-0.01-0.29-0.03-0.59-0.16-0.86c-0.01-0.02-0.03-0.03-0.05-0.03c-0.02,0-0.06,0-0.07,0.02
		c-0.05,0.06-0.1,0.11-0.13,0.18c-0.52,0.9-1.02,1.8-1.42,2.75c-0.1,0.23-0.21,0.44-0.3,0.67c-0.1,0.27-0.3,0.37-0.58,0.34
		c-0.15-0.01-0.3-0.01-0.44-0.04c-0.05-0.01-0.12-0.11-0.11-0.16c0.02-0.17,0.06-0.34,0.11-0.5c0.73-2.55,1.46-5.11,2.18-7.66
		c0.03-0.12,0.08-0.24,0.09-0.36c0.01-0.09-0.02-0.19-0.03-0.29c0.04-0.01,0.08-0.01,0.12-0.02c0.01,0,0.01-0.06,0-0.06
		C68.23,44.01,68.25,44.11,68.22,44.15z M72.95,52.21c0.01,0.1,0.02,0.14,0.02,0.19c0.01,0.09,0.13,0.17,0.21,0.15
		c0.2-0.05,0.35-0.17,0.5-0.3c0.35-0.31,0.66-0.66,0.94-1.03c1.19-1.55,2.07-3.27,2.72-5.11c0.03-0.09,0.05-0.19,0.08-0.28
		c0.01-0.05,0.03-0.1,0.03-0.14c0-0.04,0-0.11-0.03-0.13c-0.06-0.03-0.13-0.07-0.2-0.06c-0.18,0.03-0.31,0.14-0.44,0.25
		c-0.44,0.36-0.82,0.77-1.16,1.23c-0.9,1.21-1.63,2.51-2.23,3.89c-0.14,0.31-0.25,0.64-0.36,0.97
		C72.99,51.96,72.97,52.11,72.95,52.21z"/>
	<path class="st1" d="M18.27,51.38c0.23-0.16,0.34-0.38,0.47-0.59c0.26-0.45,0.47-0.92,0.65-1.41c0.31-0.86,0.57-1.73,0.8-2.61
		c0.66-2.42,1.29-4.85,1.94-7.27c0.01-0.02,0.02-0.05,0.01-0.07c-0.02-0.07-0.03-0.14-0.07-0.2c-0.02-0.02-0.1-0.03-0.13-0.01
		c-0.16,0.07-0.32,0.13-0.46,0.23c-0.27,0.21-0.54,0.43-0.78,0.68c-0.61,0.61-1.16,1.27-1.66,1.97c-0.26,0.36-0.53,0.71-0.81,1.06
		c-0.15,0.2-0.28,0.19-0.5,0.01c-0.04-0.03-0.08-0.07-0.1-0.11c-0.02-0.04-0.04-0.1-0.02-0.14c0.03-0.09,0.08-0.18,0.13-0.26
		c0.58-0.92,1.23-1.78,2-2.55c0.26-0.26,0.51-0.54,0.77-0.8c0.21-0.21,0.42-0.42,0.65-0.6c0.51-0.4,1.1-0.53,1.74-0.46
		c0.28,0.03,0.51,0.16,0.71,0.36c0.23,0.23,0.37,0.52,0.44,0.84c0.1,0.48,0.2,0.96,0.29,1.45c0.3,1.75,0.59,3.49,0.88,5.24
		c0.03,0.17,0.05,0.34,0.07,0.51c0.02,0.1,0.11,0.25,0.15,0.23c0.06-0.04,0.13-0.07,0.17-0.13c0.14-0.17,0.26-0.36,0.39-0.54
		c1.4-1.97,2.79-3.93,4.19-5.9c0.27-0.38,0.55-0.75,0.88-1.09c0.28-0.28,0.58-0.53,0.93-0.73c0.36-0.2,0.73-0.3,1.13-0.25
		c0.16,0.02,0.27,0.12,0.34,0.25c0.06,0.12,0.03,0.34-0.07,0.41c-0.1,0.07-0.2,0.14-0.31,0.19c-0.17,0.07-0.28,0.2-0.38,0.34
		c-0.18,0.27-0.3,0.57-0.37,0.88c-0.12,0.5-0.24,1.01-0.34,1.51c-0.2,0.99-0.4,1.98-0.59,2.97c-0.18,0.94-0.36,1.88-0.54,2.83
		c-0.14,0.75-0.33,1.49-0.57,2.21c-0.25,0.75-0.56,1.47-1,2.13c-0.04,0.07-0.04,0.07-0.05,0.3c0.22,0.01,0.44,0.02,0.66,0.02
		c0.52,0.01,1.03,0.01,1.55,0.01c0.13,0,0.23,0.1,0.24,0.23c0.01,0.12,0.01,0.25,0,0.37c-0.01,0.11-0.13,0.22-0.25,0.22
		c-0.12,0-0.25,0.01-0.37,0.01c-1.23,0-2.46,0-3.69,0c-0.15,0-0.29-0.01-0.44-0.02c-0.08,0-0.18-0.12-0.18-0.2
		c0-0.15,0.01-0.29,0.01-0.44c0-0.09,0.07-0.15,0.14-0.15c0.24-0.02,0.49-0.03,0.74-0.03c0.34,0,0.56-0.17,0.68-0.47
		c0.08-0.2,0.16-0.41,0.21-0.63c0.18-0.69,0.35-1.38,0.52-2.07c0.13-0.52,0.27-1.05,0.38-1.58c0.24-1.16,0.47-2.31,0.7-3.47
		c0.19-0.96,0.39-1.93,0.69-2.87c0.02-0.07,0.01-0.14,0.02-0.24c-0.08,0.05-0.15,0.08-0.19,0.13c-0.12,0.15-0.24,0.31-0.35,0.47
		c-1.46,1.98-2.91,3.97-4.37,5.95c-0.04,0.06-0.09,0.12-0.13,0.18c-0.16,0.2-0.24,0.42-0.23,0.68c0.01,0.34,0,0.69-0.02,1.03
		c-0.06,0.84-0.25,1.65-0.61,2.42c-0.16,0.34-0.35,0.65-0.62,0.91c-0.16,0.16-0.34,0.28-0.56,0.35c-0.24,0.08-0.57-0.05-0.7-0.28
		c-0.1-0.18-0.15-0.36-0.16-0.56c-0.03-0.5,0.08-0.98,0.22-1.45c0.15-0.52,0.36-1.02,0.59-1.51c0.07-0.16,0.14-0.32,0.23-0.46
		c0.14-0.22,0.16-0.46,0.12-0.71c-0.05-0.32-0.1-0.63-0.15-0.95c-0.23-1.41-0.46-2.82-0.68-4.23c-0.13-0.8-0.24-1.61-0.36-2.41
		c-0.02-0.15-0.05-0.29-0.19-0.4c-0.04,0.08-0.07,0.14-0.09,0.2c-0.3,1.29-0.6,2.59-0.89,3.88c-0.34,1.51-0.72,3.01-1.17,4.5
		c-0.11,0.38-0.25,0.75-0.38,1.12c-0.33,0.91-0.83,1.73-1.43,2.48c-0.15,0.19-0.32,0.38-0.5,0.54c-0.42,0.38-0.94,0.52-1.49,0.56
		c-0.1,0.01-0.2-0.02-0.29-0.04c-0.47-0.12-0.66-0.64-0.38-1.05c0.14-0.21,0.33-0.36,0.54-0.49c0.41-0.24,0.86-0.36,1.33-0.42
		C18.04,51.39,18.17,51.39,18.27,51.38z M23.82,51.88c0.02-0.01,0.05-0.01,0.07-0.03c0.04-0.03,0.08-0.06,0.1-0.1
		c0.19-0.42,0.31-0.86,0.25-1.33c0-0.02-0.03-0.06-0.04-0.06c-0.04,0.01-0.1,0.03-0.11,0.06c-0.14,0.33-0.25,0.68-0.31,1.04
		C23.76,51.6,23.73,51.75,23.82,51.88z"/>
	<path class="st1" d="M218.61,44.01c-0.05,0.01-0.11,0-0.13,0.03c-0.14,0.14-0.27,0.28-0.41,0.42c-0.33,0.33-0.65,0.67-0.99,0.99
		c-0.3,0.29-0.64,0.53-1.02,0.73c-0.29,0.15-0.6,0.21-0.93,0.2c-0.44-0.02-0.74-0.25-0.93-0.63c-0.1-0.2-0.15-0.41-0.17-0.64
		c-0.04-0.55,0.04-1.08,0.23-1.59c0.16-0.42,0.36-0.81,0.6-1.18c1.15-1.72,2.6-3.15,4.37-4.23c0.34-0.21,0.68-0.39,1.06-0.52
		c0.4-0.14,0.81-0.2,1.23-0.11c0.4,0.09,0.7,0.4,0.75,0.81c0.03,0.25,0.02,0.49-0.07,0.73c-0.06,0.16-0.12,0.32-0.19,0.48
		c-0.62,1.48-1.24,2.95-1.85,4.43c-0.19,0.45-0.35,0.92-0.52,1.38c-0.01,0.04,0.01,0.11,0.04,0.13c0.02,0.02,0.1,0.01,0.13-0.02
		c0.1-0.08,0.19-0.16,0.27-0.25c0.24-0.31,0.49-0.62,0.71-0.94c0.44-0.62,0.87-1.25,1.31-1.88c0.1-0.14,0.21-0.16,0.39-0.11
		c0.05,0.01,0.1,0.03,0.14,0.05c0.06,0.04,0.11,0.09,0.17,0.15c-0.25,0.57-0.66,1.04-0.9,1.6c0.1,0.08,0.19,0.06,0.28,0.03
		c0.19-0.05,0.39-0.08,0.58-0.04c0.04,0.01,0.09,0.05,0.11,0.09c0.06,0.17,0.05,0.34-0.01,0.5c-0.01,0.04-0.07,0.08-0.11,0.08
		c-0.17,0.01-0.34,0.01-0.52,0.02c-0.17,0.01-0.26,0.13-0.32,0.27c-0.06,0.14-0.04,0.29,0.06,0.42c0.18,0.22,0.52,0.28,0.81,0.15
		c0.16-0.07,0.3-0.18,0.39-0.33c0.11-0.19,0.22-0.39,0.32-0.58c0.15-0.28,0.28-0.57,0.44-0.85c0.16-0.28,0.33-0.55,0.52-0.81
		c0.33-0.46,0.73-0.86,1.27-1.1c0.09-0.04,0.16-0.1,0.26-0.17c-0.15-0.15-0.29-0.28-0.42-0.43c-0.38-0.44-0.51-0.94-0.35-1.51
		c0.17-0.59,0.48-1.07,1-1.41c0.44-0.28,0.91-0.49,1.42-0.58c0.44-0.08,0.87-0.13,1.32-0.13c1.13,0.01,2.26,0,3.4,0
		c0.15,0,0.3,0,0.44,0.02c0.06,0.01,0.14,0.06,0.14,0.15c0,0.12,0.01,0.24,0,0.37c-0.01,0.13-0.1,0.21-0.24,0.22
		c-0.02,0-0.05,0-0.07,0c-0.81,0.02-0.69-0.06-1.02,0.68c-0.87,1.96-1.73,3.92-2.59,5.87c-0.06,0.13-0.11,0.27-0.15,0.41
		c-0.01,0.02,0.01,0.06,0.02,0.06c0.04,0.01,0.1,0.03,0.13,0.01c0.13-0.11,0.28-0.21,0.38-0.34c0.32-0.38,0.63-0.76,0.92-1.15
		c0.31-0.41,0.61-0.83,0.92-1.25c0.1-0.14,0.21-0.28,0.31-0.41c0.11-0.13,0.21-0.15,0.39-0.08c0.05,0.02,0.09,0.04,0.13,0.07
		c0.09,0.05,0.14,0.17,0.08,0.25c-0.65,1.01-1.28,2.05-2.09,2.95c-0.21,0.24-0.44,0.47-0.71,0.64c-0.25,0.17-0.53,0.25-0.84,0.24
		c-0.42,0-0.7-0.21-0.86-0.58c-0.13-0.3-0.18-0.61-0.1-0.94c0.07-0.31,0.18-0.61,0.32-0.9c0.68-1.5,1.37-3,2.05-4.5
		c0.11-0.25,0.22-0.49,0.33-0.74c0.05-0.13-0.02-0.27-0.14-0.28c-0.57-0.03-1.13-0.03-1.69,0.06c-0.9,0.15-1.44,0.77-1.57,1.54
		c-0.02,0.15-0.05,0.29-0.07,0.44c-0.01,0.1,0,0.2,0.02,0.29c0.06,0.32,0.28,0.54,0.6,0.56c0.27,0.02,0.54,0.02,0.81,0.03
		c0.12,0,0.22,0.11,0.21,0.25c-0.01,0.12-0.01,0.25-0.04,0.36c-0.02,0.06-0.09,0.13-0.15,0.14c-0.12,0.02-0.24,0-0.37,0
		c-0.22-0.01-0.44,0.02-0.66,0.06c-0.36,0.06-0.64,0.25-0.86,0.52c-0.28,0.34-0.5,0.73-0.72,1.12c-0.22,0.39-0.44,0.77-0.67,1.15
		c-0.21,0.34-0.49,0.61-0.8,0.86c-0.66,0.52-1.42,0.64-2.23,0.53c-0.25-0.04-0.46-0.18-0.6-0.39c-0.08-0.12-0.14-0.26-0.2-0.39
		c-0.03-0.06-0.06-0.12-0.09-0.17c-0.18,0.03-0.25,0.18-0.35,0.28c-0.19,0.19-0.38,0.38-0.62,0.52c-0.36,0.22-0.75,0.23-1.14,0.12
		c-0.22-0.06-0.38-0.23-0.45-0.45c-0.09-0.26-0.14-0.52-0.09-0.8c0.05-0.27,0.07-0.54,0.18-0.79c0.04-0.08,0.02-0.19,0.03-0.29
		c0.08,0,0.16-0.01,0.05-0.1C218.63,43.89,218.59,43.96,218.61,44.01z M221.08,38.33c-0.02-0.02-0.03-0.04-0.05-0.05
		c-0.09-0.06-0.19-0.05-0.28-0.02c-0.26,0.09-0.48,0.24-0.71,0.39c-0.49,0.34-0.92,0.73-1.33,1.16c-1.17,1.24-2.16,2.62-3,4.1
		c-0.17,0.3-0.31,0.61-0.45,0.93c-0.07,0.16-0.1,0.33-0.14,0.49c-0.02,0.08,0.05,0.23,0.12,0.25c0.07,0.02,0.15,0.03,0.21,0.01
		c0.28-0.09,0.53-0.25,0.76-0.44c0.41-0.32,0.79-0.67,1.14-1.05c1.41-1.5,2.57-3.17,3.46-5.03c0.1-0.2,0.18-0.41,0.26-0.61
		C221.09,38.44,221.08,38.38,221.08,38.33z"/>
	<path class="st1" d="M155.23,43.34c-0.25,0.07-0.47,0.05-0.69,0.04c-0.09-0.01-0.18-0.09-0.19-0.19c-0.01-0.1-0.01-0.2-0.02-0.29
		c-0.04-0.32-0.06-0.64-0.14-0.95c-0.23-0.89-0.76-1.53-1.65-1.85c-0.35-0.13-0.72-0.17-1.09-0.17c-0.8,0.01-1.55,0.22-2.24,0.65
		c-0.53,0.33-0.82,0.81-0.96,1.42c-0.21,0.96,0.19,2.28,1.27,2.93c0.49,0.3,1.01,0.51,1.58,0.58c0.12,0.01,0.24,0.03,0.37,0.05
		c1,0.14,1.97-0.01,2.88-0.42c1.48-0.68,2.39-1.84,2.8-3.41c0.14-0.55,0.18-1.12,0.16-1.68c-0.01-0.27-0.06-0.54-0.14-0.8
		c-0.18-0.63-0.56-1.08-1.15-1.37c-0.16-0.08-0.33-0.1-0.5-0.06c-0.05,0.01-0.1,0.03-0.14,0.04c-0.73,0.26-1.5,0.26-2.26,0.23
		c-0.28-0.01-0.53-0.1-0.79-0.18c-0.02-0.01-0.04-0.02-0.06-0.03c-0.2-0.11-0.37-0.26-0.39-0.5c-0.02-0.24,0.12-0.42,0.32-0.55
		c0.32-0.2,0.68-0.3,1.05-0.33c0.74-0.06,1.48-0.05,2.19,0.2c0.35,0.13,0.67,0.08,1-0.06c0.28-0.12,0.52-0.27,0.74-0.47
		c0.76-0.7,1.16-1.58,1.21-2.6c0.02-0.29-0.01-0.59-0.15-0.86c-0.26-0.53-0.7-0.83-1.25-0.94c-1.35-0.25-2.6,0.01-3.66,0.91
		c-0.28,0.24-0.55,0.5-0.78,0.78c-0.4,0.5-0.77,1.02-1.15,1.53c-0.11,0.15-0.22,0.19-0.38,0.13c-0.07-0.02-0.14-0.05-0.2-0.09
		c-0.06-0.03-0.13-0.07-0.18-0.11c-0.03-0.17,0.05-0.29,0.12-0.43c0.25-0.51,0.5-1.01,0.75-1.52c0.36-0.73,0.67-1.48,0.85-2.27
		c0.03-0.12,0.07-0.24,0.11-0.35c0.04-0.1,0.11-0.16,0.22-0.17c0.15-0.01,0.29-0.01,0.44,0c0.13,0,0.22,0.12,0.2,0.26
		c-0.05,0.29-0.11,0.58-0.16,0.87c-0.01,0.06,0.09,0.14,0.15,0.11c0.05-0.02,0.09-0.04,0.13-0.06c0.09-0.04,0.18-0.08,0.27-0.12
		c1.12-0.42,2.27-0.6,3.47-0.41c0.46,0.08,0.92,0.17,1.35,0.35c0.16,0.07,0.31,0.15,0.46,0.24c0.88,0.51,1.26,1.27,1.18,2.28
		c-0.06,0.76-0.36,1.43-0.83,2.01c-0.42,0.52-0.94,0.93-1.55,1.23c-0.24,0.12-0.49,0.23-0.73,0.35c0,0.05-0.01,0.12,0.02,0.14
		c0.09,0.08,0.2,0.14,0.3,0.21c0.26,0.19,0.53,0.36,0.77,0.57c0.73,0.66,1.11,1.48,1.1,2.48c0,0.63-0.14,1.22-0.4,1.79
		c-0.47,1.06-1.22,1.9-2.15,2.58c-0.97,0.7-2.05,1.14-3.24,1.34c-0.96,0.17-1.91,0.15-2.86-0.04c-0.78-0.16-1.5-0.48-2.11-1
		c-1.07-0.92-1.43-2.09-1.18-3.45c0.1-0.51,0.35-0.97,0.7-1.36c0.48-0.55,1.08-0.92,1.77-1.16c0.98-0.34,1.98-0.39,2.98-0.13
		c1.34,0.35,2.14,1.26,2.45,2.59c0.09,0.38,0.1,0.78,0.12,1.17C155.32,43.12,155.25,43.24,155.23,43.34z M154.41,37.31
		c-0.4-0.11-0.79-0.12-1.17-0.08c-0.02,0-0.04,0.03-0.06,0.04c0.03,0.03,0.05,0.08,0.08,0.08c0.32,0,0.63,0,0.95,0
		C154.27,37.35,154.34,37.33,154.41,37.31z"/>
	<path class="st1" d="M99.11,94.25c0-0.15-0.01-0.32,0-0.49c0-0.04,0.04-0.1,0.08-0.11c0.14-0.05,0.28-0.11,0.42-0.13
		c1.46-0.23,2.88-0.61,4.31-0.97c0.24-0.06,0.47-0.12,0.72-0.19c0.04,0.06,0.11,0.11,0.12,0.17c0.02,0.14,0.03,0.29,0.03,0.44
		c0,0.79,0,1.57,0,2.36c0,3.12,0,6.25,0,9.37c0,0.39,0.02,0.79,0.04,1.18c0.01,0.12,0.02,0.25,0.05,0.37
		c0.09,0.38,0.31,0.67,0.69,0.8c0.23,0.08,0.47,0.13,0.71,0.17c0.14,0.03,0.29,0.03,0.44,0.05c0.12,0.01,0.21,0.13,0.22,0.26
		c0,0.05,0.01,0.1,0.01,0.15c0.01,0.42-0.04,0.46-0.45,0.47c-0.15,0-0.3,0-0.44,0c-1.97,0-3.94,0-5.9,0c-0.22,0-0.44-0.01-0.66-0.02
		c-0.12-0.01-0.21-0.11-0.21-0.25c0-0.12,0-0.25,0-0.37c0.01-0.11,0.11-0.23,0.24-0.24c0.15-0.02,0.29-0.04,0.44-0.04
		c0.28-0.01,0.53-0.1,0.78-0.2c0.29-0.11,0.5-0.33,0.58-0.63c0.06-0.24,0.11-0.48,0.14-0.72c0.02-0.24,0.02-0.49,0.02-0.74
		c0-2.95,0-5.9,0-8.85c0-0.22,0-0.44-0.01-0.66c-0.01-0.15-0.04-0.29-0.08-0.43c-0.07-0.26-0.25-0.43-0.52-0.47
		c-0.46-0.06-0.93-0.1-1.39-0.15C99.35,94.37,99.23,94.37,99.11,94.25z"/>
	<path class="st1" d="M154.28,92.39c0.02,0.08,0.06,0.14,0.06,0.21c0.01,0.25,0.01,0.49,0.01,0.74c0,3.79,0,7.58,0,11.37
		c0,0.3-0.01,0.59,0.01,0.89c0.02,0.24,0.06,0.49,0.11,0.73c0.08,0.37,0.31,0.61,0.65,0.74c0.25,0.09,0.51,0.18,0.79,0.19
		c0.15,0,0.29,0.03,0.44,0.06c0.06,0.02,0.13,0.08,0.15,0.14c0.07,0.19,0.04,0.39,0,0.58c-0.01,0.04-0.07,0.07-0.11,0.09
		c-0.07,0.02-0.14,0.04-0.22,0.04c-0.22,0.01-0.44,0.01-0.66,0.01c-1.87,0-3.74,0-5.61,0c-0.15,0-0.3,0-0.44,0
		c-0.64,0-0.64-0.06-0.58-0.69c0.01-0.09,0.11-0.18,0.2-0.19c0.15-0.02,0.29-0.02,0.44-0.05c0.22-0.04,0.43-0.08,0.64-0.15
		c0.44-0.13,0.7-0.44,0.78-0.89c0.05-0.29,0.07-0.59,0.09-0.88c0.01-0.17,0.01-0.34,0.01-0.52c0-2.85,0-5.71,0-8.56
		c0-0.39,0-0.79-0.08-1.18c-0.06-0.29-0.25-0.49-0.54-0.53c-0.41-0.06-0.83-0.09-1.25-0.14c-0.12-0.01-0.25-0.01-0.36-0.04
		c-0.06-0.02-0.13-0.08-0.14-0.14c-0.03-0.12-0.02-0.24-0.02-0.36c0-0.11,0.07-0.18,0.17-0.22c0.12-0.04,0.23-0.08,0.35-0.1
		c1.48-0.23,2.93-0.61,4.38-0.99C153.79,92.47,154.02,92.39,154.28,92.39z"/>
	<path class="st1" d="M165.04,66.52c-0.14-0.13-0.26-0.24-0.38-0.36c-0.18-0.18-0.27-0.41-0.28-0.66c0-0.07-0.01-0.15-0.01-0.22
		c0-0.59,0.3-0.98,0.94-1.15c0.09-0.03,0.19-0.03,0.29-0.03c0.22-0.01,0.36-0.1,0.43-0.32c0.42-1.34,0.85-2.67,1.28-4
		c0.01-0.03-0.03-0.08-0.05-0.11c0,0-0.05,0.01-0.07,0.02c-0.09,0.08-0.18,0.16-0.26,0.25c-0.65,0.75-1.13,1.6-1.5,2.52
		c-0.07,0.18-0.15,0.36-0.23,0.54c0,0.01-0.05,0.01-0.07,0c-0.02-0.01-0.05-0.03-0.05-0.05c-0.02-0.6,0.13-1.17,0.39-1.7
		c0.34-0.7,0.83-1.28,1.39-1.79c0.22-0.2,0.46-0.38,0.7-0.57c0.02-0.03,0.05-0.06,0.07-0.11c0.09-0.2,0.13-0.44,0.27-0.6
		c0.16-0.19,0.45-0.18,0.68-0.25c0.54-0.16,1.09-0.29,1.65-0.44c0.03,0.07,0.08,0.14,0.08,0.2c-0.01,0.15-0.05,0.29-0.08,0.45
		c0.07,0.02,0.14,0.06,0.2,0.06c0.22-0.02,0.44-0.05,0.66-0.09c0.43-0.08,0.84,0.01,1.23,0.17c0.46,0.19,0.76,0.53,0.93,0.99
		c0.1,0.28,0.16,0.56,0.17,0.86c0.04,1.19-0.27,2.29-0.9,3.3c-0.39,0.63-0.88,1.18-1.44,1.67c-0.2,0.18-0.42,0.34-0.62,0.52
		c-0.05,0.05-0.08,0.12-0.13,0.19c0.38,0.35,0.82,0.55,1.3,0.65c0.22,0.04,0.44,0.02,0.65-0.06c0.38-0.14,0.71-0.34,1-0.61
		c0.31-0.28,0.6-0.58,0.9-0.87c0.07-0.07,0.14-0.13,0.23-0.18c0.02-0.01,0.09,0.02,0.12,0.05c0.03,0.03,0.05,0.09,0.05,0.13
		c0,0.04-0.03,0.09-0.06,0.13c-0.48,0.53-0.99,1.03-1.55,1.47c-0.52,0.41-1.13,0.6-1.79,0.5c-0.41-0.06-0.82-0.17-1.19-0.37
		c-0.19-0.1-0.39-0.2-0.57-0.29c-0.28,0.1-0.53,0.18-0.78,0.28c-0.35,0.14-0.72,0.14-1.08,0.22c-0.13,0.03-0.22,0.1-0.27,0.22
		c-0.04,0.09-0.06,0.19-0.09,0.28c-0.21,0.65-0.43,1.31-0.64,1.96c-0.04,0.12-0.07,0.23-0.12,0.35c-0.03,0.1-0.1,0.17-0.19,0.21
		c-0.11,0.05-0.22,0.1-0.34,0.15c-0.54,0.23-1.09,0.45-1.63,0.67c-0.42,0.17-0.51,0.18-0.54,0.1c-0.07-0.19,0.05-0.33,0.1-0.49
		c0.36-1.1,0.73-2.19,1.09-3.29C164.95,66.86,164.99,66.7,165.04,66.52z M169.31,65.1c0.06-0.07,0.1-0.1,0.12-0.14
		c0.73-1.29,1.26-2.65,1.57-4.1c0.1-0.46,0.1-0.93,0.05-1.39c-0.02-0.2-0.09-0.38-0.21-0.54c-0.15-0.21-0.36-0.32-0.63-0.3
		c-0.1,0.01-0.19,0.04-0.24,0.14c-0.05,0.11-0.09,0.23-0.13,0.34c-0.45,1.37-0.89,2.75-1.34,4.12c-0.13,0.39-0.26,0.79-0.38,1.17
		C168.5,64.73,168.55,64.76,169.31,65.1z M167.88,65.28c-0.18,0.25-0.22,0.55-0.32,0.82c-0.03,0.09-0.07,0.18-0.02,0.27
		c0.04,0.07,0.14,0.07,0.34,0.01c0.26-0.08,0.5-0.19,0.71-0.36c0.1-0.08,0.12-0.22,0.01-0.31c-0.17-0.14-0.34-0.27-0.52-0.39
		C168.03,65.29,167.95,65.3,167.88,65.28z M165.22,65.95c0.02-0.02,0.04-0.03,0.05-0.05c0.19-0.39,0.3-0.81,0.42-1.23
		c0.01-0.03-0.02-0.1-0.05-0.12c-0.03-0.02-0.1-0.02-0.13,0.01c-0.44,0.29-0.61,0.86-0.38,1.33
		C165.14,65.92,165.19,65.93,165.22,65.95z"/>
	<path class="st1" d="M198.48,65.73c-0.22,0.07-0.38,0.24-0.55,0.36c-0.48,0.32-1,0.53-1.57,0.58c-0.45,0.04-0.88-0.03-1.28-0.27
		c-0.35-0.21-0.58-0.52-0.7-0.92c-0.13-0.43-0.15-0.87-0.09-1.31c0.08-0.53,0.19-1.06,0.37-1.58c0.34-0.98,0.78-1.91,1.33-2.79
		c0.28-0.44,0.6-0.84,0.97-1.2c0.25-0.24,0.53-0.44,0.83-0.61c0.62-0.35,1.29-0.46,1.99-0.38c0.28,0.03,0.53,0.15,0.7,0.37
		c0.18,0.24,0.41,0.24,0.66,0.18c0.48-0.12,0.95-0.25,1.43-0.37c0.14-0.03,0.29-0.04,0.44-0.06c0.06-0.01,0.13,0.09,0.11,0.15
		c-0.04,0.14-0.08,0.28-0.12,0.42c-0.72,2.09-1.45,4.18-2.18,6.27c-0.09,0.26-0.14,0.52-0.09,0.79c0.05,0.29,0.35,0.53,0.65,0.48
		c0.27-0.04,0.52-0.14,0.77-0.24c0.46-0.19,0.85-0.49,1.24-0.79c0.05-0.04,0.1-0.03,0.12,0.02c0.02,0.04,0.02,0.09,0.03,0.14
		c0,0.02-0.01,0.05-0.02,0.07c-0.01,0.02-0.03,0.04-0.05,0.06c-0.66,0.6-1.37,1.12-2.23,1.4c-0.47,0.16-0.95,0.24-1.45,0.13
		c-0.38-0.08-0.69-0.25-0.95-0.53c-0.07-0.07-0.12-0.16-0.19-0.23C198.59,65.82,198.54,65.78,198.48,65.73z M196.63,64.92
		c0.03,0.16,0.05,0.33,0.09,0.5c0.09,0.37,0.44,0.53,0.81,0.39c0.23-0.09,0.43-0.24,0.62-0.39c0.19-0.14,0.29-0.32,0.26-0.57
		c-0.01-0.14,0.03-0.29,0.05-0.44c0.08-0.49,0.22-0.96,0.39-1.42c0.46-1.24,0.92-2.49,1.38-3.73c0.07-0.18,0.14-0.37,0.19-0.56
		c0.02-0.06-0.01-0.15-0.04-0.21c-0.09-0.15-0.21-0.27-0.36-0.36c-0.23-0.13-0.46-0.14-0.7,0c-0.2,0.11-0.35,0.28-0.45,0.47
		c-0.19,0.35-0.37,0.7-0.52,1.06c-0.32,0.77-0.63,1.55-0.93,2.33c-0.24,0.62-0.45,1.25-0.6,1.89
		C196.74,64.22,196.69,64.56,196.63,64.92z"/>
	<path class="st1" d="M154.47,58.28c0.69-0.13,1.35-0.31,2.02-0.48c0.07-0.02,0.14-0.02,0.22-0.03c0.07-0.01,0.15,0.07,0.14,0.13
		c-0.01,0.07-0.02,0.15-0.04,0.21c-0.73,2.11-1.47,4.22-2.2,6.34c-0.06,0.16-0.11,0.33-0.16,0.49c-0.02,0.07-0.04,0.14-0.04,0.22
		c0.01,0.46,0.22,0.78,0.71,0.72c0.14-0.02,0.29-0.05,0.43-0.1c0.45-0.15,0.85-0.38,1.23-0.66c0.12-0.09,0.23-0.17,0.36-0.25
		c0.05-0.03,0.1-0.01,0.12,0.05c0.01,0.02,0.02,0.05,0.01,0.07c-0.01,0.04-0.02,0.1-0.06,0.13c-0.76,0.72-1.6,1.3-2.64,1.55
		c-0.27,0.06-0.53,0.1-0.8,0.07c-0.48-0.05-0.9-0.22-1.23-0.59c-0.11-0.12-0.17-0.3-0.36-0.38c-0.17,0.12-0.35,0.25-0.53,0.38
		c-0.39,0.27-0.82,0.46-1.28,0.55c-0.36,0.07-0.73,0.06-1.09-0.04c-0.59-0.15-1.18-0.65-1.26-1.55c-0.06-0.64,0.02-1.28,0.2-1.9
		c0.37-1.28,0.92-2.49,1.67-3.6c0.28-0.41,0.6-0.78,0.97-1.1c0.53-0.47,1.15-0.75,1.85-0.86c0.19-0.03,0.39-0.03,0.59-0.02
		c0.38,0.03,0.72,0.15,0.97,0.45C154.32,58.15,154.4,58.21,154.47,58.28z M152.11,65.26c0.02-0.3,0.02-0.57,0.07-0.83
		c0.08-0.41,0.18-0.81,0.33-1.21c0.49-1.31,0.96-2.63,1.44-3.94c0.06-0.16,0.11-0.33,0.17-0.49c0.04-0.11,0-0.2-0.05-0.28
		c-0.4-0.58-0.94-0.56-1.34-0.07c-0.11,0.13-0.2,0.28-0.28,0.43c-0.11,0.19-0.21,0.39-0.29,0.6c-0.43,1.07-0.89,2.13-1.26,3.23
		c-0.19,0.56-0.35,1.12-0.47,1.7c-0.05,0.27-0.07,0.54-0.06,0.81c0.01,0.15,0.05,0.29,0.13,0.42c0.09,0.16,0.23,0.25,0.42,0.25
		c0.2,0.01,0.39-0.02,0.56-0.14C151.69,65.58,151.91,65.42,152.11,65.26z"/>
	<path class="st1" d="M186.77,65.2c0.07,0.04,0.16,0.06,0.2,0c0.11-0.19,0.21-0.39,0.3-0.59c0.45-1.06,0.91-2.13,1.35-3.19
		c0.31-0.75,0.63-1.49,1.01-2.22c0.15-0.28,0.3-0.57,0.48-0.83c0.16-0.24,0.35-0.47,0.55-0.69c0.13-0.15,0.28-0.28,0.44-0.4
		c1.13-0.88,2.3-0.1,2.55,0.89c0.06,0.24,0.08,0.48,0.05,0.73c-0.06,0.5-0.19,0.96-0.42,1.4c-0.12,0.22-0.26,0.41-0.47,0.56
		c-0.3,0.21-0.69,0.2-0.95-0.05c-0.33-0.32-0.55-0.69-0.6-1.15c-0.02-0.19-0.01-0.39-0.03-0.59c-0.01-0.1-0.04-0.19-0.06-0.29
		c-0.03-0.11-0.17-0.2-0.29-0.16c-0.09,0.02-0.19,0.06-0.26,0.11c-0.11,0.09-0.22,0.2-0.3,0.32c-0.16,0.22-0.3,0.45-0.44,0.68
		c-0.35,0.62-0.64,1.27-0.93,1.93c-0.04,0.09-0.05,0.19-0.08,0.31c0.11,0.03,0.2,0.05,0.29,0.07c0.45,0.09,0.83,0.32,1.12,0.66
		c0.24,0.28,0.47,0.57,0.68,0.87c0.21,0.3,0.39,0.62,0.6,0.93c0.12,0.18,0.25,0.36,0.4,0.53c0.13,0.15,0.3,0.25,0.49,0.32
		c0.12,0.04,0.24,0.05,0.36,0.01c0.21-0.07,0.42-0.13,0.61-0.26c0.12-0.08,0.25-0.16,0.37-0.23c0.05-0.03,0.1-0.01,0.12,0.04
		c0.02,0.04,0.02,0.09,0.02,0.14c0,0.02-0.02,0.05-0.04,0.06c-0.59,0.61-1.25,1.1-2.07,1.38c-0.38,0.13-0.77,0.14-1.17,0.09
		c-0.09-0.01-0.19-0.06-0.28-0.09c-0.28-0.12-0.49-0.33-0.66-0.57c-0.28-0.38-0.48-0.8-0.63-1.25c-0.17-0.51-0.32-1.03-0.49-1.55
		c-0.03-0.09-0.08-0.18-0.18-0.21c-0.13,0.12-0.17,0.29-0.23,0.45c-0.26,0.61-0.51,1.23-0.78,1.83c-0.13,0.29-0.28,0.58-0.44,0.85
		c-0.24,0.4-0.61,0.56-1.07,0.52c-0.75-0.07-1.14-0.56-1.23-1.17c-0.06-0.37-0.04-0.74,0.05-1.1c0.06-0.26,0.13-0.52,0.22-0.78
		c0.48-1.47,0.96-2.95,1.43-4.42c0.02-0.07,0.05-0.14,0.06-0.21c0.05-0.21,0.19-0.33,0.39-0.4c0.07-0.02,0.14-0.05,0.21-0.08
		c0.64-0.25,1.28-0.5,1.93-0.74c0.06-0.02,0.14-0.02,0.2-0.01c0.06,0.01,0.07,0.14,0.03,0.27c-0.02,0.07-0.05,0.14-0.07,0.21
		c-0.36,1.1-0.72,2.2-1.08,3.3c-0.41,1.26-0.83,2.52-1.24,3.79c-0.08,0.17-0.06,0.35-0.07,0.52c-0.03,0.04-0.04,0.03-0.03-0.01
		c0,0.01,0.01,0.02,0.01,0.03c0.04-0.08,0.08-0.16,0.11-0.25C186.86,65.4,186.84,65.29,186.77,65.2z"/>
	<path class="st1" d="M179.3,65.54c-0.21,0.13-0.38,0.24-0.54,0.34c-0.53,0.33-1.1,0.54-1.71,0.65c-0.37,0.07-0.73,0.05-1.09-0.06
		c-0.71-0.21-1.23-0.91-1.15-1.77c0.03-0.39,0.13-0.78,0.26-1.15c0.57-1.65,1.14-3.3,1.72-4.94c0.02-0.07,0.04-0.15,0.08-0.2
		c0.06-0.07,0.14-0.16,0.22-0.18c0.69-0.17,1.39-0.33,2.08-0.48c0.07-0.02,0.15-0.01,0.22,0c0.03,0.01,0.08,0.07,0.08,0.1
		c-0.01,0.12-0.04,0.24-0.07,0.36c-0.63,1.84-1.27,3.67-1.9,5.5c-0.11,0.33-0.22,0.65-0.32,0.98c-0.08,0.26-0.12,0.53-0.1,0.8
		c0.02,0.39,0.37,0.51,0.62,0.46c0.24-0.05,0.48-0.12,0.69-0.24c0.32-0.19,0.63-0.38,0.9-0.67c0.09-0.8,0.34-1.57,0.61-2.33
		c0.46-1.32,0.9-2.65,1.36-3.98c0.04-0.12,0.09-0.23,0.14-0.34c0.1-0.04,0.18-0.1,0.28-0.12c0.66-0.18,1.33-0.35,2-0.51
		c0.12-0.03,0.24-0.05,0.36,0.07c-0.07,0.2-0.13,0.41-0.21,0.61c-0.63,1.78-1.27,3.57-1.89,5.35c-0.12,0.35-0.21,0.71-0.31,1.06
		c-0.06,0.22-0.07,0.44-0.05,0.66c0.03,0.28,0.3,0.5,0.57,0.44c0.24-0.05,0.48-0.11,0.69-0.25c0.29-0.19,0.57-0.38,0.86-0.58
		c0.16-0.11,0.31-0.24,0.46-0.37c0.1-0.08,0.22-0.08,0.25,0.01c0.03,0.07,0.02,0.14-0.04,0.2c-0.48,0.46-1,0.87-1.58,1.21
		c-0.64,0.38-1.33,0.5-2.06,0.42c-0.43-0.05-0.8-0.23-1.07-0.58C179.53,65.89,179.44,65.74,179.3,65.54z"/>
	<path class="st1" d="M205.28,41.43c0.01-0.05,0.02-0.1,0.04-0.14c0.46-0.7,0.92-1.4,1.4-2.08c0.38-0.55,0.86-1.01,1.37-1.44
		c0.17-0.15,0.36-0.24,0.59-0.29c0.67-0.15,1.25,0.36,1.27,1c0.01,0.32-0.03,0.64-0.17,0.94c-0.17,0.38-0.35,0.76-0.52,1.14
		c-0.08,0.18-0.18,0.35-0.25,0.53c-0.03,0.06,0,0.14,0,0.21c0.06,0.02,0.1,0.04,0.15,0.04c0.66,0,1.33,0,1.99,0.01
		c0.17,0,0.28-0.08,0.35-0.22c0.07-0.13,0.12-0.27,0.18-0.4c0.36-0.83,0.72-1.67,1.09-2.5c0.08-0.18,0.12-0.38,0.31-0.51
		c0.64-0.06,0.84-0.06,1.3,0.03c-0.01,0.07,0,0.15-0.02,0.21c-0.05,0.16-0.12,0.32-0.19,0.48c-0.82,1.95-1.65,3.89-2.47,5.84
		c-0.15,0.36-0.3,0.72-0.45,1.09c-0.01,0.03,0.04,0.08,0.07,0.11c0.01,0.01,0.05,0,0.07-0.01c0.1-0.07,0.2-0.14,0.28-0.23
		c0.3-0.35,0.61-0.71,0.89-1.08c0.42-0.55,0.81-1.11,1.22-1.67c0.09-0.12,0.16-0.25,0.32-0.3c0.18,0.05,0.38,0.06,0.48,0.27
		c-0.01,0.03,0,0.05-0.02,0.07c-0.62,0.98-1.25,1.95-1.97,2.85c-0.25,0.31-0.53,0.58-0.86,0.8c-0.32,0.22-0.68,0.28-1.06,0.21
		c-0.12-0.02-0.24-0.08-0.33-0.15c-0.28-0.23-0.43-0.52-0.44-0.9c0-0.35,0.06-0.69,0.21-1c0.26-0.56,0.53-1.11,0.8-1.66
		c0.06-0.13,0.11-0.27,0.16-0.41c0.01-0.03-0.04-0.09-0.07-0.11c-0.04-0.02-0.09-0.03-0.14-0.03c-0.64,0-1.28,0-1.92,0
		c-0.1,0-0.19,0.03-0.3,0.04c-0.12,0.25-0.23,0.49-0.34,0.74c-0.39,0.9-0.78,1.8-1.18,2.71c-0.06,0.14-0.12,0.27-0.18,0.41
		c-0.05,0.12-0.15,0.2-0.28,0.2c-0.34,0-0.69,0-1.03,0c-0.1,0-0.17-0.11-0.14-0.21c0.02-0.07,0.04-0.14,0.06-0.21
		c0.9-2.13,1.8-4.26,2.7-6.39c0.13-0.32,0.27-0.63,0.4-0.95c0.01-0.02-0.01-0.06-0.02-0.06c-0.04-0.01-0.1-0.02-0.12,0
		c-0.38,0.31-0.71,0.68-1,1.07c-0.42,0.57-0.84,1.15-1.27,1.72c-0.1,0.14-0.21,0.28-0.32,0.41c-0.07,0.08-0.16,0.1-0.27,0.08
		C205.49,41.63,205.35,41.58,205.28,41.43z"/>
	<path class="st1" d="M153.07,120.24c-0.44,0-0.89,0-1.33,0c-0.12,0-0.24-0.02-0.36-0.04c-0.06-0.01-0.08-0.04-0.09-0.1
		c-0.02-0.1,0.02-0.25,0.07-0.27c0.19-0.05,0.38-0.09,0.57-0.15c0.2-0.07,0.32-0.22,0.35-0.43c0.01-0.1,0.02-0.2,0.02-0.29
		c0-0.76,0-1.53,0-2.29c0-0.22-0.08-0.29-0.32-0.3c-0.89,0-1.77,0-2.66,0c-0.18,0-0.28,0.09-0.29,0.26c0,0.05-0.01,0.1-0.01,0.15
		c0,0.71,0,1.43,0,2.14c0,0.58,0.17,0.76,0.7,0.86c0.07,0.01,0.16,0.02,0.21,0.06c0.05,0.04,0.07,0.12,0.08,0.19
		c0.01,0.07-0.06,0.16-0.11,0.17c-0.1,0.01-0.19,0.03-0.29,0.03c-0.96,0-1.92,0-2.88,0c-0.07,0-0.15-0.01-0.22-0.02
		c-0.08-0.02-0.12-0.07-0.13-0.15c-0.02-0.1,0.04-0.23,0.11-0.25c0.14-0.04,0.29-0.06,0.43-0.11c0.2-0.06,0.34-0.2,0.37-0.42
		c0.03-0.27,0.06-0.54,0.07-0.81c0.01-0.81,0-1.62,0-2.44c0-0.69,0-1.38,0-2.07c0-0.27-0.01-0.54-0.09-0.8
		c-0.05-0.15-0.15-0.26-0.29-0.31c-0.16-0.06-0.34-0.07-0.5-0.13c-0.06-0.02-0.11-0.1-0.13-0.16c-0.04-0.11,0.06-0.26,0.18-0.28
		c0.1-0.01,0.2-0.02,0.29-0.02c0.91,0,1.82,0,2.73,0c0.1,0,0.2,0,0.29,0.03c0.06,0.02,0.11,0.1,0.14,0.16
		c0.04,0.08-0.03,0.23-0.1,0.25c-0.14,0.04-0.28,0.08-0.42,0.11c-0.21,0.06-0.32,0.21-0.38,0.41c-0.03,0.09-0.04,0.19-0.04,0.29
		c0,0.62,0,1.23,0,1.85c0,0.21,0.1,0.3,0.33,0.3c0.52,0.01,1.03,0.01,1.55,0.01c0.39,0,0.79-0.01,1.18-0.02
		c0.1,0,0.19-0.09,0.2-0.18c0.01-0.22,0.02-0.44,0.02-0.66c0-0.39,0-0.79,0-1.18c0-0.15-0.01-0.3-0.05-0.44
		c-0.04-0.18-0.16-0.3-0.34-0.36c-0.16-0.05-0.33-0.09-0.49-0.13c-0.07-0.02-0.14-0.18-0.1-0.25c0.03-0.06,0.09-0.11,0.15-0.15
		c0.04-0.02,0.09-0.03,0.14-0.03c1.01,0,2.02,0,3.03,0c0.07,0,0.15,0.01,0.21,0.04c0.05,0.03,0.1,0.11,0.11,0.17
		c0.01,0.06-0.03,0.14-0.06,0.2c-0.02,0.04-0.08,0.06-0.12,0.07c-0.12,0.03-0.24,0.04-0.36,0.07c-0.21,0.06-0.35,0.19-0.37,0.41
		c-0.03,0.27-0.05,0.54-0.05,0.81c-0.01,0.93,0,1.87,0,2.8c0,0.57,0,1.13,0,1.7c0,0.25,0.02,0.49,0.05,0.74
		c0.02,0.19,0.14,0.32,0.31,0.38c0.16,0.06,0.33,0.09,0.5,0.14c0.07,0.02,0.14,0.16,0.12,0.25c-0.02,0.07-0.05,0.14-0.13,0.15
		c-0.12,0.02-0.24,0.03-0.37,0.03C154,120.24,153.54,120.24,153.07,120.24z"/>
	<path class="st1" d="M116.63,120.24c-0.47,0-0.94,0-1.4,0c-0.1,0-0.19-0.02-0.29-0.03c-0.06-0.01-0.13-0.1-0.12-0.16
		c0.01-0.07,0.03-0.15,0.08-0.19c0.05-0.04,0.13-0.05,0.2-0.07c0.14-0.04,0.29-0.07,0.42-0.12c0.15-0.05,0.24-0.17,0.28-0.32
		c0.03-0.12,0.05-0.24,0.05-0.36c0.01-0.79,0-1.57,0-2.36c0-0.13-0.1-0.23-0.23-0.23c-0.39-0.01-0.79-0.01-1.18-0.01
		c-0.54,0-1.08,0-1.62,0.01c-0.13,0-0.24,0.1-0.24,0.23c0,0.79-0.02,1.58,0,2.36c0.02,0.53,0.15,0.7,0.68,0.81
		c0.07,0.01,0.14,0.03,0.22,0.05c0.05,0.01,0.09,0.17,0.07,0.27c-0.01,0.06-0.03,0.09-0.09,0.1c-0.07,0.01-0.14,0.04-0.22,0.04
		c-1.01,0-2.02,0-3.03,0c-0.05,0-0.1,0-0.15-0.02c-0.07-0.02-0.13-0.05-0.15-0.14c-0.01-0.11,0.03-0.24,0.09-0.26
		c0.17-0.05,0.33-0.08,0.5-0.14c0.18-0.06,0.28-0.19,0.33-0.37c0.03-0.09,0.05-0.19,0.05-0.29c0.01-0.17,0.01-0.34,0.01-0.52
		c0-1.5,0-3,0-4.5c0-0.24-0.01-0.49-0.06-0.73c-0.04-0.23-0.19-0.4-0.44-0.44c-0.12-0.02-0.24-0.04-0.36-0.07
		c-0.12-0.03-0.19-0.15-0.16-0.29c0.01-0.07,0.04-0.15,0.13-0.16c0.07-0.01,0.14-0.03,0.22-0.03c0.98,0,1.97,0,2.95,0
		c0.07,0,0.14,0.02,0.22,0.04c0.08,0.02,0.11,0.09,0.13,0.16c0.02,0.1-0.03,0.22-0.11,0.25c-0.14,0.04-0.28,0.08-0.42,0.11
		c-0.18,0.05-0.3,0.17-0.35,0.35c-0.03,0.09-0.07,0.19-0.07,0.29c-0.01,0.66,0,1.33,0,1.99c0,0.09,0.1,0.19,0.18,0.2
		c0.07,0.01,0.15,0.03,0.22,0.03c0.84,0,1.67,0,2.51,0c0.05,0,0.1-0.01,0.15-0.01c0.07-0.01,0.2-0.12,0.21-0.18
		c0.01-0.05,0.02-0.1,0.02-0.15c0-0.54,0-1.08,0-1.62c0-0.1-0.01-0.2-0.03-0.29c-0.05-0.43-0.13-0.51-0.59-0.63
		c-0.09-0.02-0.19-0.06-0.27-0.1c-0.09-0.04-0.12-0.25-0.04-0.33c0.03-0.03,0.07-0.07,0.12-0.08c0.1-0.02,0.19-0.03,0.29-0.03
		c0.94,0,1.87,0,2.81,0c0.1,0,0.2,0.01,0.28,0.05c0.05,0.02,0.09,0.11,0.11,0.17c0.03,0.08-0.02,0.14-0.08,0.19
		c-0.14,0.12-0.32,0.1-0.49,0.14c-0.22,0.06-0.39,0.24-0.41,0.47c-0.02,0.2-0.02,0.39-0.02,0.59c0,1.58,0,3.15,0,4.73
		c0,0.22,0.01,0.44,0.04,0.66c0.02,0.18,0.13,0.32,0.31,0.38c0.16,0.06,0.33,0.09,0.5,0.13c0.13,0.03,0.19,0.13,0.16,0.28
		c-0.01,0.04-0.05,0.1-0.08,0.1c-0.12,0.03-0.24,0.05-0.36,0.05C117.62,120.24,117.12,120.24,116.63,120.24z"/>
	<path class="st1" d="M77.53,98.86c0.22-0.1,0.44-0.2,0.66-0.29c0.34-0.14,0.68-0.28,1.02-0.42c0.61-0.26,1.21-0.55,1.77-0.89
		c0.42-0.26,0.86-0.48,1.3-0.68c0.66-0.3,1.35-0.45,2.06-0.52c0.47-0.05,0.93,0,1.39,0.1c0.65,0.15,1.27,0.38,1.84,0.73
		c0.14,0.09,0.27,0.21,0.4,0.32c0.04,0.04,0.04,0.17,0,0.2c-0.08,0.06-0.16,0.12-0.24,0.17c-0.65,0.34-1.33,0.64-2.02,0.9
		c-0.63,0.23-1.28,0.35-1.94,0.38c-0.03,0-0.08,0.06-0.08,0.09c0.01,0.04,0.05,0.08,0.08,0.11c0.02,0.02,0.04,0.02,0.07,0.02
		c0.56,0.07,1.13,0.1,1.68-0.09c0.26-0.09,0.52-0.15,0.77-0.24c0.67-0.24,1.34-0.48,2.01-0.72c0.09-0.03,0.19-0.06,0.28-0.07
		c0.03,0,0.07,0.03,0.1,0.06c0.01,0.01,0,0.05-0.02,0.07c-0.28,0.35-0.62,0.63-0.97,0.9c-0.97,0.75-2.06,1.24-3.22,1.59
		c-0.71,0.22-1.44,0.34-2.17,0.37c-0.62,0.03-1.23-0.06-1.82-0.23c-1.03-0.29-1.97-0.75-2.77-1.47c-0.07-0.07-0.13-0.14-0.19-0.22
		C77.52,98.98,77.53,98.93,77.53,98.86z"/>
	<path class="st1" d="M171.19,98.87c-0.09-0.02-0.19-0.05-0.28-0.05c-0.67-0.03-1.31-0.2-1.93-0.44c-0.62-0.24-1.23-0.51-1.81-0.82
		c-0.08-0.05-0.16-0.11-0.23-0.18c-0.02-0.02-0.02-0.1,0-0.13c0.03-0.06,0.08-0.12,0.14-0.17c1.06-0.75,2.23-1.13,3.54-1.03
		c0.71,0.06,1.41,0.22,2.06,0.54c0.31,0.15,0.63,0.28,0.92,0.46c0.99,0.61,2.04,1.08,3.12,1.51c0.23,0.09,0.45,0.2,0.66,0.32
		c0.02,0.01,0.04,0.09,0.02,0.13c-0.03,0.07-0.08,0.13-0.13,0.18c-0.31,0.32-0.68,0.57-1.06,0.79c-0.99,0.58-2.07,0.91-3.22,0.98
		c-0.49,0.03-0.99-0.03-1.47-0.12c-1.24-0.23-2.42-0.65-3.5-1.31c-0.66-0.4-1.27-0.85-1.76-1.44c-0.01-0.02-0.02-0.06-0.01-0.07
		c0.03-0.03,0.07-0.06,0.11-0.06c0.1,0.02,0.19,0.04,0.28,0.08c0.67,0.24,1.34,0.49,2.01,0.72c0.32,0.11,0.65,0.22,0.99,0.3
		c0.48,0.12,0.98,0.1,1.46,0.01c0.04-0.01,0.07-0.06,0.09-0.1C171.18,98.94,171.18,98.91,171.19,98.87z"/>
	<path class="st1" d="M45.71,44.26c-0.06-0.05-0.15-0.07-0.2-0.01c-0.1,0.14-0.19,0.29-0.27,0.44c-0.44,0.79-0.88,1.59-1.32,2.39
		c-0.07,0.13-0.15,0.26-0.22,0.38c-0.04,0.07-0.18,0.1-0.27,0.07c-0.12-0.04-0.22-0.1-0.28-0.26c0.1-0.2,0.2-0.42,0.32-0.63
		c0.83-1.56,1.66-3.13,2.5-4.68c0.44-0.8,0.78-1.64,1.03-2.52c0.14-0.52,0.3-1.04,0.45-1.56c0.1-0.33,0.16-0.37,0.54-0.35
		c0.05,0,0.1,0,0.14,0.02c0.04,0.02,0.07,0.06,0.13,0.11c-0.99,3.84-2.02,7.68-3.02,11.56c0.08-0.02,0.14-0.02,0.15-0.05
		c0.09-0.12,0.17-0.24,0.25-0.36c0.43-0.69,0.89-1.36,1.38-2.01c0.37-0.49,0.78-0.95,1.23-1.37c0.23-0.22,0.48-0.43,0.77-0.57
		c0.32-0.16,0.65-0.2,1-0.09c0.12,0.04,0.22,0.11,0.29,0.22c0.23,0.35,0.21,0.77-0.06,1.1c-0.03,0.04-0.07,0.07-0.11,0.09
		c-0.25,0.15-0.64,0.07-0.79-0.16c-0.05-0.08-0.08-0.18-0.14-0.26c-0.02-0.03-0.07-0.05-0.13-0.09c-0.28,0.15-0.49,0.39-0.7,0.63
		c-0.7,0.76-1.32,1.58-1.65,2.18c0.03,0.05,0.07,0.12,0.12,0.16c0.54,0.49,0.76,1.13,0.84,1.83c0.03,0.24,0.02,0.49,0.05,0.74
		c0.03,0.29,0.08,0.58,0.14,0.87c0.04,0.2,0.17,0.35,0.35,0.45c0.25,0.14,0.58,0.03,0.68-0.23c0.04-0.09,0.06-0.19,0.07-0.28
		c0.02-0.15-0.07-0.27-0.23-0.32c-0.05-0.01-0.1-0.02-0.14-0.03c-0.12-0.02-0.16-0.11-0.18-0.21c-0.02-0.09-0.01-0.19,0.01-0.29
		c0.01-0.1,0.11-0.17,0.21-0.17c0.23-0.01,0.44,0.06,0.64,0.15c0.19,0.09,0.31,0.25,0.35,0.45c0.06,0.27,0.05,0.54,0,0.81
		c-0.11,0.52-0.58,0.9-1.1,0.93c-0.63,0.04-1.09-0.23-1.42-0.75c-0.19-0.29-0.31-0.62-0.38-0.95c-0.08-0.38-0.15-0.77-0.18-1.17
		c-0.02-0.39-0.09-0.78-0.15-1.17c0-0.03-0.06-0.08-0.09-0.08c-0.04,0-0.1,0.02-0.12,0.06c-0.06,0.08-0.11,0.17-0.16,0.25
		c-0.52,0.89-1,1.81-1.41,2.76c-0.08,0.18-0.17,0.36-0.24,0.54c-0.09,0.23-0.23,0.35-0.5,0.35c-0.77,0-0.72-0.03-0.53-0.68
		c0.73-2.58,1.47-5.15,2.21-7.73C45.57,44.57,45.65,44.42,45.71,44.26c0-0.05,0-0.09-0.01-0.13C45.7,44.18,45.7,44.22,45.71,44.26z"
		/>
	<path class="st1" d="M131.41,120.24c-0.52,0-1.03,0-1.55,0c-0.12,0-0.24-0.02-0.36-0.04c-0.06-0.01-0.08-0.04-0.09-0.1
		c-0.02-0.1,0.01-0.25,0.06-0.27c0.16-0.05,0.33-0.08,0.49-0.13c0.24-0.07,0.36-0.25,0.41-0.48c0.03-0.17,0.04-0.34,0.04-0.51
		c0-1.62,0-3.25,0-4.87c0-0.17-0.01-0.35-0.04-0.51c-0.05-0.25-0.18-0.46-0.46-0.51c-0.12-0.02-0.24-0.06-0.35-0.1
		c-0.08-0.03-0.15-0.16-0.11-0.25c0.03-0.06,0.08-0.13,0.13-0.16c0.09-0.03,0.19-0.04,0.29-0.04c1.08,0,2.16-0.01,3.25,0.01
		c0.39,0.01,0.78,0.07,1.17,0.13c0.17,0.03,0.33,0.09,0.49,0.16c0.4,0.17,0.68,0.47,0.85,0.88c0.25,0.62,0.15,1.48-0.54,1.98
		c-0.08,0.06-0.16,0.11-0.25,0.16c-0.19,0.12-0.41,0.16-0.58,0.3c-0.01,0.01-0.01,0.05,0,0.07c0.17,0.2,0.45,0.15,0.66,0.25
		c0.27,0.13,0.54,0.25,0.76,0.45c0.32,0.3,0.49,0.66,0.51,1.1c0.04,0.75-0.27,1.33-0.86,1.78c-0.22,0.16-0.46,0.29-0.71,0.38
		c-0.47,0.16-0.94,0.29-1.44,0.29c-0.59,0.01-1.18,0-1.77,0C131.41,120.23,131.41,120.23,131.41,120.24z M132.5,116.34
		c-0.07,0-0.12,0-0.17,0c-0.17,0-0.28,0.1-0.28,0.27c0,0.74,0,1.47,0,2.21c0,0.2,0.05,0.39,0.14,0.57c0.07,0.14,0.18,0.23,0.33,0.27
		c0.86,0.21,1.57-0.29,1.75-1.04c0.09-0.36,0.11-0.72,0.02-1.09c-0.11-0.46-0.39-0.78-0.81-0.98
		C133.17,116.38,132.82,116.36,132.5,116.34z M132.05,114.4C132.05,114.4,132.06,114.4,132.05,114.4c0.01,0.39,0.01,0.79,0.01,1.18
		c0,0.11,0.08,0.19,0.18,0.2c0.3,0.03,0.58,0,0.87-0.09c0.47-0.15,0.74-0.47,0.84-0.94c0.06-0.29,0.06-0.59-0.01-0.88
		c-0.18-0.79-0.76-1.08-1.32-1.04c-0.36,0.02-0.55,0.19-0.56,0.54C132.04,113.72,132.05,114.06,132.05,114.4z"/>
	<path class="st1" d="M55.34,50.75c0.01-0.82,0.19-1.61,0.39-2.4c0.34-1.34,0.82-2.63,1.44-3.87c0.44-0.88,0.96-1.72,1.57-2.49
		c0.23-0.29,0.47-0.57,0.76-0.8c0.19-0.16,0.4-0.28,0.65-0.34c0.31-0.08,0.67,0.07,0.82,0.34c0.09,0.17,0.16,0.36,0.17,0.56
		c0.05,0.65-0.03,1.28-0.31,1.87c-0.37,0.8-0.81,1.58-1.3,2.31c-0.17,0.24-0.34,0.49-0.5,0.73c-0.06,0.08-0.02,0.19,0.09,0.23
		c0.02,0.01,0.05,0.02,0.07,0.02c0.47,0.08,0.72,0.39,0.86,0.82c0.19,0.57,0.26,1.14,0.12,1.74c-0.25,1.05-0.7,1.99-1.39,2.82
		c-0.24,0.29-0.51,0.53-0.82,0.74c-0.44,0.28-0.92,0.34-1.42,0.25c-0.38-0.07-0.68-0.3-0.84-0.66c-0.16-0.36-0.28-0.73-0.32-1.13
		C55.36,51.24,55.35,50.99,55.34,50.75z M57.04,48.58c-0.04,0.1-0.11,0.21-0.14,0.32c-0.18,0.64-0.33,1.28-0.43,1.94
		c-0.03,0.22-0.03,0.44-0.04,0.66c-0.01,0.25,0.06,0.49,0.14,0.72c0.13,0.36,0.44,0.46,0.76,0.23c0.16-0.11,0.31-0.25,0.42-0.4
		c0.16-0.21,0.3-0.45,0.42-0.69c0.38-0.75,0.63-1.54,0.86-2.34c0.06-0.21,0.07-0.44,0.09-0.65c0.01-0.14-0.02-0.29-0.05-0.44
		c-0.04-0.22-0.3-0.35-0.51-0.29c-0.22,0.07-0.4,0.18-0.57,0.33c-0.16,0.15-0.34,0.29-0.47,0.46
		C57.39,48.58,57.23,48.57,57.04,48.58z M57.37,47.63c0.06-0.04,0.11-0.06,0.14-0.1c0.63-0.94,1.27-1.87,1.8-2.87
		c0.43-0.81,0.75-1.66,1-2.53c0.03-0.12,0.04-0.24,0.05-0.36c0.01-0.07-0.16-0.16-0.23-0.13c-0.06,0.03-0.14,0.06-0.18,0.11
		c-0.14,0.17-0.28,0.34-0.41,0.52c-0.33,0.49-0.59,1.02-0.83,1.56c-0.53,1.17-0.94,2.37-1.34,3.59
		C57.34,47.48,57.36,47.55,57.37,47.63z"/>
	<path class="st1" d="M202.27,40.53c0.08,0.06,0.17,0.1,0.27,0.07c0.14-0.05,0.28-0.1,0.41-0.16c0.25-0.11,0.52-0.13,0.79-0.12
		c0.15,0.01,0.29,0.05,0.42,0.11c0.46,0.2,0.67,0.54,0.7,1.03c0.03,0.53-0.06,1.03-0.27,1.51c-0.61,1.34-1.55,2.38-2.86,3.07
		c-0.56,0.3-1.16,0.4-1.78,0.33c-0.51-0.06-0.86-0.33-1.03-0.82c-0.15-0.43-0.14-0.87-0.05-1.31c0.09-0.41,0.24-0.8,0.44-1.17
		c0.23-0.43,0.46-0.87,0.72-1.29c0.54-0.88,1.09-1.75,1.64-2.63c0.14-0.23,0.29-0.46,0.35-0.72c0.01-0.04-0.02-0.1-0.05-0.13
		c-0.03-0.02-0.1-0.03-0.13,0c-0.2,0.14-0.41,0.27-0.59,0.43c-0.32,0.27-0.61,0.57-0.92,0.85c-0.5,0.47-1.01,0.94-1.52,1.4
		c-0.07,0.07-0.19,0.07-0.27,0.01c-0.12-0.09-0.25-0.16-0.29-0.32c0.07-0.19,0.21-0.33,0.35-0.47c0.66-0.63,1.31-1.26,1.98-1.87
		c0.25-0.23,0.54-0.43,0.82-0.63c0.25-0.17,0.53-0.25,0.83-0.26c0.34-0.01,0.63,0.09,0.84,0.38c0.09,0.12,0.16,0.25,0.16,0.4
		c-0.01,0.2,0.01,0.4-0.05,0.58c-0.2,0.61-0.47,1.19-0.87,1.69c-0.01,0.02-0.04,0.02-0.06,0.04c0,0,0.04,0.02,0.04,0.02
		L202.27,40.53z M203.78,41.3c0.01-0.06-0.12-0.21-0.19-0.21c-0.07,0-0.15,0-0.22,0.01c-0.34,0.09-0.63,0.28-0.89,0.51
		c-0.95,0.84-1.73,1.81-2.3,2.94c-0.08,0.15-0.14,0.31-0.19,0.48c-0.04,0.17-0.06,0.34,0.08,0.48c0.17,0.16,0.36,0.12,0.55,0.05
		c0.33-0.12,0.6-0.33,0.85-0.57c0.89-0.87,1.61-1.85,2.09-3c0.07-0.18,0.13-0.37,0.19-0.56C203.78,41.4,203.78,41.35,203.78,41.3z"
		/>
	<path class="st1" d="M189.33,95.78c-0.02,0.07-0.03,0.15-0.08,0.2c-0.22,0.23-0.44,0.47-0.68,0.67c-0.98,0.78-2.11,1.24-3.36,1.36
		c-0.19,0.02-0.39,0.02-0.59,0.01c-1.23-0.09-2.43-0.34-3.56-0.87c-0.64-0.3-1.27-0.65-1.77-1.17c-0.01-0.01-0.01-0.05-0.01-0.07
		c0.01-0.02,0.03-0.04,0.05-0.03c0.12,0.01,0.25,0,0.36,0.03c0.81,0.21,1.61,0.43,2.43,0.6c0.52,0.11,1.02,0.1,1.52-0.08
		c0.04-0.01,0.06-0.07,0.12-0.12c-0.11-0.02-0.2-0.04-0.3-0.04c-1.25-0.03-2.41-0.42-3.55-0.89c-0.13-0.06-0.16-0.2-0.07-0.29
		c0.03-0.04,0.06-0.07,0.1-0.11c0.11-0.1,0.22-0.2,0.34-0.28c0.94-0.64,1.98-0.98,3.13-0.89c0.54,0.04,1.07,0.16,1.58,0.34
		c0.3,0.11,0.6,0.23,0.88,0.36c0.8,0.38,1.63,0.67,2.48,0.92C188.68,95.53,189.03,95.58,189.33,95.78z"/>
	<path class="st1" d="M65.61,95.75c0.15-0.06,0.31-0.12,0.47-0.18c0.33-0.1,0.66-0.2,0.98-0.3c0.61-0.18,1.21-0.41,1.79-0.68
		c0.35-0.17,0.72-0.32,1.09-0.45c0.65-0.22,1.32-0.37,2.02-0.35c1.09,0.03,2.06,0.42,2.91,1.09c0.08,0.06,0.14,0.14,0.21,0.21
		c0.07,0.08,0.06,0.21-0.02,0.25c-0.04,0.02-0.08,0.05-0.13,0.07c-1.14,0.47-2.3,0.85-3.55,0.86c-0.05,0-0.09,0.02-0.14,0.03
		c-0.02,0.01-0.04,0.03-0.04,0.04c0,0.02,0.02,0.05,0.04,0.06c0.49,0.21,1,0.23,1.51,0.11c0.62-0.14,1.24-0.29,1.86-0.45
		c0.24-0.06,0.47-0.13,0.71-0.19c0.07-0.02,0.15-0.03,0.22-0.02c0.04,0,0.08,0.04,0.11,0.06c0.01,0.01,0,0.05-0.01,0.07
		c-0.05,0.06-0.1,0.11-0.15,0.16c-0.99,0.81-2.13,1.29-3.36,1.6c-0.55,0.14-1.11,0.2-1.67,0.25c-0.67,0.07-1.32-0.05-1.96-0.24
		c-1.05-0.33-1.98-0.86-2.73-1.68C65.66,96,65.58,95.91,65.61,95.75z"/>
	<path class="st1" d="M161.18,46.39c-0.27-0.01-0.53-0.02-0.79-0.14c-0.61-0.29-0.92-0.79-0.98-1.45c-0.02-0.19-0.01-0.39,0.02-0.59
		c0.08-0.63,0.22-1.26,0.46-1.85c0.49-1.25,1.19-2.37,2.11-3.35c0.42-0.45,0.89-0.85,1.42-1.17c0.34-0.21,0.7-0.35,1.1-0.39
		c0.12-0.01,0.25-0.01,0.37,0c0.75,0.09,1.22,0.71,1.09,1.46c-0.05,0.29-0.14,0.57-0.26,0.84c-0.25,0.54-0.56,1.04-0.95,1.48
		c-0.9,1.01-1.96,1.78-3.22,2.27c-0.7,0.28-0.6,0.19-0.75,0.93c-0.04,0.21-0.06,0.44-0.07,0.66c0,0.09,0.03,0.19,0.07,0.28
		c0.07,0.14,0.18,0.24,0.34,0.24c0.15,0,0.3-0.02,0.43-0.06c0.31-0.1,0.58-0.27,0.83-0.47c0.55-0.42,1-0.95,1.38-1.53
		c0.21-0.33,0.4-0.68,0.59-1.02c0.08-0.13,0.17-0.18,0.3-0.14c0.12,0.04,0.23,0.08,0.35,0.13c0.09,0.03,0.13,0.15,0.09,0.25
		c-0.47,1.16-1.17,2.16-2.18,2.92c-0.23,0.18-0.49,0.33-0.75,0.46C161.87,46.33,161.53,46.4,161.18,46.39z M161.27,42.59
		c-0.02,0.05-0.01,0.12,0.01,0.15c0.06,0.06,0.13,0.02,0.19-0.02c1.06-0.69,1.95-1.56,2.67-2.6c0.22-0.32,0.42-0.66,0.59-1.02
		c0.09-0.2,0.15-0.41,0.17-0.64c0.01-0.11-0.13-0.24-0.24-0.22c-0.07,0.01-0.15,0.01-0.21,0.04c-0.23,0.1-0.43,0.24-0.6,0.41
		c-0.27,0.28-0.55,0.56-0.79,0.87C162.31,40.49,161.78,41.55,161.27,42.59z"/>
	<path class="st1" d="M196.66,95.69c-1.64-0.08-3.21-0.44-4.62-1.31c-0.29-0.18-0.59-0.35-0.8-0.64c-0.01-0.02-0.01-0.05,0-0.07
		c0.01-0.02,0.04-0.03,0.06-0.03c0.17,0.02,0.34,0.03,0.5,0.07c0.57,0.14,1.14,0.29,1.71,0.43c0.19,0.05,0.39,0.06,0.58,0.11
		c0.47,0.13,0.93,0.08,1.38-0.05c0.03-0.01,0.04-0.06,0.05-0.1c0-0.01-0.03-0.04-0.05-0.04c-0.27-0.04-0.54-0.08-0.8-0.1
		c-0.64-0.05-1.26-0.22-1.86-0.44c-0.34-0.13-0.69-0.26-1.03-0.39c-0.1-0.04-0.12-0.18-0.05-0.24c0.02-0.02,0.03-0.04,0.05-0.05
		c0.63-0.53,1.36-0.87,2.16-1.07c0.07-0.02,0.14-0.03,0.22-0.04c0.86-0.06,1.72-0.05,2.54,0.26c0.41,0.16,0.83,0.3,1.23,0.48
		c0.65,0.3,1.32,0.54,2,0.74c0.35,0.1,0.7,0.21,1.06,0.32c0.13,0.04,0.17,0.19,0.08,0.29c-0.02,0.02-0.03,0.04-0.05,0.06
		c-1.01,0.95-2.17,1.6-3.56,1.79c-0.07,0.01-0.15,0.02-0.22,0.02C197.05,95.69,196.86,95.69,196.66,95.69z"/>
	<path class="st1" d="M59.38,94.13c0.01,0.02,0.02,0.05,0.04,0.05c0.42,0.14,0.85,0.17,1.3,0.1c0.8-0.13,1.58-0.36,2.36-0.56
		c0.19-0.05,0.38-0.11,0.58-0.08c0.02,0,0.04,0.02,0.05,0.04c0.01,0.02,0.02,0.06,0,0.07c-0.23,0.19-0.44,0.39-0.69,0.55
		c-0.64,0.43-1.33,0.74-2.07,0.95c-0.47,0.13-0.96,0.22-1.44,0.33c-0.58,0.14-1.17,0.13-1.76,0.12c-0.42-0.01-0.83-0.1-1.23-0.22
		c-0.96-0.29-1.78-0.82-2.53-1.48c-0.07-0.06-0.13-0.15-0.19-0.22c-0.04-0.04,0-0.17,0.05-0.19c0.21-0.07,0.42-0.15,0.63-0.22
		c0.35-0.11,0.71-0.21,1.06-0.32c0.45-0.14,0.88-0.31,1.31-0.5c0.65-0.29,1.3-0.58,2.01-0.72c1.59-0.32,3.03-0.03,4.28,1.03
		c0.14,0.12,0.11,0.26-0.08,0.33c-0.51,0.19-1.01,0.38-1.52,0.55c-0.59,0.2-1.2,0.24-1.81,0.31C59.6,94.04,59.47,94.02,59.38,94.13z
		"/>
	<path class="st1" d="M42.57,89.85c0.46-0.1,0.91-0.22,1.37-0.3c0.7-0.12,1.38-0.33,2.06-0.55c0.23-0.07,0.47-0.16,0.7-0.22
		c0.82-0.22,1.66-0.25,2.49-0.14c0.88,0.11,1.63,0.51,2.27,1.13c0.24,0.23,0.22,0.36-0.09,0.45c-1.07,0.29-2.14,0.54-3.27,0.47
		c-0.1-0.01-0.19,0.01-0.29,0.03c-0.01,0-0.03,0.03-0.03,0.04c0,0.02,0.01,0.06,0.03,0.06c0.19,0.06,0.37,0.14,0.56,0.16
		c0.54,0.05,1.08,0.04,1.62-0.06c0.63-0.11,1.26-0.21,1.89-0.31c0.03,0,0.09,0.05,0.1,0.08c0.01,0.04-0.01,0.1-0.05,0.12
		c-0.36,0.27-0.75,0.46-1.17,0.62c-1.42,0.56-2.89,0.78-4.4,0.7c-0.24-0.01-0.49-0.07-0.72-0.13c-1.1-0.27-2.05-0.81-2.83-1.63
		c-0.08-0.09-0.17-0.18-0.23-0.29C42.55,90.03,42.57,89.95,42.57,89.85z"/>
	<path class="st1" d="M203.95,89.25c0.09-0.03,0.19-0.04,0.28-0.08c0.2-0.09,0.4-0.19,0.6-0.28c0.41-0.18,0.84-0.26,1.29-0.28
		c0.92-0.04,1.82,0.04,2.68,0.35c0.9,0.33,1.83,0.55,2.77,0.71c0.19,0.03,0.38,0.09,0.57,0.13c0.21,0.05,0.32,0.15,0.15,0.35
		c-0.51,0.61-1.12,1.1-1.85,1.43c-0.36,0.16-0.73,0.29-1.1,0.4c-0.38,0.12-0.77,0.16-1.16,0.16c-1.27,0.02-2.49-0.18-3.69-0.59
		c-0.53-0.18-1.05-0.41-1.51-0.75c-0.03-0.02-0.05-0.09-0.04-0.12c0.01-0.03,0.06-0.07,0.1-0.07c0.05-0.01,0.1,0.01,0.14,0.02
		c0.63,0.11,1.26,0.22,1.89,0.31c0.51,0.08,1.03,0.08,1.54,0.02c0.14-0.02,0.28-0.09,0.42-0.14c0.02-0.01,0.02-0.07,0.04-0.13
		c-0.13,0-0.25-0.01-0.37,0c-0.74,0.05-1.47-0.08-2.19-0.23c-0.34-0.07-0.67-0.16-1-0.25c-0.09-0.02-0.17-0.09-0.24-0.14
		c0.05-0.23,0.24-0.33,0.37-0.47c0.11-0.12,0.3-0.17,0.33-0.37C203.97,89.22,203.95,89.25,203.95,89.25z"/>
	<path class="st1" d="M160.78,117.74c-0.09-0.02-0.19-0.06-0.28-0.06c-0.59-0.01-1.18,0-1.77,0c-0.2,0-0.32,0.1-0.38,0.28
		c-0.13,0.42-0.27,0.84-0.39,1.27c-0.05,0.17,0.05,0.36,0.21,0.42c0.16,0.06,0.33,0.1,0.48,0.17c0.05,0.02,0.09,0.11,0.1,0.18
		c0.02,0.12-0.04,0.21-0.14,0.22c-0.1,0.01-0.2,0.02-0.29,0.02c-0.62,0-1.23,0-1.85,0c-0.14,0-0.29-0.03-0.42-0.04
		c-0.01-0.05-0.03-0.07-0.03-0.1c-0.01-0.19,0.02-0.28,0.14-0.29c0.62-0.09,0.92-0.51,1.13-1.04c0.39-1.01,0.8-2.01,1.2-3.01
		c0.39-0.98,0.78-1.96,1.18-2.94c0.06-0.16,0.13-0.31,0.19-0.45c0.06-0.04,0.1-0.08,0.14-0.09c0.47-0.15,0.49-0.22,0.69,0.32
		c0.68,1.87,1.37,3.74,2.06,5.61c0.1,0.28,0.22,0.55,0.33,0.82c0.16,0.39,0.42,0.66,0.84,0.76c0.07,0.02,0.16,0.03,0.2,0.08
		c0.05,0.05,0.07,0.13,0.07,0.2c0,0.07-0.03,0.14-0.12,0.16c-0.07,0.01-0.14,0.03-0.22,0.03c-0.93,0-1.87,0-2.8,0
		c-0.07,0-0.15-0.01-0.22-0.03c-0.09-0.02-0.12-0.09-0.12-0.16c0-0.07,0.01-0.17,0.06-0.2c0.12-0.08,0.26-0.13,0.39-0.19
		c0.13-0.06,0.17-0.17,0.16-0.3c0-0.07-0.01-0.15-0.03-0.22C161.14,118.67,161,118.2,160.78,117.74z M159.59,114.48
		c-0.31,0.8-0.58,1.53-0.81,2.27c-0.04,0.13,0.05,0.23,0.19,0.23c0.44,0,0.88,0,1.31,0c0.05,0,0.09-0.03,0.14-0.05
		c0-0.07,0.02-0.15,0-0.21c-0.22-0.67-0.45-1.34-0.68-2C159.73,114.64,159.67,114.59,159.59,114.48z"/>
	<path class="st1" d="M139.36,117.74c-0.19,0.25-0.24,0.57-0.35,0.87c-0.08,0.21-0.13,0.42-0.17,0.64
		c-0.04,0.18,0.06,0.34,0.23,0.41c0.14,0.05,0.28,0.1,0.42,0.14c0.08,0.03,0.14,0.14,0.12,0.24c-0.01,0.07-0.04,0.14-0.13,0.16
		c-0.05,0.01-0.1,0.02-0.14,0.02c-0.71,0-1.43,0-2.14,0c-0.07,0-0.15-0.02-0.21-0.05c-0.03-0.02-0.07-0.08-0.07-0.12
		c0-0.07,0-0.17,0.05-0.2c0.1-0.06,0.22-0.1,0.33-0.13c0.33-0.1,0.56-0.3,0.69-0.61c0.09-0.2,0.18-0.4,0.27-0.61
		c0.73-1.82,1.46-3.65,2.19-5.47c0.05-0.14,0.13-0.27,0.16-0.41c0.08-0.36,0.37-0.42,0.67-0.47c0.04-0.01,0.1,0.03,0.12,0.07
		c0.07,0.13,0.14,0.26,0.19,0.39c0.36,0.99,0.72,1.98,1.08,2.98c0.35,0.95,0.69,1.89,1.05,2.83c0.09,0.25,0.2,0.5,0.32,0.74
		c0.13,0.28,0.34,0.48,0.65,0.56c0.09,0.03,0.19,0.05,0.28,0.09c0.05,0.02,0.08,0.18,0.07,0.27c-0.01,0.09-0.08,0.12-0.15,0.13
		c-0.1,0.02-0.2,0.02-0.29,0.02c-0.86,0-1.72,0-2.58,0c-0.07,0-0.15,0-0.22-0.01c-0.12-0.01-0.2-0.07-0.21-0.16
		c-0.02-0.13,0.03-0.22,0.17-0.29c0.11-0.05,0.23-0.09,0.34-0.15c0.11-0.05,0.18-0.2,0.14-0.31c-0.08-0.26-0.16-0.52-0.24-0.77
		c-0.07-0.21-0.14-0.42-0.22-0.63c-0.06-0.14-0.16-0.25-0.33-0.25c-0.64,0-1.28,0-1.92,0.01
		C139.47,117.69,139.42,117.72,139.36,117.74z M141.31,116.94c0.01-0.07,0.03-0.13,0.02-0.17c-0.24-0.75-0.48-1.49-0.76-2.22
		c-0.04,0.02-0.06,0.03-0.08,0.04c-0.02,0.01-0.04,0.03-0.05,0.05c-0.3,0.64-0.5,1.33-0.74,1.99c-0.03,0.09-0.04,0.18-0.07,0.31
		C140.21,117,140.76,117.01,141.31,116.94z"/>
	<path class="st1" d="M33.03,86.13c0.27-0.05,0.56-0.12,0.85-0.15c0.98-0.1,1.94-0.29,2.9-0.51c0.38-0.09,0.77-0.17,1.16-0.21
		c0.98-0.1,1.91,0.09,2.78,0.55c0.42,0.22,0.77,0.52,1.05,0.91c0.03,0.04,0.04,0.09,0.05,0.14c0.01,0.02,0,0.05-0.01,0.08
		c-0.17,0.1-0.36,0.14-0.55,0.17c-0.94,0.18-1.9,0.29-2.86,0.2c-0.1-0.01-0.19,0.01-0.29,0.01c-0.01,0-0.03,0.03-0.03,0.04
		c0,0.02,0.01,0.05,0.03,0.07c0.12,0.09,0.25,0.15,0.4,0.16c0.27,0.02,0.54,0.06,0.81,0.05c0.66-0.02,1.33-0.02,1.99-0.13
		c0.24-0.04,0.49-0.03,0.73-0.04c0.02,0,0.05,0.03,0.05,0.04c-0.01,0.05-0.01,0.11-0.04,0.13c-0.37,0.25-0.79,0.39-1.21,0.53
		c-0.9,0.28-1.81,0.46-2.75,0.46c-0.39,0-0.79,0.01-1.18-0.01c-1.09-0.07-2.06-0.43-2.89-1.14c-0.36-0.31-0.7-0.62-0.95-1.03
		C33.01,86.35,32.97,86.26,33.03,86.13z"/>
	<path class="st1" d="M213.1,86.92c-0.02-0.11,0.04-0.2,0.1-0.27c0.31-0.4,0.69-0.7,1.14-0.91c0.93-0.43,1.91-0.61,2.94-0.43
		c0.53,0.09,1.06,0.2,1.58,0.33c0.64,0.16,1.3,0.22,1.96,0.32c0.15,0.02,0.29,0.02,0.44,0.05c0.22,0.04,0.43,0.09,0.64,0.13
		c0.01,0.06,0.04,0.11,0.02,0.15c-0.02,0.07-0.05,0.14-0.09,0.2c-0.77,1.01-1.73,1.72-2.99,2c-0.36,0.08-0.72,0.13-1.09,0.13
		c-0.44,0-0.89,0.01-1.33-0.01c-1.21-0.07-2.37-0.36-3.46-0.9c-0.09-0.05-0.15-0.11-0.09-0.24c0.29-0.02,0.58,0.03,0.87,0.07
		c0.85,0.1,1.71,0.16,2.57,0.08c0.17-0.02,0.34-0.05,0.49-0.15c0.04-0.02,0.05-0.08,0.09-0.14c-0.43,0.01-0.85,0.04-1.26,0.02
		c-0.44-0.02-0.89-0.01-1.32-0.11C213.89,87.11,213.47,87.12,213.1,86.92z"/>
	<path class="st1" d="M32.32,50.92c0.01-0.6,0.06-1.04,0.16-1.47c0.22-0.96,0.57-1.88,1.06-2.73c0.31-0.53,0.68-1.02,1.15-1.43
		c0.36-0.32,0.75-0.54,1.24-0.59c0.64-0.06,1.18,0.17,1.47,0.85c0.15,0.37,0.23,0.75,0.26,1.14c0.05,0.77-0.04,1.52-0.25,2.25
		c-0.32,1.09-0.79,2.11-1.5,3.01c-0.2,0.25-0.42,0.48-0.64,0.71c-0.21,0.21-0.46,0.37-0.72,0.5c-0.3,0.15-0.61,0.17-0.93,0.13
		c-0.28-0.04-0.5-0.19-0.69-0.39c-0.34-0.35-0.49-0.79-0.55-1.26C32.32,51.35,32.32,51.06,32.32,50.92z M33.4,51.57
		c0,0.1-0.02,0.2,0,0.29c0.04,0.17,0.08,0.33,0.14,0.49c0.07,0.18,0.33,0.27,0.5,0.18c0.09-0.05,0.18-0.09,0.25-0.16
		c0.15-0.16,0.31-0.32,0.42-0.51c0.21-0.36,0.42-0.73,0.59-1.1c0.38-0.83,0.65-1.7,0.89-2.57c0.16-0.57,0.28-1.15,0.34-1.73
		c0.03-0.25,0.02-0.49-0.05-0.73c-0.05-0.17-0.21-0.28-0.39-0.27c-0.12,0.01-0.24,0.03-0.35,0.11c-0.2,0.15-0.37,0.32-0.5,0.54
		c-0.19,0.32-0.38,0.63-0.54,0.96c-0.41,0.84-0.73,1.72-1,2.62C33.53,50.3,33.42,50.93,33.4,51.57z"/>
	<path class="st1" d="M49.87,50.77c0.01-0.67,0.15-1.32,0.34-1.95c0.27-0.92,0.67-1.79,1.22-2.58c0.27-0.39,0.58-0.73,0.94-1.03
		c0.33-0.27,0.69-0.46,1.13-0.49c0.12-0.01,0.24-0.01,0.37,0c0.49,0.03,0.82,0.3,1.04,0.71c0.21,0.4,0.28,0.83,0.32,1.28
		c0.05,0.64,0,1.28-0.16,1.9c-0.32,1.27-0.85,2.45-1.68,3.48c-0.17,0.21-0.36,0.41-0.55,0.6c-0.21,0.21-0.46,0.37-0.72,0.5
		c-0.3,0.15-0.61,0.17-0.93,0.13c-0.25-0.03-0.46-0.17-0.64-0.34c-0.36-0.34-0.52-0.77-0.59-1.24
		C49.89,51.41,49.89,51.08,49.87,50.77z M50.97,51.57c0,0.1,0,0.2,0,0.3c0.01,0.18,0.07,0.34,0.14,0.49
		c0.09,0.18,0.33,0.27,0.5,0.18c0.09-0.05,0.18-0.09,0.25-0.16c0.16-0.18,0.34-0.36,0.46-0.57c0.2-0.34,0.39-0.68,0.55-1.04
		c0.38-0.83,0.65-1.7,0.89-2.58c0.16-0.59,0.29-1.19,0.35-1.81c0.02-0.22,0-0.44-0.06-0.66c-0.04-0.16-0.21-0.28-0.4-0.27
		c-0.12,0.01-0.24,0.03-0.35,0.11c-0.2,0.15-0.37,0.33-0.5,0.54c-0.18,0.29-0.36,0.59-0.51,0.9c-0.42,0.86-0.76,1.76-1.03,2.68
		C51.1,50.3,50.98,50.93,50.97,51.57z"/>
	<path class="st1" d="M222.84,83.1c0.06-0.09,0.09-0.18,0.15-0.19c0.48-0.12,0.95-0.23,1.43-0.34c0.43-0.1,0.86-0.21,1.27-0.38
		c0.29-0.13,0.6-0.24,0.78-0.52c0.01-0.01,0.01-0.04,0-0.05c-0.01-0.02-0.05-0.04-0.06-0.03c-0.14,0.05-0.27,0.11-0.4,0.17
		c-0.56,0.26-1.15,0.42-1.76,0.51c-0.44,0.07-0.87,0.19-1.31,0.16c-0.09-0.01-0.17-0.12-0.15-0.21c0.19-0.69,0.56-1.25,1.13-1.68
		c0.48-0.36,1.01-0.6,1.58-0.76c0.57-0.17,1.16-0.24,1.74-0.28c0.93-0.06,1.85-0.22,2.77-0.41c0.14-0.03,0.29-0.03,0.44-0.02
		c0.03,0,0.08,0.06,0.09,0.1c0.01,0.07,0.01,0.15,0,0.22c-0.28,1.38-1.11,2.33-2.34,2.95c-0.62,0.31-1.28,0.5-1.95,0.67
		c-0.6,0.15-1.21,0.18-1.82,0.25c-0.32,0.04-0.64-0.01-0.95-0.06C223.26,83.15,223.06,83.13,222.84,83.1z"/>
	<path class="st1" d="M32.07,83.09c-0.78,0.16-1.52,0.17-2.29,0.08c-0.99-0.12-1.93-0.37-2.84-0.75c-0.67-0.28-1.23-0.72-1.7-1.27
		c-0.46-0.54-0.74-1.16-0.85-1.85c-0.01-0.05-0.01-0.1,0.01-0.14c0.02-0.04,0.06-0.1,0.09-0.1c0.15,0,0.29,0,0.44,0.03
		c0.91,0.2,1.83,0.34,2.77,0.41c0.71,0.05,1.42,0.14,2.09,0.39c0.44,0.16,0.86,0.37,1.23,0.65c0.57,0.43,0.94,1,1.13,1.69
		c0.02,0.09-0.07,0.2-0.16,0.19c-0.22-0.01-0.44-0.01-0.66-0.05c-0.95-0.15-1.89-0.34-2.75-0.79c-0.03-0.02-0.09,0.01-0.13,0.02
		c0.02,0.04,0.02,0.09,0.05,0.12c0.09,0.08,0.18,0.17,0.28,0.23c0.33,0.22,0.71,0.34,1.09,0.45c0.43,0.12,0.86,0.21,1.29,0.31
		c0.26,0.06,0.53,0.12,0.79,0.2C31.99,82.92,32.02,83.01,32.07,83.09z"/>
	<path class="st1" d="M80.73,90.84c1.68,0.04,3.17,0.6,4.4,1.77c0.68,0.65,1.25,1.39,1.72,2.2c0.25,0.42,0.46,0.87,0.68,1.3
		c0.04,0.08,0.04,0.19,0.05,0.29c0,0.03-0.07,0.1-0.08,0.09c-0.27-0.12-0.54-0.23-0.8-0.37c-0.08-0.04-0.14-0.13-0.2-0.21
		c-0.14-0.17-0.27-0.35-0.4-0.53c-0.41-0.53-0.92-0.95-1.51-1.28c-0.04-0.02-0.11-0.03-0.14-0.01c-0.07,0.07,0.01,0.12,0.05,0.17
		c0.17,0.21,0.36,0.41,0.53,0.61c0.2,0.25,0.39,0.5,0.59,0.76c0.02,0.03,0.03,0.1,0.01,0.14c-0.02,0.03-0.09,0.05-0.13,0.04
		c-0.74-0.13-1.47-0.01-2.19,0.13c-0.12,0.02-0.24,0.05-0.36,0.05c-0.1,0.01-0.2-0.03-0.25-0.12c-0.1-0.2-0.21-0.39-0.29-0.59
		c-0.15-0.39-0.29-0.78-0.42-1.18c-0.19-0.62-0.5-1.17-0.88-1.69c-0.34-0.45-0.67-0.91-1-1.37c-0.02-0.03-0.02-0.1,0-0.13
		c0.02-0.03,0.07-0.07,0.11-0.07C80.39,90.83,80.56,90.84,80.73,90.84z"/>
	<path class="st1" d="M170.4,93.99c-0.09,0.08-0.18,0.17-0.28,0.23c-0.57,0.36-1.04,0.82-1.44,1.35c-0.46,0.62-0.47,0.61-1.21,0.9
		c-0.05,0.02-0.09,0.01-0.12-0.05c-0.01-0.02-0.02-0.05-0.01-0.07c0.02-0.1,0.02-0.2,0.06-0.28c0.58-1.26,1.32-2.41,2.31-3.39
		c0.92-0.9,2-1.47,3.27-1.72c0.59-0.11,1.17-0.15,1.76-0.11c0.06,0,0.12,0.11,0.09,0.17c-0.18,0.26-0.37,0.52-0.55,0.78
		c-0.19,0.26-0.38,0.51-0.57,0.77c-0.32,0.44-0.57,0.91-0.74,1.43c-0.09,0.28-0.19,0.56-0.29,0.84c-0.08,0.23-0.17,0.46-0.26,0.69
		c-0.23,0.53-0.27,0.53-0.84,0.42c-0.72-0.14-1.45-0.25-2.19-0.13c-0.06,0.01-0.09-0.03-0.09-0.08c0-0.02-0.01-0.05,0-0.07
		c0.16-0.22,0.31-0.44,0.48-0.65c0.2-0.25,0.41-0.49,0.61-0.74c0.07-0.09,0.04-0.18-0.01-0.27c0.05,0.02,0.06,0.02,0.01,0.03
		C170.39,94.02,170.39,94,170.4,93.99z"/>
	<path class="st1" d="M37.79,50.8c0.04-1.04,0.28-2.04,0.74-2.98c0.4-0.8,0.9-1.52,1.55-2.14c0.38-0.36,0.8-0.66,1.29-0.83
		c0.4-0.14,0.81-0.21,1.23-0.1c0.12,0.03,0.23,0.08,0.34,0.14c0.16,0.09,0.25,0.24,0.29,0.41c0.05,0.25,0.03,0.49-0.1,0.71
		c-0.12,0.21-0.31,0.31-0.54,0.33c-0.27,0.02-0.48-0.1-0.61-0.34c-0.04-0.06-0.05-0.14-0.08-0.21c-0.13-0.33-0.2-0.35-0.44-0.16
		c-0.39,0.3-0.72,0.67-0.98,1.1c-0.09,0.15-0.17,0.3-0.24,0.46c-0.53,1.14-0.94,2.32-1.18,3.56C39,51.03,39,51.33,38.98,51.62
		c-0.01,0.2,0.06,0.39,0.15,0.56c0.19,0.4,0.58,0.44,0.87,0.35c0.19-0.06,0.35-0.18,0.49-0.32c0.27-0.25,0.5-0.54,0.7-0.85
		c0.37-0.58,0.67-1.2,0.91-1.85c0.07-0.18,0.13-0.37,0.2-0.56c0.06-0.16,0.18-0.22,0.35-0.21c0.07,0.01,0.15,0,0.22,0.02
		c0.04,0.01,0.07,0.07,0.09,0.11c0.02,0.04,0.02,0.1,0.01,0.15c-0.23,0.99-0.58,1.93-1.16,2.77c-0.24,0.35-0.52,0.66-0.83,0.94
		c-0.24,0.22-0.51,0.38-0.82,0.49c-0.38,0.13-0.78,0.13-1.16,0.04c-0.37-0.09-0.66-0.32-0.84-0.67c-0.2-0.4-0.35-0.81-0.36-1.27
		C37.79,51.14,37.79,50.97,37.79,50.8z"/>
	<path class="st1" d="M65.01,48.81c0.16-0.09,0.31-0.07,0.46-0.05c0.06,0.01,0.13,0.1,0.12,0.16c-0.01,0.07,0,0.15-0.02,0.22
		c-0.22,0.89-0.53,1.74-1.04,2.51c-0.24,0.37-0.52,0.72-0.85,1.01c-0.16,0.15-0.35,0.27-0.53,0.39c-0.44,0.28-0.93,0.31-1.42,0.22
		c-0.41-0.07-0.73-0.3-0.92-0.68c-0.23-0.44-0.38-0.91-0.4-1.41c-0.03-0.65,0.08-1.27,0.23-1.9c0.31-1.3,0.96-2.41,1.86-3.39
		c0.28-0.31,0.61-0.58,0.96-0.8c0.38-0.24,0.8-0.37,1.25-0.41c0.25-0.02,0.49,0.01,0.72,0.1c0.27,0.11,0.44,0.31,0.45,0.62
		c0,0.12,0,0.25-0.02,0.37c-0.07,0.34-0.31,0.52-0.61,0.56c-0.29,0.04-0.58-0.16-0.69-0.45c-0.03-0.09-0.05-0.19-0.08-0.28
		c-0.03-0.09-0.16-0.12-0.24-0.07c-0.06,0.04-0.13,0.08-0.19,0.12c-0.3,0.23-0.55,0.49-0.76,0.8c-0.12,0.18-0.25,0.37-0.34,0.57
		c-0.61,1.27-1.07,2.59-1.3,3.98c-0.06,0.37-0.07,0.73,0.08,1.09c0.18,0.44,0.6,0.61,1.02,0.4c0.22-0.11,0.41-0.27,0.58-0.45
		c0.28-0.31,0.52-0.65,0.73-1.02c0.32-0.56,0.57-1.14,0.79-1.75C64.89,49.11,64.95,48.95,65.01,48.81z"/>
	<path class="st1" d="M182.52,92.1c-0.59,0.42-1.04,0.97-1.4,1.59c-0.27,0.46-0.41,0.55-1,0.77c-0.06-0.09-0.05-0.19-0.02-0.28
		c0.38-1.18,0.93-2.27,1.71-3.23c0.83-1.04,1.91-1.68,3.19-1.98c0.38-0.09,0.76-0.2,1.16-0.15c0.06,0.01,0.12,0.11,0.09,0.17
		c-0.03,0.07-0.06,0.13-0.1,0.2c-0.17,0.3-0.33,0.6-0.52,0.89c-0.42,0.65-0.69,1.35-0.84,2.11c-0.07,0.36-0.18,0.71-0.27,1.07
		c-0.02,0.07-0.04,0.14-0.08,0.21c-0.06,0.12-0.14,0.2-0.28,0.2c-0.1,0-0.2-0.01-0.29-0.01c-0.66-0.04-1.32-0.06-1.98,0.04
		c-0.03,0-0.07-0.05-0.1-0.08c-0.01-0.01-0.01-0.05,0-0.07c0.18-0.29,0.37-0.58,0.55-0.87c0.08-0.12,0.17-0.24,0.23-0.38
		c0.02-0.05-0.03-0.13-0.05-0.2c0.04,0.05,0.08,0.13,0.13,0.01C182.6,92.1,182.56,92.1,182.52,92.1z"/>
	<path class="st1" d="M73.12,93.63c-0.02,0-0.05,0.02-0.07,0.01c-0.74-0.05-1.47-0.07-2.21-0.01c-0.05,0-0.1,0.01-0.14-0.01
		c-0.06-0.03-0.15-0.06-0.17-0.12c-0.08-0.18-0.16-0.36-0.21-0.55c-0.1-0.36-0.19-0.71-0.26-1.07c-0.11-0.59-0.34-1.13-0.65-1.63
		c-0.22-0.36-0.43-0.72-0.64-1.08c-0.04-0.06-0.06-0.13-0.09-0.2c-0.02-0.05,0.05-0.16,0.1-0.16c0.05,0,0.1-0.02,0.15-0.01
		c0.53,0.08,1.07,0.16,1.58,0.33c1.11,0.37,2.01,1.03,2.71,1.95c0.73,0.94,1.25,2,1.61,3.13c0.03,0.09,0.03,0.19-0.06,0.27
		c-0.24-0.06-0.42-0.23-0.63-0.35c-0.1-0.06-0.18-0.17-0.24-0.27c-0.12-0.18-0.22-0.38-0.35-0.56c-0.31-0.45-0.65-0.86-1.13-1.14
		c-0.02-0.01-0.05-0.01-0.07,0c-0.05,0.02-0.06,0.07-0.03,0.12c0.25,0.37,0.49,0.74,0.74,1.1c0.06,0.08,0.09,0.17,0.05,0.28
		L73.12,93.63z"/>
	<path class="st1" d="M194.49,90.06c-0.24,0.09-0.41,0.26-0.59,0.43c-0.33,0.3-0.62,0.64-0.84,1.02c-0.22,0.39-0.55,0.61-0.95,0.77
		c-0.05,0.02-0.11-0.01-0.11-0.07c0-0.1,0-0.2,0.04-0.29c0.44-1.22,1.07-2.32,1.97-3.26c0.75-0.78,1.69-1.26,2.74-1.5
		c0.36-0.08,0.71-0.19,1.09-0.17c0.1,0.01,0.19,0.01,0.29,0.02c0.01,0.06,0.03,0.12,0.02,0.15c-0.06,0.13-0.14,0.26-0.22,0.38
		c-0.08,0.13-0.16,0.25-0.24,0.37c-0.55,0.8-0.93,1.67-1.11,2.63c-0.05,0.29-0.13,0.58-0.26,0.84c-0.06,0.12-0.16,0.18-0.3,0.17
		c-0.2-0.02-0.39-0.04-0.59-0.07c-0.39-0.06-0.78-0.06-1.17,0.01c-0.16,0.03-0.33,0.1-0.52-0.02c0.03-0.09,0.05-0.19,0.1-0.26
		c0.2-0.31,0.41-0.62,0.61-0.92c0.06-0.09,0.07-0.18,0.02-0.27c0.02,0.01,0.03,0.03,0.05,0.03c0.01,0,0.03-0.01,0.04-0.01
		C194.54,90.06,194.52,90.06,194.49,90.06z"/>
	<path class="st1" d="M60.49,89.99c-0.07,0.11-0.12,0.22-0.03,0.34c0.25,0.31,0.45,0.64,0.64,0.98c0.03,0.06,0.03,0.13,0.04,0.2
		c-0.13,0.07-0.25,0.05-0.37,0.02c-0.49-0.1-0.97-0.09-1.46-0.02c-0.7,0.11-0.69,0.08-0.9-0.62c-0.09-0.31-0.16-0.62-0.23-0.93
		c-0.12-0.53-0.33-1.03-0.62-1.49c-0.26-0.41-0.52-0.83-0.77-1.25c-0.03-0.05-0.01-0.13-0.02-0.22c0.19,0,0.36-0.02,0.53,0
		c0.8,0.11,1.59,0.3,2.31,0.69c0.7,0.39,1.3,0.88,1.78,1.51c0.61,0.81,1.11,1.67,1.45,2.63c0.04,0.11,0.05,0.24,0.06,0.35
		c0,0.06-0.05,0.09-0.1,0.07c-0.37-0.14-0.69-0.34-0.91-0.7c-0.34-0.57-0.78-1.07-1.33-1.46C60.53,90.08,60.52,90.03,60.49,89.99
		c-0.02,0.01-0.03,0.03-0.05,0.04c-0.01,0.01-0.02,0.01-0.03,0.01C60.44,90.02,60.47,90,60.49,89.99z"/>
	<path class="st1" d="M49.42,87.04c-0.07,0.11-0.11,0.22-0.04,0.34c0.14,0.23,0.28,0.46,0.42,0.69c0.06,0.11,0.1,0.22,0.14,0.34
		c0.02,0.06-0.06,0.17-0.11,0.15c-0.14-0.03-0.28-0.08-0.43-0.1c-0.53-0.07-1.07-0.18-1.61-0.07c-0.02,0-0.05,0-0.07,0
		c-0.11,0-0.25-0.1-0.27-0.21c-0.06-0.31-0.14-0.63-0.16-0.94c-0.03-0.7-0.21-1.36-0.51-1.98c-0.11-0.22-0.22-0.44-0.32-0.66
		c-0.07-0.15-0.13-0.32-0.2-0.49c0.09-0.02,0.16-0.05,0.22-0.06c0.25-0.02,0.49,0.06,0.72,0.13c0.93,0.26,1.81,0.63,2.5,1.34
		c0.12,0.12,0.25,0.24,0.35,0.38c0.7,1,1.22,2.07,1.43,3.28c0.01,0.04-0.02,0.09-0.05,0.13c-0.01,0.01-0.05,0.03-0.07,0.02
		c-0.32-0.14-0.62-0.29-0.77-0.63c-0.24-0.55-0.59-1.02-1.03-1.42C49.51,87.21,49.47,87.12,49.42,87.04
		c-0.04,0.01-0.07,0.03-0.09,0.04C49.35,87.07,49.38,87.05,49.42,87.04z"/>
	<path class="st1" d="M205.59,87.13c-0.45,0.26-0.76,0.65-1.02,1.09c-0.1,0.16-0.19,0.34-0.26,0.51c-0.06,0.14-0.15,0.24-0.27,0.33
		c-0.06,0.05-0.08,0.11-0.07,0.19c0,0,0.02-0.02,0.02-0.02c-0.17-0.08-0.27,0.08-0.4,0.11c-0.06,0.01-0.15-0.06-0.15-0.12
		c0-0.02,0-0.05,0-0.07c0.24-1.17,0.72-2.24,1.41-3.21c0.38-0.52,0.88-0.93,1.46-1.21c0.55-0.27,1.12-0.49,1.72-0.62
		c0.17-0.03,0.34-0.03,0.51-0.05c0.08-0.01,0.13,0.07,0.09,0.15c-0.1,0.22-0.21,0.44-0.3,0.67c-0.17,0.41-0.35,0.81-0.5,1.22
		c-0.11,0.3-0.14,0.62-0.17,0.94c-0.04,0.39-0.12,0.77-0.18,1.16c-0.02,0.11-0.17,0.22-0.27,0.2c-0.72-0.1-1.42,0.01-2.11,0.17
		c-0.06,0.01-0.14-0.09-0.11-0.15c0.05-0.11,0.08-0.23,0.14-0.34c0.15-0.26,0.31-0.5,0.45-0.76c0.03-0.05,0-0.14,0-0.21
		c0.07,0.02,0.09,0.01,0.07-0.03C205.62,87.1,205.6,87.11,205.59,87.13z"/>
	<path class="st1" d="M40,84.06c0.02,0.23,0.17,0.4,0.25,0.61c0.06,0.18,0.13,0.37,0.19,0.55c0.02,0.06-0.07,0.14-0.14,0.12
		c-0.07-0.01-0.15-0.02-0.21-0.04c-0.47-0.16-0.95-0.25-1.44-0.24c-0.17,0-0.34-0.02-0.52-0.03C38.07,84.9,38,84.78,38,84.67
		c-0.01-0.29-0.02-0.59,0.02-0.88c0.07-0.62-0.02-1.22-0.21-1.81c-0.08-0.26-0.17-0.51-0.25-0.77c-0.02-0.07-0.03-0.14-0.05-0.22
		c-0.02-0.1,0.07-0.2,0.17-0.18c1.59,0.3,2.84,1.06,3.52,2.59c0.36,0.81,0.6,1.66,0.6,2.56c0,0.07-0.03,0.13-0.06,0.2
		c-0.01,0.01-0.05,0.03-0.07,0.02c-0.29-0.15-0.54-0.33-0.65-0.66c-0.06-0.16-0.11-0.33-0.17-0.49c-0.15-0.37-0.36-0.7-0.66-0.96
		c-0.06-0.05-0.13-0.05-0.2-0.01c0.01-0.02,0.03-0.04,0.04-0.05c0-0.01-0.02-0.05-0.03-0.04C39.95,83.98,39.95,84.02,40,84.06z"/>
	<path class="st1" d="M216.78,85.03c-0.11,0.01-0.23,0.03-0.35,0.03c-0.57-0.01-1.13,0.07-1.66,0.27c-0.04,0.02-0.1,0.01-0.14,0.02
		c-0.06,0.01-0.15-0.08-0.13-0.14c0.03-0.09,0.04-0.19,0.08-0.28c0.11-0.27,0.23-0.54,0.34-0.81c0.01-0.03-0.03-0.08-0.06-0.11
		c-0.01-0.01-0.05,0-0.07,0.02c-0.34,0.3-0.58,0.66-0.74,1.08c-0.03,0.07-0.05,0.14-0.06,0.21c-0.1,0.38-0.33,0.65-0.67,0.84
		c-0.03,0.02-0.09,0-0.14-0.01c-0.01,0-0.03-0.04-0.03-0.06c0.01-0.29-0.02-0.59,0.03-0.88c0.11-0.65,0.29-1.29,0.58-1.9
		c0.41-0.88,1.05-1.53,1.9-1.98c0.48-0.25,0.99-0.42,1.52-0.53c0.18-0.04,0.28,0.08,0.22,0.26c-0.09,0.3-0.19,0.61-0.29,0.91
		c-0.21,0.61-0.3,1.24-0.21,1.89c0.03,0.24,0.03,0.49,0.02,0.74c0,0.1-0.03,0.19-0.06,0.29C216.85,84.93,216.82,84.97,216.78,85.03z
		"/>
	<path class="st1" d="M88.69,97.1c-0.12-0.06-0.25-0.13-0.37-0.2c-0.06-0.03-0.09-0.07-0.06-0.1c0.03-0.03,0.08-0.05,0.12-0.05
		c0.1-0.01,0.2,0,0.29,0c0.42,0,0.83,0,1.24-0.11c0.16-0.04,0.34-0.01,0.51-0.01c0.06,0,0.09,0.04,0.08,0.1c0,0.05,0,0.11-0.03,0.13
		c-0.11,0.09-0.23,0.19-0.36,0.25c-0.54,0.22-1.09,0.42-1.67,0.56c-0.02,0-0.06-0.01-0.06-0.02c-0.01-0.04-0.02-0.1,0-0.12
		C88.48,97.39,88.66,97.31,88.69,97.1z"/>
	<path class="st1" d="M166.67,96.86c-0.17,0.09-0.29,0.16-0.42,0.23c0,0.04-0.01,0.1,0.01,0.13c0.09,0.11,0.19,0.22,0.28,0.33
		c0.01,0.02,0.02,0.06,0.01,0.07c-0.03,0.02-0.08,0.06-0.1,0.05c-0.53-0.17-1.07-0.34-1.59-0.53c-0.16-0.06-0.32-0.14-0.42-0.28
		c-0.02-0.03-0.02-0.09-0.02-0.14c0-0.06,0.03-0.09,0.09-0.09c0.05,0,0.1-0.02,0.14-0.02c0.07,0,0.15-0.01,0.22,0.01
		c0.52,0.15,1.06,0.12,1.6,0.13C166.53,96.75,166.58,96.81,166.67,96.86z"/>
	<path class="st1" d="M76.36,94.84c0.32,0,0.63,0,0.95,0c0.06,0,0.09,0.04,0.08,0.1c-0.01,0.04-0.02,0.1-0.05,0.13
		c-0.05,0.05-0.11,0.1-0.18,0.12c-0.53,0.18-1.06,0.34-1.63,0.38c-0.02,0-0.05-0.01-0.06-0.03c-0.04-0.05-0.02-0.09,0.03-0.13
		c0.06-0.04,0.11-0.09,0.17-0.14c0.09-0.08,0.08-0.14-0.03-0.23c-0.06-0.05-0.12-0.08-0.18-0.12c-0.01-0.01-0.02-0.04-0.01-0.05
		c0.01-0.02,0.03-0.05,0.04-0.05c0.29,0,0.58,0,0.87,0C76.36,94.82,76.36,94.83,76.36,94.84z"/>
	<path class="st1" d="M179.44,95.59c-0.56-0.05-1.1-0.21-1.63-0.38c-0.11-0.04-0.23-0.09-0.27-0.22c-0.01-0.04,0.01-0.12,0.03-0.12
		c0.09-0.03,0.19-0.05,0.28-0.05c0.51-0.01,1.02-0.01,1.53-0.02c0.06,0,0.09,0.03,0.09,0.09c0,0.02-0.02,0.04-0.04,0.05
		c-0.06,0.04-0.12,0.08-0.17,0.13c-0.07,0.06-0.08,0.12-0.02,0.19c0.06,0.07,0.14,0.14,0.19,0.22c0.02,0.03,0,0.09,0,0.13
		L179.44,95.59z"/>
	<path class="st1" d="M191.12,92.95c0.1,0.09,0.18,0.17,0.27,0.25c0.01,0.01,0.03,0.05,0.02,0.06c-0.03,0.03-0.06,0.08-0.1,0.07
		c-0.52-0.03-1-0.22-1.49-0.37c-0.11-0.03-0.21-0.11-0.32-0.17c-0.02-0.01-0.04-0.04-0.03-0.06c0.01-0.04,0.04-0.08,0.07-0.11
		c0.01-0.02,0.04-0.02,0.07-0.02c0.54,0,1.08,0,1.62,0.01c0.02,0,0.04,0.02,0.05,0.03c0.04,0.05,0.02,0.08-0.03,0.12
		C191.2,92.81,191.16,92.88,191.12,92.95z"/>
	<path class="st1" d="M64.48,92.61c0.29,0,0.59,0,0.88,0c0.06,0,0.1,0.04,0.08,0.1c-0.01,0.04-0.02,0.11-0.05,0.12
		c-0.25,0.1-0.5,0.21-0.76,0.28c-0.35,0.09-0.69,0.26-1.07,0.21c-0.02,0-0.05-0.02-0.05-0.03c-0.01-0.02-0.01-0.05,0-0.07
		c0.03-0.04,0.07-0.07,0.1-0.1c0.07-0.06,0.19-0.09,0.15-0.22c-0.02-0.06-0.09-0.11-0.12-0.18c-0.01-0.03,0.02-0.11,0.03-0.11
		C63.94,92.61,64.21,92.61,64.48,92.61C64.48,92.61,64.48,92.61,64.48,92.61z"/>
	<path class="st1" d="M42.43,87.26c-0.18,0-0.25,0-0.32,0c-0.06,0-0.11-0.02-0.1-0.07c0.01-0.04,0.04-0.08,0.08-0.11
		c0.04-0.03,0.08-0.05,0.12-0.07c0.15-0.09,0.15-0.09,0.05-0.26c-0.02-0.04-0.05-0.09-0.05-0.13c0-0.02,0.07-0.06,0.1-0.05
		c0.38,0.11,0.76,0.15,1.15,0.19c0.14,0.01,0.28,0.06,0.42,0.1c0.06,0.02,0.08,0.06,0.05,0.1c-0.01,0.02-0.02,0.05-0.04,0.06
		c-0.04,0.03-0.08,0.06-0.13,0.07c-0.07,0.02-0.14,0.03-0.21,0.04C43.15,87.18,42.74,87.23,42.43,87.26z"/>
	<path class="st1" d="M212.57,86.93c0.08,0.05,0.18,0.1,0.27,0.17c0.03,0.02,0.04,0.07,0.06,0.11c-0.04,0.02-0.08,0.05-0.12,0.05
		c-0.17,0-0.34,0-0.51-0.02c-0.36-0.04-0.72-0.09-1.09-0.14c-0.05-0.01-0.09-0.03-0.13-0.06c-0.04-0.03-0.08-0.07-0.09-0.11
		c-0.01-0.03,0.04-0.09,0.07-0.09c0.17-0.04,0.33-0.08,0.5-0.1c0.34-0.04,0.68-0.06,1-0.17c0.04-0.01,0.09,0.01,0.14,0.01
		C212.74,86.73,212.56,86.78,212.57,86.93z"/>
	<path class="st1" d="M52.22,90.02c-0.08-0.09-0.14-0.16-0.21-0.24c-0.01-0.01-0.01-0.05,0-0.06c0.01-0.02,0.03-0.03,0.05-0.04
		c0.02-0.01,0.05-0.01,0.07-0.01c0.46,0.09,0.92,0.13,1.39,0.12c0.07,0,0.15,0.01,0.21,0.04c0.03,0.01,0.05,0.07,0.06,0.11
		c0.01,0.02-0.01,0.05-0.03,0.06c-0.11,0.05-0.21,0.12-0.33,0.15c-0.46,0.09-0.92,0.16-1.38,0.23c-0.06,0.01-0.17-0.01-0.19-0.05
		c-0.06-0.09,0.06-0.11,0.11-0.15C52.05,90.13,52.13,90.08,52.22,90.02z"/>
	<path class="st1" d="M202.71,90.03c0.1,0.06,0.19,0.13,0.29,0.19c0.05,0.03,0.08,0.06,0.05,0.11c-0.01,0.02-0.03,0.03-0.05,0.04
		c-0.02,0.01-0.05,0.01-0.07,0.01c-0.56-0.04-1.11-0.13-1.65-0.29c-0.06-0.02-0.12-0.08-0.17-0.12c-0.01-0.01,0-0.05,0.01-0.07
		c0.01-0.02,0.02-0.05,0.03-0.06c0.14-0.02,0.29-0.05,0.43-0.05c0.37-0.01,0.73-0.03,1.09-0.1c0.08-0.02,0.18-0.07,0.25,0.04
		c-0.06,0.07-0.11,0.15-0.17,0.22C202.73,89.97,202.72,90,202.71,90.03z"/>
	<path class="st1" d="M221.13,83.15c-0.09-0.02-0.14-0.03-0.19-0.04c-0.01-0.01-0.02-0.04-0.02-0.06c0-0.02-0.01-0.05,0.01-0.07
		c0.03-0.04,0.06-0.08,0.1-0.1c0.41-0.21,0.82-0.42,1.24-0.63c0.05-0.02,0.11,0.02,0.09,0.07c-0.12,0.36,0.19,0.24,0.33,0.31
		c0.02,0.01,0.04,0.03,0.05,0.05c0,0.02-0.01,0.05-0.03,0.06c-0.04,0.03-0.07,0.07-0.12,0.08c-0.33,0.09-0.66,0.19-0.99,0.26
		C221.43,83.12,221.25,83.13,221.13,83.15z"/>
	<path class="st1" d="M34.01,83.11c-0.12,0.01-0.22,0.03-0.31,0.02c-0.51-0.06-1-0.19-1.47-0.38c-0.02-0.01-0.03-0.04-0.03-0.07
		c0-0.02,0.02-0.05,0.04-0.06c0.11-0.03,0.23-0.06,0.36-0.1c-0.01-0.08-0.03-0.15-0.03-0.22c-0.01-0.05,0.04-0.1,0.08-0.08
		c0.44,0.22,0.87,0.44,1.3,0.67C33.98,82.93,33.98,83.03,34.01,83.11z"/>
</g>
</svg>
