<svg width="579" height="309" viewBox="0 0 579 309" fill="none" xmlns="http://www.w3.org/2000/svg">
<g clip-path="url(#clip0)">
<path d="M447.496 296.113C443.35 301.531 438.458 305.549 439.536 307.383C439.536 307.383 441.741 309.05 447.827 309.05C458.275 309.05 468.556 308.25 466.865 307.183C464.527 305.699 457.761 305.165 451.293 302.915C449.635 302.365 454.792 299.247 453.399 298.747C451.346 298.077 449.367 297.194 447.496 296.113Z" fill="#29375F"/>
<path d="M555.187 307.066C555.187 307.066 556.563 309 561.82 309C570.858 309 580.277 307.766 578.818 306.833C576.794 305.566 560.958 302.248 560.958 302.248L557.409 297.813L551.389 301.147L555.187 307.066Z" fill="#29375F"/>
<path d="M526.631 173.139C522.652 173.155 518.686 172.679 514.823 171.722C513.247 171.237 511.921 170.155 511.124 168.704C510.327 167.254 510.122 165.548 510.553 163.949C510.983 162.349 512.015 160.98 513.431 160.132C514.847 159.283 516.536 159.022 518.14 159.402C518.356 159.402 532.634 163.136 540.958 155.95C546.53 151.149 548.653 142.079 547.26 129.025L546.812 124.857L559.648 117.538C560.375 117.082 561.186 116.779 562.033 116.646C562.879 116.514 563.744 116.555 564.574 116.767C565.405 116.979 566.184 117.358 566.865 117.881C567.546 118.404 568.115 119.06 568.537 119.81C568.959 120.56 569.226 121.387 569.321 122.244C569.417 123.1 569.339 123.966 569.093 124.792C568.846 125.617 568.436 126.383 567.888 127.045C567.339 127.706 566.662 128.25 565.899 128.642L560.228 131.876C561.123 147.264 557.409 158.635 549.15 165.704C542.152 171.672 533.463 173.139 526.631 173.139Z" fill="#EDAB85"/>
<path d="M548.52 137.728C548.288 147.014 545.834 153.733 541.174 157.734C532.037 165.62 516.382 161.602 516.117 161.536C515.234 161.295 514.312 161.231 513.405 161.348C512.497 161.466 511.621 161.761 510.828 162.219C509.224 163.143 508.052 164.669 507.568 166.462C507.084 168.255 507.329 170.168 508.248 171.78C509.167 173.392 510.685 174.57 512.469 175.057C516.551 176.841 520.969 177.716 525.42 177.624C552.417 176.657 568.718 153.25 569.017 139.595L548.52 137.728Z" fill="#E1F3F6"/>
<path d="M511.391 105.267C508.969 104.167 506.598 102.983 504.26 101.75C481.873 114.554 453.283 130.976 452.719 131.543C452.719 131.543 466.931 154.283 467.843 155.2C468.424 155.784 503.663 130.376 529.002 111.97C523.148 109.685 517.128 107.835 511.391 105.267Z" fill="#394A78"/>
<path d="M511.706 104.601C517.576 107.201 523.728 109.085 529.682 111.436C543.628 101.299 554.424 93.4136 554.424 93.4136L530.577 86.7448L505.072 101.316C507.228 102.483 509.467 103.584 511.706 104.601Z" fill="#556AA5"/>
<path d="M470.646 74.7575L484.692 112.97L512.137 123.09L477.379 59.2358L470.646 74.7575Z" fill="#394A78"/>
<path d="M513.646 132.493H493.298L511.407 164.286L539.001 175.974L513.646 132.493Z" fill="#394A78"/>
<path d="M538.985 175.974L522.8 148.198L453.532 189.028L439.917 165.687L448.474 26.8087L479.601 8.46939L535.619 104.55L554.474 93.4469L570.145 120.339L551.306 131.443L567.491 159.218L538.985 175.974ZM476.151 68.2054L474.394 69.2391L469.634 143.413L507.129 121.323L476.151 68.2054Z" fill="#435586"/>
<path d="M416.9 159.318L439.917 165.67L453.549 189.028L429.205 182.843L416.9 159.318Z" fill="#394A78"/>
<path d="M416.9 159.318L439.917 165.67L448.474 26.792L427.347 21.707L416.9 159.318Z" fill="#556AA5"/>
<path d="M427.347 21.707L448.474 26.792L479.601 8.43608L458.208 2.18405L427.347 21.707Z" fill="#556AA5"/>
<path d="M473.664 214.653C473.664 214.653 476.981 251.331 476.981 264.219C476.981 264.219 450.448 285.042 443.814 295.896C446.6 298.03 452.106 300.897 455.754 300.764C467.24 289.911 479.69 280.139 492.95 271.571C492.95 271.571 501.358 247.097 503.961 226.357L473.664 214.653Z" fill="#29375F"/>
<path d="M492.618 216.387C498.593 216.593 504.524 215.286 509.865 212.585C508.207 205.25 511.822 183.626 516.498 172.072C516.498 172.072 520.146 164.036 517.593 161.552C508.14 152.416 500.097 153.216 497.593 153.066C488.904 160.435 472.719 182.159 473.399 210.902C477.793 215.57 486.831 216.353 492.618 216.387Z" fill="#E1F3F6"/>
<path d="M551.24 302.165C554.725 301.393 557.861 299.489 560.162 296.746C549.897 280.074 512.253 218.537 510.213 213.719C510.213 213.603 510.114 213.452 510.064 213.319C504.329 216.2 497.94 217.512 491.541 217.12C485.985 216.904 477.909 216.12 473.299 211.969C473.299 212.269 473.299 212.569 473.299 212.869C474.079 228.907 527.028 282.408 547.923 302.898C549.043 302.726 550.151 302.48 551.24 302.165Z" fill="#435586"/>
<path d="M441.957 199.748C440.516 199.756 439.082 199.531 437.712 199.081C435.667 198.37 433.834 197.151 432.384 195.535C430.934 193.92 429.914 191.963 429.42 189.845C429.155 189.034 429.055 188.177 429.125 187.326C429.195 186.475 429.434 185.647 429.828 184.891C430.222 184.134 430.763 183.465 431.419 182.922C432.075 182.38 432.832 181.975 433.646 181.732C434.461 181.489 435.315 181.412 436.159 181.507C437.003 181.602 437.82 181.866 438.56 182.283C439.301 182.701 439.951 183.263 440.472 183.938C440.993 184.612 441.374 185.385 441.592 186.21C441.664 186.487 441.764 186.755 441.891 187.01C442.571 187.01 445.075 186.81 451.194 183.193C456.666 179.975 463.134 175.157 469.435 170.505C479.999 162.653 489.982 155.234 498.224 152.599C499.813 152.144 501.516 152.33 502.971 153.117C504.427 153.904 505.52 155.23 506.018 156.814C506.517 158.398 506.382 160.115 505.642 161.601C504.902 163.086 503.615 164.223 502.054 164.77C495.819 166.754 486.251 173.873 476.981 180.758C463.416 190.862 451.459 199.748 441.957 199.748Z" fill="#EDAB85"/>
<path d="M453.831 194.98C453.051 191.229 452.172 187.077 449.867 183.993C444.743 186.844 442.571 187.027 441.94 187.011C441.814 186.755 441.714 186.487 441.642 186.21C441.423 185.385 441.043 184.613 440.522 183.938C440.001 183.263 439.351 182.701 438.61 182.283C437.869 181.866 437.053 181.602 436.209 181.507C435.365 181.413 434.51 181.489 433.696 181.732C432.882 181.975 432.125 182.38 431.469 182.923C430.813 183.465 430.272 184.134 429.878 184.891C429.484 185.647 429.245 186.475 429.175 187.326C429.105 188.177 429.205 189.034 429.47 189.845C429.964 191.963 430.984 193.921 432.434 195.536C433.883 197.151 435.716 198.37 437.762 199.081C439.132 199.531 440.565 199.756 442.007 199.748C446.262 199.516 450.406 198.295 454.112 196.18C453.98 195.78 453.914 195.38 453.831 194.98Z" fill="#EDAB85"/>
<path d="M506.184 156.767C505.677 155.154 504.554 153.809 503.061 153.028C501.569 152.246 499.829 152.092 498.224 152.599C489.932 155.234 479.982 162.603 469.435 170.505C463.183 175.157 456.716 179.975 451.194 183.193L450.481 183.609C452.852 186.76 456.948 202.315 457.031 202.666C463.764 199.131 496.035 174.423 503.033 166.971C505.487 164.403 507.245 160.119 506.184 156.767Z" fill="#E1F3F6"/>
<path d="M432.969 194.596C432.582 194.593 432.206 194.471 431.891 194.246C426.916 190.662 424.313 183.776 424.213 183.493C424.039 183.028 424.056 182.514 424.26 182.062C424.464 181.61 424.837 181.258 425.299 181.084C425.761 180.909 426.273 180.926 426.722 181.131C427.172 181.335 427.522 181.711 427.696 182.176C427.696 182.176 430.017 188.294 434.063 191.195C434.464 191.486 434.734 191.924 434.815 192.415C434.896 192.905 434.781 193.407 434.495 193.813C434.323 194.058 434.094 194.257 433.828 194.394C433.562 194.53 433.267 194.6 432.969 194.596Z" fill="#EDAB85"/>
<path d="M432.986 190.028C432.686 190.03 432.39 189.958 432.124 189.818C431.858 189.679 431.63 189.476 431.46 189.228C429.072 185.893 427.165 177.774 426.949 176.874C426.839 176.388 426.924 175.878 427.184 175.454C427.445 175.029 427.861 174.725 428.342 174.606C428.582 174.55 428.83 174.542 429.073 174.583C429.316 174.623 429.548 174.712 429.757 174.844C429.965 174.976 430.145 175.148 430.287 175.351C430.428 175.553 430.528 175.782 430.581 176.024C431.112 178.291 432.836 184.693 434.495 187.06C434.638 187.261 434.739 187.489 434.794 187.73C434.849 187.97 434.856 188.22 434.814 188.463C434.773 188.707 434.683 188.939 434.552 189.148C434.42 189.356 434.248 189.537 434.047 189.678C433.739 189.904 433.367 190.027 432.986 190.028Z" fill="#EDAB85"/>
<path d="M435.556 188.894C435.196 188.886 434.846 188.771 434.551 188.563C434.256 188.356 434.028 188.065 433.898 187.727C432.239 183.509 431.51 174.673 431.476 174.39C431.443 173.904 431.597 173.424 431.905 173.048C432.214 172.673 432.654 172.431 433.135 172.372C433.62 172.33 434.102 172.482 434.477 172.794C434.852 173.105 435.091 173.553 435.141 174.04C435.399 178.202 436.117 182.324 437.281 186.327C437.467 186.789 437.463 187.307 437.27 187.766C437.077 188.225 436.711 188.589 436.252 188.778C436.031 188.866 435.794 188.906 435.556 188.894Z" fill="#EDAB85"/>
<path d="M438.358 188.061C437.945 188.063 437.543 187.926 437.215 187.673C436.888 187.419 436.654 187.063 436.551 186.66C435.871 183.541 435.871 180.31 436.551 177.191C436.669 176.707 436.972 176.29 437.395 176.031C437.817 175.772 438.325 175.691 438.806 175.807C439.045 175.862 439.27 175.964 439.469 176.107C439.668 176.25 439.836 176.432 439.964 176.642C440.093 176.851 440.178 177.085 440.215 177.328C440.253 177.571 440.242 177.819 440.183 178.058C439.647 180.58 439.647 183.188 440.183 185.71C440.245 185.949 440.259 186.197 440.225 186.442C440.191 186.686 440.11 186.921 439.985 187.134C439.86 187.346 439.694 187.532 439.498 187.679C439.301 187.827 439.077 187.934 438.839 187.994C438.683 188.04 438.521 188.062 438.358 188.061Z" fill="#EDAB85"/>
<path d="M513.364 166.971C512.481 166.964 511.609 166.765 510.81 166.387C510.101 166.051 509.466 165.578 508.939 164.994C508.413 164.41 508.006 163.728 507.743 162.986C507.48 162.244 507.364 161.457 507.404 160.671C507.444 159.884 507.638 159.113 507.974 158.401C509.202 156.021 510.687 153.785 512.402 151.732C513.425 150.514 514.887 149.754 516.467 149.62C518.046 149.485 519.615 149.988 520.826 151.016C522.038 152.044 522.794 153.513 522.928 155.102C523.061 156.69 522.562 158.267 521.539 159.485C520.477 160.745 519.549 162.115 518.77 163.57C518.278 164.59 517.51 165.45 516.553 166.052C515.597 166.653 514.492 166.972 513.364 166.971Z" fill="#EDAB85"/>
<path d="M514.259 163.886C514.958 164.672 515.7 165.418 516.482 166.12C517.49 165.506 518.297 164.607 518.803 163.536C519.582 162.081 520.51 160.712 521.573 159.452C522.595 158.233 523.095 156.657 522.961 155.068C522.827 153.48 522.071 152.01 520.86 150.982C519.648 149.954 518.08 149.452 516.5 149.587C514.92 149.721 513.458 150.481 512.435 151.699C512.319 151.849 511.838 152.433 511.192 153.283C511.258 157.051 511.706 160.985 514.259 163.886Z" fill="#EDAB85"/>
<path d="M533.877 157.218C532.732 159.998 530.537 162.208 527.774 163.364C525.011 164.521 521.904 164.529 519.135 163.386C517.763 162.82 516.515 161.986 515.464 160.934C514.413 159.882 513.578 158.632 513.008 157.255C512.438 155.879 512.144 154.402 512.142 152.911C512.141 151.42 512.432 149.943 512.999 148.565L515.984 141.279C516.548 139.9 517.376 138.645 518.423 137.588C519.469 136.531 520.713 135.692 522.082 135.119C523.452 134.546 524.92 134.251 526.403 134.249C527.887 134.248 529.356 134.54 530.727 135.11C533.495 136.258 535.696 138.464 536.847 141.244C537.998 144.023 538.003 147.148 536.862 149.932L533.877 157.218Z" fill="#EDAB85"/>
<path d="M514.26 147.748C513.331 151.649 507.759 150.399 505.669 148.365C502.784 145.547 501.059 137.611 507.46 138.045C502.85 131.059 518.472 123.473 520.097 131.559C521.324 129.475 522.568 127.591 525.287 127.425C527.244 127.291 530.66 128.825 530.378 131.226C531.822 130.14 533.585 129.57 535.387 129.606C537.19 129.643 538.929 130.283 540.328 131.426C541.257 132.176 542.915 133.843 542.086 135.044C541.622 135.711 539.267 135.927 538.487 136.161C539.847 135.544 545.403 136.794 544.308 139.112C543.811 140.195 541.074 139.228 540.278 138.995V139.245C543.263 140.912 544.474 142.579 544.126 146.264C543.96 147.931 543.164 151.266 541.141 151.449C540.096 151.566 538.902 150.899 538.919 149.782C541.406 152.266 537.89 158.935 534.756 155.65C534.244 154.966 534.014 154.11 534.113 153.26C534.212 152.409 534.632 151.63 535.287 151.082C533.43 150.015 529.4 144.413 532.269 142.83C530.926 142.83 524.723 140.746 526.697 138.962C527.228 141.029 524.657 143.73 522.634 142.663C523.894 145.43 520.163 147.498 517.875 147.664C519.284 149.432 514.973 151.532 513.646 148.965L514.26 147.748Z" fill="#593331"/>
<path d="M302.078 125.09C302.078 125.09 298.463 111.136 316.439 107.818L315.063 124.59L302.078 125.09Z" fill="#E09D78"/>
<path d="M230.041 160.302C226.249 160.336 222.498 159.516 219.063 157.901C202.729 150.149 200.921 126.824 200.822 125.841C200.714 124.159 201.272 122.503 202.374 121.234C203.476 119.964 205.032 119.184 206.704 119.063C208.376 118.942 210.027 119.49 211.298 120.588C212.57 121.686 213.358 123.244 213.491 124.924C213.839 129.625 216.509 142.613 224.502 146.381C231.136 149.498 241.318 146.381 254.07 137.211C255.444 136.27 257.129 135.908 258.765 136.203C260.402 136.497 261.858 137.425 262.821 138.786C263.785 140.148 264.179 141.835 263.92 143.485C263.66 145.136 262.767 146.618 261.433 147.614C249.692 156.067 239.096 160.302 230.041 160.302Z" fill="#CDE5E8"/>
<path d="M263.804 172.222C265.562 167.554 267.204 162.836 269.111 158.218C267.804 158.117 266.503 157.945 265.214 157.701C259.404 156.695 253.989 154.079 249.576 150.149C245.17 146.115 241.763 141.103 239.626 135.511C237.195 129.058 235.828 122.25 235.58 115.354C235.005 99.281 238.043 83.2847 244.469 68.5555C247.242 62.2869 251.005 56.5104 255.612 51.45C259.614 47.0093 264.603 43.5818 270.172 41.4467C275.186 39.7076 280.538 39.1877 285.79 39.9296C291.042 40.6715 296.044 42.654 300.387 45.7148C302.178 42.1136 304.118 38.5625 305.959 35.028C308.131 30.86 310.154 26.5919 312.078 22.3072C312.907 20.4733 313.62 18.5727 314.383 16.7054C307.854 13.0165 300.758 10.4472 293.389 9.10294C283.11 6.96144 272.466 7.36769 262.378 10.2866C252.699 13.1936 243.764 18.1827 236.194 24.908C228.106 32.2268 221.438 40.9886 216.526 50.7497C205.479 72.6786 200.806 97.2949 203.044 121.773C204.075 132.648 207.106 143.237 211.982 152.999C216.542 162.079 223.023 170.046 230.97 176.34C238.656 182.333 247.6 186.484 257.121 188.478C259.443 183.093 261.732 177.741 263.804 172.222Z" fill="#556AA5"/>
<path d="M349.755 76.3581C348.742 65.4842 345.74 54.892 340.899 45.1146C336.336 36.0374 329.856 28.0715 321.912 21.7737C319.768 20.0777 317.513 18.5293 315.162 17.1389C314.416 19.0228 313.703 20.9068 312.874 22.7407C310.901 27.0254 308.927 31.2935 306.738 35.4782C304.881 39.0293 302.924 42.5971 301.116 46.2316C301.763 46.7318 302.393 47.232 303.007 47.7821C307.385 51.853 310.787 56.8694 312.957 62.4536C315.464 68.8379 316.882 75.6015 317.152 82.46C317.736 98.5337 314.697 114.532 308.264 129.258C305.501 135.598 301.682 141.417 296.971 146.464C292.891 150.848 287.872 154.241 282.295 156.384C278.33 157.849 274.108 158.479 269.89 158.235C267.784 163.236 266.01 168.454 264.086 173.556C262.163 178.658 260.04 183.559 257.835 188.461L259.327 188.778C269.608 190.907 280.25 190.495 290.337 187.577C300.016 184.675 308.95 179.692 316.522 172.973C324.627 165.695 331.323 156.973 336.273 147.248C347.337 125.33 352.017 100.716 349.771 76.2413L349.755 76.3581Z" fill="#394A78"/>
<path d="M278.696 195.563C268.355 193.741 258.611 189.415 250.306 182.959C242.362 176.661 235.882 168.696 231.318 159.618C226.449 149.847 223.419 139.254 222.38 128.375C220.135 103.9 224.814 79.2858 235.878 57.3686C240.828 47.6429 247.524 38.9212 255.629 31.6436C263.203 24.9182 272.144 19.9342 281.83 17.0389C291.939 14.2721 302.543 13.8612 312.834 15.8374C323.125 17.8136 332.831 22.1247 341.215 28.4425C349.157 34.7419 355.637 42.7074 360.202 51.7834C365.077 61.5482 368.113 72.1352 369.157 83.0102C371.402 107.485 366.723 132.099 355.658 154.016C350.704 163.725 344.015 172.434 335.925 179.708C328.357 186.433 319.421 191.417 309.74 194.313C299.647 197.259 288.991 197.689 278.696 195.563ZM284.616 164.453C290.307 165.623 296.21 165.179 301.664 163.169C307.261 161.015 312.289 157.592 316.356 153.166C321.048 148.12 324.86 142.314 327.633 135.994C330.874 128.694 333.24 121.032 334.681 113.17C336.258 105.283 336.876 97.2325 336.521 89.1955C336.234 82.3376 334.811 75.5758 332.309 69.1891C330.145 63.6068 326.742 58.5947 322.36 54.5343C318.018 50.6488 312.692 48.0465 306.97 47.0152C301.197 45.8067 295.204 46.2338 289.658 48.249C284.091 50.3897 279.104 53.8163 275.098 58.2522C270.483 63.307 266.719 69.0847 263.954 75.3577C260.679 82.6942 258.301 90.403 256.873 98.3152C255.33 106.156 254.723 114.154 255.065 122.14C255.303 129.006 256.659 135.787 259.078 142.213C261.204 147.816 264.612 152.836 269.028 156.867C273.434 160.775 278.829 163.383 284.616 164.403V164.453Z" fill="#435586"/>
<path d="M390.649 101.816L391.13 125.274C391.13 125.274 384.496 131.276 378.51 125.274L380.699 98.8653L390.649 101.816Z" fill="#593331"/>
<path d="M363.171 288.927C362.789 288.627 360.186 287.41 359.854 287.11C358.683 288.919 357.32 290.596 355.791 292.111C356.959 293.051 357.859 294.285 358.398 295.688C358.937 297.091 359.096 298.612 358.859 300.097C357.584 301.22 356.232 302.251 354.813 303.181C351.181 304.982 344.481 307.483 344.481 307.483L361.346 308.817L373.85 295.929C370.107 293.89 366.536 291.548 363.171 288.927Z" fill="#29375F"/>
<path d="M297.12 289.844C294.434 289.377 291.034 291.511 288.828 289.844C288.53 292.266 288.391 294.705 288.414 297.146L263.539 307.483H295.395C295.677 304.065 295.064 300.814 295.528 297.63C295.727 296.012 296.821 291.411 297.12 289.844Z" fill="#29375F"/>
<path d="M333.424 175.221L305.041 204.525C305.041 204.525 316.545 209.814 327.864 211.574L349.135 177.045L333.424 175.221Z" fill="#CDE5E8"/>
<path d="M357.018 293.462C358.694 291.636 360.193 289.654 361.496 287.543C354.199 281.258 350.634 274.789 340.734 263.652C336.638 259.034 347.483 232.642 350.12 228.207C354.862 220.255 355.592 214.486 359.29 200.865L331.779 211.202C325.145 234.793 317.584 258.4 325.245 269.654C333.321 281.558 347.682 291.144 354.597 295.929C354.862 296.113 356.786 293.295 357.018 293.462Z" fill="#29375F"/>
<path d="M310.668 122.306C310.275 122.314 309.891 122.191 309.574 121.956C309.375 121.812 309.206 121.63 309.078 121.42C308.949 121.211 308.863 120.977 308.825 120.734C308.786 120.491 308.796 120.242 308.853 120.003C308.911 119.763 309.015 119.538 309.159 119.339C310.429 117.644 311.348 115.711 311.862 113.653C311.978 113.192 312.263 112.792 312.66 112.533C313.058 112.274 313.537 112.176 314.004 112.258C314.47 112.341 314.888 112.597 315.174 112.977C315.459 113.356 315.592 113.83 315.544 114.304C314.94 116.917 313.811 119.38 312.227 121.539C312.049 121.785 311.814 121.983 311.542 122.117C311.271 122.251 310.971 122.316 310.668 122.306Z" fill="#EDAB85"/>
<path d="M357.35 206.567C365.542 183.943 372.54 148.448 375.16 134.294C373.838 133.751 372.488 133.284 371.114 132.893C368.676 132.226 365.774 131.426 363.27 132.209C362.038 132.638 360.867 133.226 359.788 133.96C359.167 135.811 358.685 137.706 358.345 139.629C358.345 139.629 340.734 173.456 329.291 196.514C339.038 198.627 348.47 202.006 357.35 206.567Z" fill="#F6EE9E"/>
<path d="M328.943 197.23L326.074 203.066C323.819 207.084 321.381 210.802 319.026 214.369C296.39 248.714 287.833 276.056 286.324 289.027C288.48 290.694 296.656 291.678 299.392 292.145C303.571 270.688 314.433 256.983 333.918 240.795C340.435 235.376 345.311 228.491 349.606 222.772C352.783 217.974 355.31 212.771 357.118 207.3C348.208 202.713 338.734 199.327 328.943 197.23Z" fill="#435586"/>
<path d="M306.97 206.65C305.475 206.643 304.031 206.105 302.891 205.132C301.751 204.159 300.99 202.813 300.74 201.331C300.49 199.849 300.769 198.326 301.526 197.03C302.284 195.734 303.472 194.748 304.881 194.246C312.575 191.562 324.399 180.909 332.359 169.622C341.033 157.019 350.372 144.892 360.335 133.293C360.881 132.635 361.554 132.094 362.313 131.703C363.072 131.311 363.902 131.078 364.753 131.016C365.604 130.954 366.458 131.065 367.265 131.342C368.072 131.62 368.816 132.058 369.451 132.63C370.086 133.203 370.6 133.898 370.962 134.674C371.324 135.451 371.527 136.293 371.558 137.15C371.59 138.006 371.449 138.861 371.145 139.662C370.84 140.463 370.379 141.195 369.787 141.813C360.16 153.049 351.126 164.785 342.724 176.974C334.863 188.178 320.967 202.149 309.043 206.3C308.375 206.527 307.675 206.645 306.97 206.65Z" fill="#EDAB85"/>
<path d="M370.749 136.411H370.301C368.723 136.287 367.257 135.541 366.222 134.336C365.188 133.131 364.669 131.563 364.779 129.975C365.073 127.302 365.656 124.669 366.52 122.123C367.035 120.617 368.123 119.379 369.546 118.68C370.969 117.981 372.61 117.879 374.107 118.397C375.605 118.914 376.837 120.008 377.532 121.439C378.227 122.869 378.328 124.519 377.814 126.024C377.276 127.592 376.903 129.213 376.702 130.859C376.582 132.366 375.903 133.772 374.801 134.8C373.699 135.828 372.253 136.403 370.749 136.411Z" fill="#EDAB85"/>
<path d="M372.407 130.075C373.459 131.28 374.607 132.395 375.84 133.41C376.284 132.634 376.55 131.768 376.62 130.876C376.82 129.229 377.193 127.609 377.731 126.041C378.194 124.672 378.15 123.181 377.607 121.842C377.064 120.504 376.058 119.407 374.775 118.754C373.492 118.101 372.018 117.935 370.623 118.288C369.228 118.64 368.007 119.487 367.184 120.672C367.764 124.023 370.517 127.841 372.407 130.075Z" fill="#EDAB85"/>
<path d="M387.83 117.071C387.797 118.567 387.471 120.042 386.869 121.411C386.267 122.779 385.402 124.015 384.322 125.045C383.243 126.076 381.972 126.882 380.582 127.416C379.191 127.95 377.709 128.203 376.221 128.158C374.733 128.126 373.266 127.798 371.905 127.192C370.544 126.587 369.315 125.717 368.29 124.632C367.265 123.547 366.463 122.269 365.932 120.871C365.4 119.473 365.15 117.984 365.194 116.488L365.36 108.619C365.394 107.122 365.722 105.648 366.324 104.279C366.927 102.911 367.792 101.675 368.871 100.644C369.949 99.612 371.219 98.8046 372.609 98.2677C373.998 97.7308 375.48 97.475 376.968 97.5149C378.456 97.5495 379.923 97.8791 381.284 98.4848C382.645 99.0905 383.874 99.9605 384.9 101.045C385.926 102.129 386.729 103.406 387.263 104.803C387.797 106.2 388.052 107.689 388.012 109.185L387.83 117.071Z" fill="#EDAB85"/>
<path d="M297.999 204.9C294.916 204.786 291.885 204.067 289.077 202.782C288.653 202.568 288.325 202.2 288.161 201.753C287.996 201.305 288.006 200.812 288.189 200.372C288.372 199.931 288.715 199.578 289.147 199.381C289.58 199.185 290.07 199.161 290.52 199.315C295.495 201.399 299.359 201.699 301.846 200.181C302.268 199.925 302.775 199.848 303.254 199.967C303.733 200.085 304.145 200.391 304.4 200.815C304.655 201.24 304.732 201.748 304.614 202.23C304.496 202.711 304.192 203.126 303.77 203.383C302.023 204.416 300.025 204.942 297.999 204.9Z" fill="#EDAB85"/>
<path d="M300.238 207.617C297.511 207.545 294.803 207.131 292.178 206.383L291.333 206.183C290.889 206.034 290.517 205.723 290.289 205.312C290.062 204.901 289.996 204.419 290.104 203.962C290.212 203.504 290.487 203.103 290.874 202.839C291.26 202.574 291.732 202.465 292.195 202.532L293.057 202.732C297.647 204.204 302.573 204.245 307.186 202.849C307.423 202.784 307.671 202.768 307.915 202.801C308.159 202.834 308.394 202.916 308.606 203.042C308.817 203.168 309.002 203.335 309.148 203.534C309.295 203.733 309.4 203.959 309.458 204.199C309.579 204.681 309.506 205.192 309.254 205.62C309.002 206.047 308.593 206.358 308.115 206.483C305.547 207.193 302.9 207.574 300.238 207.617Z" fill="#EDAB85"/>
<path d="M297.866 201.198C294.171 201.143 290.611 199.793 287.8 197.381C287.618 197.215 287.471 197.014 287.367 196.791C287.262 196.568 287.203 196.326 287.192 196.079C287.182 195.833 287.22 195.587 287.304 195.355C287.388 195.123 287.518 194.911 287.684 194.73C288.022 194.368 288.486 194.154 288.979 194.132C289.472 194.11 289.953 194.283 290.321 194.613C291.721 195.797 293.375 196.638 295.154 197.069C296.933 197.5 298.786 197.51 300.569 197.097C300.807 197.032 301.055 197.016 301.298 197.049C301.542 197.082 301.777 197.164 301.989 197.29C302.201 197.416 302.385 197.583 302.532 197.782C302.678 197.981 302.783 198.207 302.841 198.448C302.962 198.929 302.889 199.44 302.637 199.868C302.386 200.295 301.976 200.606 301.498 200.732C300.311 201.035 299.091 201.192 297.866 201.198Z" fill="#EDAB85"/>
<path d="M301.78 199.181H301.564C299.737 199.008 297.972 198.42 296.404 197.461C294.835 196.502 293.504 195.198 292.51 193.646C292.268 193.204 292.211 192.683 292.351 192.199C292.491 191.714 292.816 191.305 293.256 191.062C293.696 190.819 294.214 190.761 294.696 190.902C295.178 191.042 295.585 191.37 295.827 191.812C296.523 192.852 297.444 193.72 298.521 194.352C299.598 194.984 300.802 195.364 302.045 195.463C302.538 195.492 302.999 195.716 303.327 196.087C303.655 196.457 303.823 196.944 303.795 197.439C303.766 197.934 303.543 198.398 303.175 198.727C302.806 199.057 302.322 199.227 301.83 199.198L301.78 199.181Z" fill="#EDAB85"/>
<path d="M324.084 125.024H323.786C320.701 124.507 312.177 123.173 310.287 123.173C310.027 123.198 309.765 123.168 309.518 123.085C309.27 123.002 309.043 122.867 308.85 122.691C308.657 122.514 308.502 122.299 308.397 122.059C308.291 121.819 308.237 121.56 308.237 121.298C308.237 121.035 308.291 120.776 308.397 120.536C308.502 120.296 308.657 120.081 308.85 119.904C309.043 119.728 309.27 119.594 309.518 119.511C309.765 119.427 310.027 119.397 310.287 119.422C312.907 119.422 323.222 121.089 324.399 121.323C324.855 121.409 325.262 121.663 325.542 122.034C325.823 122.406 325.956 122.868 325.917 123.333C325.878 123.797 325.669 124.231 325.33 124.549C324.992 124.868 324.548 125.049 324.084 125.057V125.024Z" fill="#EDAB85"/>
<path d="M322.89 128.958C322.731 128.982 322.569 128.982 322.409 128.958C318.11 127.757 313.732 126.86 309.309 126.274C308.816 126.24 308.356 126.013 308.028 125.642C307.699 125.272 307.528 124.786 307.551 124.29C307.563 124.043 307.625 123.802 307.731 123.579C307.837 123.356 307.987 123.157 308.17 122.992C308.354 122.828 308.568 122.702 308.8 122.621C309.033 122.541 309.279 122.507 309.524 122.523C314.207 123.122 318.841 124.064 323.388 125.341C323.838 125.446 324.234 125.716 324.496 126.099C324.759 126.482 324.87 126.95 324.808 127.411C324.746 127.872 324.515 128.293 324.16 128.591C323.805 128.89 323.352 129.044 322.89 129.025V128.958Z" fill="#EDAB85"/>
<path d="M321.995 133.093C321.802 133.093 321.612 133.059 321.431 132.993C313.023 130.275 310.95 130.109 309.823 130.009C309.296 129.987 308.774 129.909 308.264 129.775C308.013 129.724 307.776 129.623 307.566 129.476C307.356 129.329 307.178 129.141 307.043 128.923C306.908 128.704 306.819 128.46 306.781 128.206C306.744 127.952 306.758 127.693 306.824 127.444C306.89 127.196 307.005 126.964 307.164 126.762C307.322 126.56 307.52 126.393 307.745 126.271C307.97 126.149 308.217 126.074 308.472 126.052C308.726 126.03 308.983 126.06 309.226 126.141C309.518 126.218 309.819 126.263 310.121 126.274C311.464 126.391 313.736 126.574 322.558 129.425C322.977 129.568 323.332 129.855 323.561 130.236C323.789 130.617 323.876 131.066 323.807 131.505C323.738 131.944 323.516 132.345 323.181 132.635C322.846 132.926 322.42 133.088 321.978 133.093H321.995Z" fill="#EDAB85"/>
<path d="M318.313 136.094H318.164C309.756 135.477 309.408 130.892 309.392 130.359H313.123V130.242C313.123 130.242 313.504 132.076 318.446 132.426C318.911 132.484 319.338 132.715 319.642 133.073C319.946 133.432 320.106 133.892 320.089 134.363C320.073 134.834 319.881 135.281 319.552 135.617C319.223 135.953 318.781 136.153 318.313 136.177V136.094Z" fill="#EDAB85"/>
<path d="M311.249 133.877C309.935 133.354 308.532 133.099 307.12 133.126C304.997 133.126 302.145 129.492 302.145 125.741C302.145 125.741 301.1 114.67 312.741 119.672L311.249 133.877Z" fill="#EDAB85"/>
<path d="M348.437 155.002L332 208.646C332 208.646 357.457 212.712 373.058 206.752L377 132.217C377 132.217 359.545 128.174 348.437 155.002Z" fill="#CDE5E8"/>
<path d="M371.296 130.542C369.453 128.88 367.029 128.021 364.557 128.156C362.084 128.29 359.766 129.407 358.113 131.259C348.074 142.973 338.664 155.217 329.921 167.938C328.843 169.472 327.683 171.022 326.422 172.556L324.764 174.607L326.572 176.524C328.495 178.574 330.518 180.558 332.475 182.476L335.626 185.627L337.931 187.961L340.037 185.443C341.911 183.193 343.636 180.942 345.178 178.775C353.515 166.684 362.471 155.037 372.009 143.88C372.837 142.959 373.475 141.882 373.887 140.712C374.299 139.542 374.477 138.302 374.411 137.062C374.345 135.823 374.035 134.609 373.501 133.49C372.966 132.371 372.217 131.369 371.296 130.542Z" fill="#E1F3F6"/>
<path d="M328.438 167.359L322.131 174.415L338.549 189.247L344.856 182.19L328.438 167.359Z" fill="#F8FDFF"/>
<path d="M353.917 121.573L368.278 127.224C368.278 127.224 374.381 97.3815 369.937 92.8967C369.92 92.8967 353.917 91.3796 353.917 121.573Z" fill="#593331"/>
<path d="M370.749 98.0984C371.263 98.8653 382.357 106.334 391.13 104.267C391.13 104.267 389.637 91.0628 369.24 92.9634L370.749 98.0984Z" fill="#593331"/>
<path d="M379.356 112.203C379.359 113.447 378.995 114.664 378.31 115.699C377.625 116.735 376.65 117.543 375.508 118.022C374.366 118.5 373.108 118.627 371.894 118.386C370.68 118.146 369.565 117.548 368.689 116.67C367.813 115.792 367.216 114.672 366.973 113.452C366.731 112.232 366.854 110.968 367.326 109.818C367.799 108.669 368.6 107.686 369.629 106.995C370.657 106.303 371.867 105.934 373.104 105.934C373.924 105.932 374.737 106.093 375.495 106.407C376.253 106.721 376.943 107.182 377.524 107.764C378.104 108.347 378.565 109.039 378.879 109.8C379.194 110.562 379.356 111.378 379.356 112.203V112.203Z" stroke="#DDDD67" stroke-width="0.87" stroke-miterlimit="10"/>
<path d="M393.435 113.403C393.435 114.482 393.117 115.536 392.521 116.432C391.925 117.329 391.078 118.028 390.087 118.44C389.096 118.853 388.006 118.961 386.954 118.75C385.902 118.54 384.936 118.021 384.178 117.258C383.419 116.496 382.903 115.525 382.694 114.467C382.484 113.409 382.592 112.313 383.002 111.317C383.413 110.321 384.108 109.469 384.999 108.87C385.891 108.271 386.94 107.952 388.012 107.952C388.725 107.949 389.431 108.089 390.09 108.362C390.749 108.635 391.347 109.037 391.851 109.544C392.355 110.05 392.755 110.652 393.026 111.315C393.298 111.977 393.437 112.687 393.435 113.403Z" stroke="#DDDD67" stroke-width="0.75" stroke-miterlimit="10"/>
<path d="M379.356 112.203C379.897 111.973 380.49 111.892 381.072 111.969C381.655 112.045 382.207 112.275 382.672 112.636" stroke="#DDDD67" stroke-width="0.87" stroke-miterlimit="10"/>
<path d="M197.787 123.157H197.339C195.76 123.041 194.292 122.3 193.256 121.097C192.221 119.893 191.703 118.325 191.817 116.738C192.094 114.056 192.678 111.415 193.558 108.869C193.814 108.123 194.214 107.436 194.734 106.845C195.254 106.255 195.885 105.773 196.59 105.428C197.295 105.083 198.061 104.881 198.844 104.833C199.627 104.786 200.412 104.893 201.153 105.151C201.895 105.408 202.579 105.809 203.166 106.332C203.753 106.855 204.232 107.49 204.575 108.199C204.919 108.908 205.12 109.678 205.167 110.465C205.215 111.252 205.107 112.041 204.851 112.786C204.314 114.35 203.936 115.964 203.724 117.605C203.619 119.114 202.947 120.527 201.845 121.558C200.743 122.589 199.292 123.16 197.787 123.157Z" fill="#EDAB85"/>
<path d="M194.238 289.81C200.094 292.566 206.435 294.13 212.894 294.412C219.345 282.875 238.78 251.615 221.103 225.973L196.096 212.452C196.096 212.452 221.103 238.694 194.238 289.81Z" fill="#29375F"/>
<path d="M207.173 300.03C207.173 300.03 209.478 295.312 211.286 292.161C209.942 291.995 203.873 291.744 201.336 290.777C198.112 296.62 194.43 302.195 190.325 307.449H223.922L207.173 300.03Z" fill="#29375F"/>
<path d="M248.73 227.474C244.551 219.321 214.204 194.763 211.468 180.658C211.219 179.408 211.004 178.124 210.821 176.824C205.946 179.408 199.628 180.158 194.62 180.375C188.932 180.658 185.532 181.009 180.027 178.324C180.491 187.077 179.081 195.53 184.156 204.383C194.238 221.989 227.72 237.043 231.467 242.862C238.83 254.332 241.417 279.224 243.888 294.412C247.835 294.412 257.155 294.229 261.019 292.861C259.725 285.076 261.831 253.015 248.73 227.474Z" fill="#435586"/>
<path d="M259.194 298.663C259.194 298.663 258.1 294.229 257.785 292.161C253.937 293.512 251.699 292.161 247.835 292.161C248.432 295.929 247.984 302.965 248.332 307.166H280.189L259.194 298.663Z" fill="#29375F"/>
<path d="M194.852 184.977C199.694 184.76 209.893 183.393 213.972 179.291C213.143 172.623 210.158 161.819 211.219 153.15C214.768 123.757 200.49 114.954 200.49 114.954C200.49 114.954 193.857 110.336 188.6 115.854C180.557 124.19 172.73 147.681 173.509 182.442C179.048 185.31 189.031 185.243 194.852 184.977Z" fill="#CDE5E8"/>
<path d="M268.05 194.246C267.565 194.245 267.082 194.195 266.607 194.096C243.606 188.728 224.138 174.873 210.224 154.083C203.998 144.813 199.253 134.619 196.162 123.873C195.819 122.258 196.112 120.572 196.98 119.17C197.847 117.767 199.221 116.757 200.814 116.352C202.406 115.946 204.093 116.177 205.52 116.995C206.947 117.813 208.003 119.155 208.467 120.739C211.273 130.231 215.525 139.23 221.07 147.414C233.258 165.57 249.543 177.141 269.476 181.792C271.005 182.132 272.356 183.029 273.266 184.31C274.176 185.592 274.582 187.167 274.404 188.732C274.227 190.297 273.479 191.74 272.306 192.783C271.132 193.826 269.616 194.395 268.05 194.38V194.246Z" fill="#EDAB85"/>
<path d="M254.07 175.09C241.013 168.714 229.927 158.888 221.998 146.664C216.539 138.598 212.344 129.736 209.561 120.389C209.323 119.432 208.899 118.531 208.313 117.74C207.728 116.948 206.993 116.28 206.15 115.775C205.307 115.27 204.373 114.937 203.401 114.797C202.43 114.656 201.441 114.709 200.49 114.954C199.54 115.193 198.646 115.619 197.86 116.207C197.073 116.794 196.41 117.532 195.908 118.377C195.406 119.223 195.074 120.16 194.933 121.135C194.792 122.109 194.843 123.102 195.084 124.057V124.207C197.912 136.086 202.729 147.396 209.329 157.651C219.924 173.976 235.211 186.67 253.158 194.046C253.29 194.098 253.431 194.126 253.573 194.13C253.798 194.13 254.018 194.06 254.203 193.929C254.354 193.825 254.478 193.686 254.565 193.524C254.651 193.361 254.698 193.18 254.7 192.996V176.107C254.704 175.894 254.647 175.685 254.535 175.505C254.423 175.324 254.262 175.18 254.07 175.09Z" fill="#E1F3F6"/>
<path d="M272.759 194.713C270.587 194.695 268.421 194.466 266.292 194.029C265.837 193.901 265.447 193.606 265.2 193.201C264.953 192.796 264.867 192.313 264.96 191.847C265.052 191.382 265.315 190.969 265.698 190.69C266.08 190.411 266.553 190.288 267.022 190.345C272.577 191.462 277.22 191.045 280.802 189.128C281.243 188.897 281.756 188.85 282.231 188.997C282.705 189.143 283.104 189.472 283.339 189.911C283.455 190.129 283.526 190.368 283.55 190.613C283.573 190.859 283.547 191.106 283.475 191.342C283.403 191.577 283.284 191.796 283.127 191.986C282.97 192.175 282.777 192.332 282.56 192.446C279.531 194.008 276.163 194.787 272.759 194.713Z" fill="#EDAB85"/>
<path d="M273.025 190.562C272.109 190.559 271.195 190.492 270.288 190.362C270.032 190.342 269.782 190.269 269.555 190.149C269.327 190.028 269.127 189.861 268.966 189.659C268.806 189.457 268.688 189.224 268.621 188.974C268.554 188.724 268.539 188.463 268.577 188.207C268.614 187.951 268.704 187.706 268.84 187.486C268.976 187.267 269.156 187.078 269.368 186.931C269.58 186.785 269.819 186.683 270.072 186.634C270.324 186.584 270.584 186.588 270.836 186.644C274.843 187.058 278.882 186.269 282.444 184.376C282.873 184.135 283.38 184.072 283.855 184.203C284.33 184.334 284.734 184.648 284.981 185.077C285.105 185.288 285.186 185.523 285.219 185.766C285.252 186.01 285.237 186.258 285.173 186.495C285.11 186.733 285 186.955 284.851 187.15C284.701 187.344 284.514 187.506 284.301 187.627C280.829 189.496 276.962 190.502 273.025 190.562Z" fill="#EDAB85"/>
<path d="M271.366 186.81H270.487C270.008 186.756 269.568 186.517 269.259 186.145C268.95 185.772 268.796 185.294 268.829 184.81C268.842 184.564 268.903 184.323 269.01 184.101C269.116 183.879 269.266 183.68 269.45 183.517C269.633 183.354 269.848 183.23 270.08 183.151C270.312 183.072 270.558 183.041 270.803 183.059C272.038 183.176 273.283 183.016 274.45 182.592C275.617 182.169 276.676 181.491 277.552 180.608C277.876 180.263 278.319 180.053 278.79 180.022C279.262 179.991 279.728 180.139 280.095 180.439C280.462 180.738 280.703 181.166 280.77 181.637C280.836 182.107 280.723 182.585 280.454 182.976C279.299 184.23 277.891 185.221 276.323 185.883C274.756 186.544 273.066 186.861 271.366 186.81Z" fill="#EDAB85"/>
<path d="M264.916 183.659C264.451 183.615 264.02 183.399 263.706 183.052C263.392 182.705 263.218 182.253 263.218 181.784C263.218 181.315 263.392 180.863 263.706 180.516C264.02 180.169 264.451 179.952 264.916 179.908C266.077 179.854 267.212 179.544 268.241 178.999C269.27 178.455 270.167 177.689 270.869 176.757C271.15 176.348 271.582 176.068 272.069 175.979C272.555 175.89 273.057 175.999 273.464 176.282C273.871 176.565 274.149 176.999 274.238 177.488C274.327 177.978 274.218 178.482 273.937 178.891C272.888 180.318 271.531 181.488 269.969 182.314C268.407 183.14 266.679 183.6 264.916 183.659Z" fill="#EDAB85"/>
<path d="M258.813 141.296C258.517 141.297 258.226 141.226 257.963 141.089C257.7 140.953 257.474 140.755 257.304 140.512C255.719 138.359 254.59 135.902 253.987 133.293C253.923 133.041 253.911 132.778 253.952 132.521C253.994 132.264 254.088 132.018 254.229 131.799C254.37 131.581 254.554 131.394 254.77 131.25C254.987 131.107 255.23 131.01 255.486 130.966C255.741 130.922 256.003 130.932 256.254 130.995C256.506 131.058 256.741 131.172 256.947 131.332C257.152 131.491 257.322 131.691 257.446 131.919C257.57 132.148 257.646 132.4 257.669 132.66C258.192 134.709 259.111 136.635 260.372 138.328C260.516 138.527 260.62 138.753 260.678 138.992C260.735 139.232 260.745 139.48 260.706 139.724C260.668 139.967 260.582 140.2 260.453 140.41C260.325 140.62 260.156 140.802 259.957 140.946C259.623 141.183 259.222 141.305 258.813 141.296Z" fill="#EDAB85"/>
<path d="M259.211 142.213H258.846C254.784 141.669 250.689 141.402 246.591 141.412C246.331 141.437 246.069 141.407 245.822 141.324C245.574 141.241 245.347 141.107 245.154 140.93C244.961 140.754 244.807 140.538 244.701 140.299C244.596 140.059 244.541 139.799 244.541 139.537C244.541 139.275 244.596 139.015 244.701 138.775C244.807 138.535 244.961 138.32 245.154 138.143C245.347 137.967 245.574 137.833 245.822 137.75C246.069 137.667 246.331 137.637 246.591 137.661C250.929 137.645 255.262 137.935 259.559 138.528C260.001 138.631 260.391 138.892 260.657 139.262C260.922 139.632 261.045 140.086 261.002 140.54C260.96 140.994 260.755 141.418 260.425 141.731C260.096 142.045 259.664 142.228 259.211 142.246V142.213Z" fill="#EDAB85"/>
<path d="M245.563 146.031C245.07 146.062 244.586 145.895 244.216 145.566C243.846 145.238 243.62 144.775 243.59 144.28C243.559 143.785 243.725 143.298 244.051 142.926C244.378 142.553 244.838 142.327 245.331 142.296C246.525 142.146 256.939 140.862 260.388 141.462C260.847 141.579 261.246 141.865 261.503 142.265C261.76 142.664 261.858 143.147 261.776 143.615C261.694 144.084 261.439 144.504 261.061 144.791C260.684 145.079 260.213 145.212 259.742 145.164C257.602 144.78 250.057 145.48 245.795 146.014L245.563 146.031Z" fill="#EDAB85"/>
<path d="M248.034 150.282C247.581 150.264 247.149 150.081 246.82 149.767C246.49 149.454 246.285 149.03 246.243 148.576C246.2 148.122 246.323 147.668 246.588 147.298C246.854 146.928 247.244 146.667 247.686 146.564C250.375 146.108 253.025 145.445 255.612 144.58C256.624 144.247 257.901 143.847 259.808 143.28C260.282 143.151 260.787 143.214 261.215 143.456C261.643 143.698 261.959 144.099 262.096 144.573C262.233 145.047 262.179 145.556 261.947 145.991C261.714 146.426 261.321 146.751 260.853 146.898C258.995 147.431 257.801 147.815 256.74 148.165C254.032 149.066 251.26 149.763 248.449 150.249L248.034 150.282Z" fill="#EDAB85"/>
<path d="M252.014 153.266C251.55 153.258 251.106 153.077 250.768 152.758C250.429 152.44 250.22 152.006 250.181 151.542C250.142 151.077 250.275 150.615 250.556 150.243C250.836 149.872 251.243 149.619 251.699 149.532C257.735 148.498 258.946 146.197 258.946 146.197C259.126 145.756 259.466 145.399 259.897 145.2C260.328 145 260.819 144.973 261.27 145.123C261.72 145.274 262.097 145.59 262.325 146.009C262.552 146.429 262.613 146.919 262.494 147.381C262.262 148.115 260.654 151.799 252.329 153.233L252.014 153.266Z" fill="#EDAB85"/>
<path d="M259.211 150.999L257.785 135.711C259.642 135.86 261.37 136.726 262.607 138.128C263.843 139.529 264.492 141.358 264.418 143.23C264.435 145.547 263.755 148.181 259.211 150.999Z" fill="#EDAB85"/>
<path d="M217.206 101.183C218.01 104.258 217.567 107.528 215.975 110.276C214.384 113.023 211.772 115.023 208.715 115.837C205.654 116.651 202.397 116.208 199.661 114.607C196.924 113.007 194.932 110.379 194.122 107.301L192.016 99.2654C191.613 97.7427 191.513 96.155 191.72 94.5932C191.928 93.0313 192.44 91.526 193.227 90.1634C194.014 88.8007 195.061 87.6074 196.307 86.6518C197.553 85.6961 198.975 84.9969 200.49 84.594C202.006 84.1891 203.586 84.0888 205.14 84.2988C206.695 84.5089 208.193 85.0251 209.548 85.8181C210.904 86.611 212.09 87.665 213.04 88.9197C213.99 90.1745 214.684 91.6052 215.083 93.1301L217.206 101.183Z" fill="#EDAB85"/>
<path d="M216.078 96.9147C215.286 99.4904 213.854 101.82 211.916 103.684C209.445 105.741 206.466 107.087 203.295 107.581C200.125 108.074 196.88 107.695 193.907 106.484L194.122 107.301C194.99 110.31 196.994 112.858 199.705 114.402C202.416 115.946 205.62 116.363 208.633 115.565C211.646 114.766 214.229 112.815 215.831 110.128C217.433 107.441 217.926 104.231 217.206 101.183L216.078 96.9147Z" fill="#593331"/>
<path d="M194.089 106.868C189.612 103.967 184.769 92.9801 191.85 90.5793C196.228 89.0788 194.47 102.65 194.47 106.484L194.089 106.868Z" fill="#593331"/>
<path d="M190.49 91.4796C185.084 87.5283 191.801 76.3747 205.167 76.3747C213.458 76.3747 213.458 82.7434 207.671 86.1779C202.911 89.0288 195.565 87.3616 192 92.2298L190.49 91.4796Z" fill="#593331"/>
<path d="M216.078 99.3821C213.467 95.5185 211.102 91.4925 208.997 87.3283C208.069 85.2442 206.808 81.6764 210.987 84.2106C214.47 86.3279 216.377 93.8137 216.045 97.5482L216.078 99.3821Z" fill="#593331"/>
<path d="M121.521 126.057C119.356 127.895 117.292 129.849 115.336 131.909L88.3881 188.494L108.437 162.453L129.746 118.188C126.977 120.839 124.291 123.473 121.521 126.057Z" fill="#394A78"/>
<path d="M105.535 116.771C107.492 114.087 109.366 110.936 111.588 108.152L64.4255 85.0108L19.651 89.5123L98.0561 125.857C100.66 122.906 103.247 119.922 105.535 116.771Z" fill="#394A78"/>
<path d="M112.268 108.485C109.764 111.636 107.724 115.354 105.319 118.288C103.164 120.939 100.991 123.573 98.7692 126.174L134.423 142.696L147.358 125.707L112.268 108.485Z" fill="#556AA5"/>
<path d="M58.5882 174.156L72.4185 145.114L0 110.269L11.6082 85.8444L130.874 15.2216L163.41 30.8933L115.584 131.342L135.269 140.829L122.002 168.888L102.285 159.402L88.471 188.444L58.5882 174.156ZM112.235 61.4866L110.41 60.6029L46.6152 98.1484L85.8011 117.005L112.235 61.4866Z" fill="#435586"/>
<path d="M135.318 140.846L147.358 125.707L137.905 146.798L121.488 169.855L135.318 140.846Z" fill="#394A78"/>
<path d="M130.692 117.338L177.721 13.6877L163.46 30.8933L115.634 131.342C116.928 130.059 129.929 118.105 130.692 117.338Z" fill="#394A78"/>
<path d="M11.6248 85.8445L32.8844 67.2384L149.414 0L130.891 15.2216L11.6248 85.8445Z" fill="#556AA5"/>
<path d="M130.891 15.2216L163.443 30.8933L177.721 13.7044L149.414 0L130.891 15.2216Z" fill="#556AA5"/>
<path d="M90.9419 90.9294C86.9454 88.0618 84.1926 89.2622 82.269 89.629C80.9822 89.8017 79.6764 89.5061 78.5875 88.7954C78.3828 88.6618 78.1539 88.5701 77.914 88.5255C77.674 88.4809 77.4277 88.4842 77.189 88.5353C76.9503 88.5864 76.724 88.6842 76.5229 88.8233C76.3218 88.9623 76.15 89.1398 76.0171 89.3456C75.8843 89.5514 75.7931 89.7815 75.7487 90.0227C75.7043 90.264 75.7076 90.5116 75.7584 90.7516C75.8092 90.9916 75.9066 91.2191 76.0448 91.4212C76.1831 91.6234 76.3597 91.7962 76.5644 91.9297C77.9825 92.7751 79.5202 93.3991 81.1247 93.7803C78.0237 96.6313 74.8563 100.066 74.6739 100.266C74.5073 100.447 74.378 100.659 74.2936 100.891C74.2092 101.123 74.1713 101.369 74.1821 101.616C74.1929 101.862 74.2522 102.104 74.3565 102.327C74.4609 102.551 74.6082 102.751 74.79 102.917C75.1332 103.234 75.5842 103.407 76.0503 103.4C76.3082 103.399 76.5631 103.345 76.7997 103.242C77.0362 103.139 77.2496 102.988 77.4267 102.8C77.4267 102.8 79.6654 100.366 82.1197 97.9817C79.8312 100.866 77.692 103.85 77.294 104.4C77.0924 104.682 76.9721 105.014 76.9464 105.361C76.9207 105.707 76.9906 106.053 77.1484 106.362C77.3062 106.671 77.5458 106.93 77.8407 107.11C78.1357 107.291 78.4744 107.386 78.8197 107.385C79.1148 107.383 79.4053 107.311 79.6676 107.175C79.9298 107.039 80.1564 106.842 80.3287 106.601C81.5559 104.934 83.2805 102.567 84.9223 100.483C84.3087 101.7 83.5293 103.083 81.9871 105.601C81.8563 105.81 81.7681 106.042 81.7273 106.286C81.6866 106.529 81.6942 106.778 81.7497 107.018C81.8052 107.258 81.9075 107.485 82.0507 107.685C82.1939 107.886 82.3752 108.056 82.584 108.185C83.0046 108.446 83.5107 108.529 83.9921 108.417C84.4735 108.304 84.8913 108.005 85.1544 107.585L86.8127 104.951C86.651 105.353 86.6337 105.799 86.7638 106.213C86.894 106.627 87.1634 106.982 87.5258 107.218C87.8279 107.413 88.1787 107.517 88.5374 107.518C88.8474 107.52 89.1528 107.443 89.4254 107.294C89.6979 107.146 89.9286 106.93 90.0962 106.668C91.4884 104.649 92.495 102.388 93.0646 99.999H93.1475C94.1093 94.7973 92.849 92.2965 90.9419 90.9294ZM87.1776 104.134C87.7911 103.05 88.2057 102.216 88.6037 101.399C88.1991 102.346 87.7223 103.261 87.1776 104.134Z" fill="#EDAB85"/>
<path d="M33.7798 112.203C27.8762 111.87 19.2862 123.49 28.0586 126.658C20.1319 126.474 18.1088 137.761 25.4551 140.879C12.7192 138.378 14.1951 154.983 20.2314 161.002C19.207 160.874 18.1671 160.98 17.189 161.311C16.2108 161.643 15.3197 162.192 14.5818 162.918C13.844 163.644 13.2784 164.527 12.9272 165.503C12.576 166.479 12.4483 167.522 12.5534 168.555C13.1836 172.856 14.8751 178.825 25.4717 182.026C36.0683 185.227 42.5523 179.241 47.8257 173.59C51.1424 180.525 67.8747 171.155 66.0672 162.869C72.3522 165.103 77.9905 157.868 78.1231 152.183C78.2558 146.497 74.3422 142.313 70.6275 138.678C73.2477 136.261 73.7452 131.809 73.0487 128.392C71.9045 122.723 64.8566 122.173 64.8566 117.655C64.8566 116.088 65.1551 111.186 63.8119 109.035C61.6892 105.601 57.9912 102.216 53.3313 103.884C33.7798 94.5473 33.7798 112.203 33.7798 112.203Z" fill="#593331"/>
<path d="M45.189 294.412C39.8161 293.462 38.9372 293.728 33.5808 292.428L21.2761 307.566H69.0521L41.3085 300.064L45.189 294.412Z" fill="#29375F"/>
<path d="M134.174 298.747L131.338 295.012C128.823 296.702 126.111 298.073 123.262 299.097L130.808 307.566H158.8L134.174 298.747Z" fill="#29375F"/>
<path d="M28.5561 294.462C33.9125 295.779 39.2688 297.146 44.6915 298.063L84.1428 249.264L77.5095 229.874L49.882 197.847L57.8419 243.229L28.5561 294.462Z" fill="#29375F"/>
<path d="M82.2025 184.41C71.3903 181.525 56.6977 185.177 46.1674 189.178C46.1674 189.178 52.6348 215.036 56.8801 222.739C69.218 245.196 122.649 301.248 122.649 301.248C125.584 300.247 131.239 296.096 133.826 294.412L82.2025 184.41Z" fill="#435586"/>
<path d="M44.7579 199.281C55.2053 195.347 76.2659 188.678 86.9454 191.379C86.9454 191.379 72.6839 157.734 66.2165 150.315C61.8551 145.314 38.0252 131.192 38.0252 149.632C38.3068 166.391 40.5668 183.058 44.7579 199.281Z" fill="#CDE5E8"/>
<path d="M54.0112 148.065L53.5966 148.198C52.0662 148.611 50.4352 148.397 49.0612 147.604C47.6872 146.81 46.6824 145.501 46.2669 143.963C45.6655 141.338 45.3486 138.655 45.3217 135.961C45.4023 134.421 46.0673 132.972 47.1796 131.911C48.2919 130.85 49.7667 130.259 51.2999 130.259C52.8331 130.259 54.3078 130.85 55.4201 131.911C56.5324 132.972 57.1974 134.421 57.2781 135.961C57.2712 137.642 57.4491 139.32 57.8088 140.962C58.1621 142.409 57.9693 143.935 57.2679 145.247C56.5665 146.559 55.4061 147.563 54.0112 148.065Z" fill="#EDAB85"/>
<path d="M58.0409 142.213C58.0152 141.774 57.9486 141.339 57.8419 140.912C57.4823 139.27 57.3043 137.592 57.3113 135.911C57.2306 134.371 56.5656 132.922 55.4533 131.861C54.341 130.8 52.8662 130.209 51.3331 130.209C49.7999 130.209 48.3251 130.8 47.2128 131.861C46.1005 132.922 45.4355 134.371 45.3548 135.911C45.3548 135.994 45.3548 136.177 45.3548 136.427C48.3066 139.812 53.1655 141.396 58.0409 142.213Z" fill="#EDAB85"/>
<path d="M63.9611 124.124C64.8863 126.987 64.6426 130.102 63.2836 132.784C61.9247 135.467 59.5617 137.497 56.7143 138.428C53.8642 139.354 50.7653 139.107 48.0957 137.742C45.426 136.377 43.4031 134.004 42.4694 131.142L40.0483 123.64C39.5905 122.221 39.4153 120.726 39.5327 119.239C39.65 117.752 40.0576 116.303 40.7321 114.975C41.4066 113.646 42.3349 112.465 43.4638 111.497C44.5928 110.529 45.9003 109.795 47.3117 109.335C50.1595 108.41 53.2562 108.657 55.9231 110.023C58.5901 111.388 60.6099 113.761 61.54 116.621L63.9611 124.124Z" fill="#EDAB85"/>
<path d="M130.393 118.088C130.16 117.901 129.888 117.77 129.597 117.705L130.493 116.721C130.66 116.541 130.791 116.329 130.877 116.098C130.962 115.867 131.002 115.621 130.993 115.375C130.983 115.128 130.926 114.886 130.823 114.662C130.72 114.438 130.574 114.237 130.393 114.07L130.095 113.837C130.348 113.468 130.462 113.02 130.417 112.574C130.371 112.127 130.169 111.712 129.846 111.403C129.594 111.168 129.283 111.008 128.946 110.94C128.61 110.872 128.261 110.9 127.939 111.019C128.785 110.152 129.315 109.552 129.382 109.485C129.665 109.106 129.795 108.634 129.747 108.162C129.699 107.691 129.476 107.255 129.122 106.941C128.769 106.628 128.31 106.46 127.839 106.471C127.368 106.482 126.918 106.671 126.579 107.001C124.146 109.715 121.357 112.082 118.287 114.037C117.224 112.379 115.702 111.07 113.91 110.269C113.46 110.14 112.978 110.185 112.56 110.395C112.141 110.604 111.816 110.964 111.647 111.403C111.479 111.841 111.48 112.328 111.65 112.766C111.82 113.204 112.147 113.562 112.566 113.77C113.644 114.295 114.553 115.116 115.186 116.138C114.988 116.678 114.844 117.236 114.755 117.805C87.2771 155.184 50.8605 141.913 49.2022 141.279C47.653 140.763 45.9656 140.866 44.4902 141.568C43.0147 142.269 41.8644 143.514 41.2778 145.045C40.6912 146.577 40.7134 148.276 41.3397 149.791C41.9661 151.306 43.1485 152.521 44.6418 153.183C51.7415 155.636 59.2069 156.849 66.714 156.767C69.4182 156.771 72.1204 156.615 74.8065 156.301C88.5208 154.633 108.802 146.764 125.02 125.757C125.411 125.53 125.787 125.279 126.148 125.007C126.498 124.781 126.835 124.536 127.159 124.274C128.417 123.184 129.582 121.991 130.642 120.706C130.944 120.321 131.087 119.834 131.04 119.347C130.994 118.859 130.762 118.408 130.393 118.088Z" fill="#EDAB85"/>
<path d="M79.8146 141.446L78.2724 141.779C74.4573 142.602 70.5661 143.016 66.6642 143.013C60.875 143.085 55.1159 142.166 49.6333 140.295C47.7858 139.583 45.7328 139.636 43.9239 140.442C42.1149 141.248 40.6975 142.742 39.9819 144.597C39.585 145.504 39.3911 146.488 39.4141 147.479C39.437 148.47 39.6761 149.444 40.1146 150.332C43.7629 156.834 53.7791 159.468 66.6476 159.468C69.4185 159.469 72.187 159.308 74.9392 158.985C76.6716 158.79 78.3929 158.506 80.0965 158.134L81.1744 157.851C80.21 154.744 79.5817 151.541 79.3006 148.298C79.3339 146.006 79.5056 143.717 79.8146 141.446Z" fill="#E1F3F6"/>
<path d="M39.7166 129.675C43.6469 127.158 44.9901 122.473 44.5589 117.771C48.0082 120.106 50.7279 118.688 52.8505 114.687C59.3677 123.873 69.2844 110.219 55.7525 105.267C44.9238 101.316 34.3106 112.086 37.0965 122.906L39.7166 129.675Z" fill="#593331"/>
</g>
<defs>
<clipPath id="clip0">
<rect width="579" height="309" fill="white"/>
</clipPath>
</defs>
</svg>
